<svg xmlns="http://www.w3.org/2000/svg" fill="none" viewBox="0 0 52 52"><circle cx="25.829" cy="25.829" r="25.829" fill="#8965FD"/><path fill="#fff" d="M26.41 34V16.256h6.64c1.809 0 3.398.372 4.766 1.115a7.615 7.615 0 0 1 3.169 3.118c.76 1.335 1.14 2.881 1.14 4.639 0 1.757-.38 3.312-1.14 4.664a7.82 7.82 0 0 1-3.169 3.118c-1.369.726-2.957 1.09-4.765 1.09h-6.642Zm3.472-1.901-1.394-1.344h4.284c1.825 0 3.253-.498 4.284-1.495 1.03-.998 1.546-2.375 1.546-4.132 0-1.758-.515-3.135-1.546-4.132-1.031-.997-2.459-1.495-4.284-1.495h-4.284l1.394-1.344v13.942ZM16.844 34.304a8.375 8.375 0 0 1-3.498-.735 7.522 7.522 0 0 1-2.687-2.13l2.003-2.23a6.263 6.263 0 0 0 1.875 1.495 4.965 4.965 0 0 0 2.206.507c.608 0 1.149-.118 1.622-.354.49-.237.862-.558 1.115-.964.27-.422.406-.912.406-1.47 0-.727-.228-1.301-.684-1.724-.457-.422-1.065-.693-1.826-.81-.743-.119-1.563-.102-2.458.05l-.913-1.825 5.323-5.957.583 1.115h-8.339v-3.016h10.9v2.535l-4.867 5.374-1.243-.786c1.251-.237 2.4-.152 3.448.253a5.183 5.183 0 0 1 2.51 1.927c.625.878.937 1.9.937 3.067 0 1.098-.27 2.078-.81 2.94-.525.862-1.277 1.538-2.257 2.028-.963.473-2.079.71-3.346.71Z"/></svg>