<svg xmlns="http://www.w3.org/2000/svg" fill="none" viewBox="0 0 105 121">
  <g clip-path="url(#a)">
    <mask id="b" width="185" height="94" x="-38" y="-37" maskUnits="userSpaceOnUse" style="mask-type:luminance">
      <path fill="#fff" d="m54.662 56.753 92.253-93.418H-37.592l92.254 93.418Z"/>
    </mask>
    <g stroke="#8965FD" stroke-miterlimit="10" stroke-width="3.641" mask="url(#b)">
      <path d="M53.508 74.5c11.542 0 20.9-9.355 20.9-20.896s-9.358-20.897-20.9-20.897c-11.543 0-20.9 9.356-20.9 20.897 0 11.54 9.357 20.897 20.9 20.897Z"/>
      <path d="M53.505 86.782c18.327 0 33.183-14.854 33.183-33.177 0-18.324-14.856-33.178-33.183-33.178-18.326 0-33.183 14.854-33.183 33.178 0 18.323 14.857 33.178 33.183 33.178Z"/>
      <path d="M53.504 99.069c25.114 0 45.473-20.356 45.473-45.466S78.618 8.137 53.504 8.137c-25.114 0-45.473 20.355-45.473 45.466 0 25.11 20.36 45.465 45.473 45.465Z"/>
    </g>
    <path fill="#8965FD" d="M53.429 57.162a3.46 3.46 0 0 1 3.458 3.458v21.997a3.46 3.46 0 0 1-3.458 3.458 3.46 3.46 0 0 1-3.458-3.458V60.62a3.46 3.46 0 0 1 3.458-3.458ZM53.429 45.02a3.46 3.46 0 0 1 3.458 3.458 3.46 3.46 0 0 1-3.458 3.458 3.46 3.46 0 0 1-3.458-3.458 3.46 3.46 0 0 1 3.458-3.457Z"/>
    <path fill="#8965FD" d="M90.225 81.37s-.122-.642-.157-.785l-5.66-26.227c-.878-4.136-4.322-7.072-8.295-7.072-3.173 0-6.08 1.886-7.546 4.893l-6.373 13.067h-17.55L38.272 52.18c-1.465-3.007-4.373-4.893-7.546-4.893-3.972 0-7.416 2.936-8.295 7.072L16.8 80.485c-.044.193-.087.393-.13.586 0 0-.05.257-.05.278-.035.215-.07.429-.1.643-9.31.993-16.577 8.76-16.577 18.161 0 10.073 8.346 18.268 18.6 18.268h32.804v-5.83H18.543c-7.046 0-12.776-5.579-12.776-12.445 0-6.201 4.68-11.36 10.782-12.288 1.494 9.337 9.704 16.503 19.578 16.503h34.577c10.932 0 19.828-8.773 19.828-19.56a19.52 19.52 0 0 0-.314-3.437l.007.007Z"/>
    <path fill="#fff" d="M81.202 84.808c0-5.644-4.71-10.23-10.49-10.23H36.136c-5.78 0-10.49 4.586-10.49 10.23s4.71 10.23 10.49 10.23H53.47v11.274l22.615-12.723c3.059-1.787 5.11-5.051 5.11-8.78h.007Z"/>
    <path fill="#18222C" d="M35.878 90.23a5.423 5.423 0 1 0 .001-10.847 5.423 5.423 0 0 0 0 10.846ZM70.99 90.23a5.423 5.423 0 1 0 0-10.847 5.423 5.423 0 0 0 0 10.846ZM53.476 120.937a5.423 5.423 0 1 0 0-10.846 5.423 5.423 0 0 0 0 10.846Z"/>
  </g>
  <defs>
    <clipPath id="a">
      <path fill="#fff" d="M0 0h104.211v121H0z"/>
    </clipPath>
  </defs>
</svg>
