<svg xmlns="http://www.w3.org/2000/svg" fill="none" viewBox="0 0 109 88">
  <path fill="#8965FD" d="m108.472 40.727-.187-.937-6.797-31.336C100.427 3.51 96.294 0 91.525 0c-3.81 0-7.307 2.253-9.064 5.847l-7.654 15.609H53.718L46.064 5.847C44.307 2.253 40.81 0 37 0c-4.769 0-8.91 3.51-9.963 8.454l-6.772 31.21c-.05.236-.102.464-.152.7 0 0-.06.304-.06.337l-.127.768C8.732 42.66 0 51.94 0 63.17c0 12.04 10.03 21.828 22.353 21.828h39.41v-6.96h-39.41c-8.46 0-15.352-6.666-15.352-14.867 0-7.408 5.627-13.567 12.959-14.69 1.79 11.163 11.66 19.718 23.524 19.718h41.54c13.137 0 23.821-10.487 23.821-23.37 0-1.402-.135-2.768-.373-4.101Z"/>
  <path fill="#fff" d="M97.635 44.827c0-6.741-5.651-12.225-12.602-12.225h-41.54c-6.95 0-12.602 5.484-12.602 12.225 0 6.742 5.651 12.226 12.602 12.226h20.834v13.466L91.5 55.315c3.674-2.135 6.144-6.041 6.144-10.488h-.009Z"/>
  <path fill="#18222C" d="M43.17 51.307c3.6 0 6.517-2.9 6.517-6.48 0-3.578-2.918-6.48-6.517-6.48-3.6 0-6.518 2.902-6.518 6.48 0 3.58 2.918 6.48 6.518 6.48ZM85.363 51.307c3.6 0 6.518-2.9 6.518-6.48 0-3.578-2.918-6.48-6.518-6.48-3.6 0-6.517 2.902-6.517 6.48 0 3.58 2.918 6.48 6.517 6.48ZM64.318 88c3.6 0 6.518-2.9 6.518-6.48 0-3.578-2.918-6.479-6.518-6.479-3.6 0-6.517 2.901-6.517 6.48 0 3.579 2.918 6.48 6.517 6.48Z"/>
</svg>
