<svg xmlns="http://www.w3.org/2000/svg" fill="none" viewBox="0 0 46 46"><rect width="44" height="44" x="1" y="1" stroke="currentColor" stroke-width="2" rx="7"/><path stroke="currentColor" stroke-linecap="round" stroke-linejoin="round" stroke-width="1.678" d="M26.468 20.01V17.02h-5.533c-1.41 0-2.557-1.18-2.557-2.629V8.63c0-1.455 1.147-2.63 2.557-2.63H32c1.41 0 2.557 1.18 2.557 2.63v5.762c0 1.455-1.147 2.63-2.557 2.63h-3.133"/><path stroke="currentColor" stroke-linecap="round" stroke-linejoin="round" stroke-width="1.678" d="M21.276 11.51h3.463l1.113 2.412 3.57-4.711M27.637 11.566h4.576M33.769 20.01h-14.16a2.238 2.238 0 0 0-2.238 2.238v8.045a2.238 2.238 0 0 0 2.238 2.238h14.16a2.238 2.238 0 0 0 2.238-2.238v-8.045a2.238 2.238 0 0 0-2.238-2.238ZM10.511 27.937C9.124 27.937 8 26.78 8 25.353v-2.759c0-1.426 1.124-2.584 2.511-2.584h.784c1.387 0 2.512 1.158 2.512 2.584v2.759"/><path stroke="currentColor" stroke-linecap="round" stroke-linejoin="round" stroke-width="1.678" d="M31.76 23.803h-1.655c-.683 0-1.237.553-1.237 1.236v2.809c0 .683.554 1.236 1.237 1.236h1.656c.682 0 1.236-.553 1.236-1.236v-2.809c0-.683-.554-1.236-1.236-1.236ZM22.3 29.084h-.56c-.834 0-1.505-.694-1.505-1.55v-2.181c0-.857.677-1.55 1.505-1.55h1.113c.833 0 1.505.694 1.505 1.55v2.181"/><path stroke="currentColor" stroke-linecap="round" stroke-linejoin="round" stroke-width="1.678" d="M10.903 24.832v7.687c0 3.24 2.551 5.863 5.7 5.863 3.15 0 5.702-2.624 5.702-5.863v-5.276"/><path stroke="currentColor" stroke-linecap="round" stroke-linejoin="round" stroke-width="1.678" d="M30.932 27.242v5.886c0 2.903-2.288 5.253-5.102 5.253h-8.454"/></svg>