<svg xmlns="http://www.w3.org/2000/svg" fill="none" viewBox="0 0 46 46"><rect width="44" height="44" x="1" y="1" stroke="currentColor" stroke-width="2" rx="7"/><path stroke="currentColor" stroke-linecap="round" stroke-linejoin="round" stroke-width="2" d="M24.132 23.933h-4.48l-3.837-6.783c-.93-1.65-2.93-2.454-4.814-1.943-2.988.82-4.679 3.846-3.743 6.693l3.638 11.017c.503 1.515 1.965 2.549 3.626 2.549 1.45 0 2.773-.792 3.41-2.038l2.293-4.459h3.813"/><path stroke="currentColor" stroke-linecap="round" stroke-linejoin="round" stroke-width="2" d="M14.225 22.012c0 .758-.637 1.37-1.427 1.37s-1.427-.612-1.427-1.37M17.938 25.49c0 .757-.637 1.37-1.427 1.37s-1.427-.613-1.427-1.37M15.557 29.605c0 .758-.637 1.37-1.427 1.37s-1.427-.613-1.427-1.37M19.559 18.537h6.825M19.559 33.815l7.72.09M21.945 23.933h4.48l3.837-6.783c.93-1.65 2.93-2.454 4.814-1.943 2.989.82 4.679 3.846 3.743 6.693l-3.638 11.017c-.503 1.515-1.965 2.549-3.626 2.549-1.45 0-2.773-.792-3.41-2.038l-2.293-4.459H22.04"/><path stroke="currentColor" stroke-linecap="round" stroke-linejoin="round" stroke-width="2" d="M31.854 22.012c0 .758.637 1.37 1.427 1.37s1.427-.612 1.427-1.37M28.139 25.49c0 .757.637 1.37 1.427 1.37s1.427-.613 1.427-1.37M30.52 29.605c0 .758.637 1.37 1.427 1.37s1.427-.613 1.427-1.37M26.992 22.468v-4.907c0-.927.205-1.847.597-2.695l1.907-4.127c.233-.41.356-.87.356-1.336V7.965c0-1.09-.918-1.965-2.047-1.965h-.573c-1.135 0-2.047.882-2.047 1.965v.354c0 .741-1.597 2.027-2.147 2.55-.544-.523-2.146-1.809-2.146-2.55v-.354c0-1.09-.918-1.965-2.047-1.965h-.573c-1.135 0-2.047.882-2.047 1.965v1.438c0 .466.122.926.356 1.336l1.907 4.127a6.43 6.43 0 0 1 .597 2.695v4.907M27.186 31.345v8.175h-8.293v-8.175"/></svg>