<svg xmlns="http://www.w3.org/2000/svg" fill="none" viewBox="0 0 46 46"><rect width="44" height="44" x="1" y="1" stroke="currentColor" stroke-width="2" rx="7"/><path stroke="currentColor" stroke-linecap="round" stroke-linejoin="round" stroke-width="2" d="M23.498 26.688a3.423 3.423 0 0 0 3.427-3.418 3.423 3.423 0 0 0-3.427-3.418 3.423 3.423 0 0 0-3.428 3.418 3.423 3.423 0 0 0 3.428 3.418Z"/><path stroke="currentColor" stroke-linecap="round" stroke-linejoin="round" stroke-width="2" d="M23.674 32.732a4.83 4.83 0 0 0-1.125-1.759c-1.533-1.529-3.83-1.83-5.635-.885.29-.62.456-1.31.456-2.043a4.804 4.804 0 0 0-3.356-4.598 4.848 4.848 0 0 0 1.764-1.121c1.533-1.53 1.835-3.82.888-5.62.621.29 1.314.454 2.048.454 2.172 0 4.007-1.41 4.61-3.347a4.83 4.83 0 0 0 1.126 1.76c1.533 1.528 3.83 1.83 5.635.885-.29.62-.456 1.31-.456 2.042a4.804 4.804 0 0 0 3.356 4.599 4.847 4.847 0 0 0-1.764 1.121c-1.533 1.53-1.835 3.82-.888 5.62a4.84 4.84 0 0 0-2.048-.455c-2.172 0-4.007 1.411-4.61 3.347ZM26.629 6.459a3.275 3.275 0 0 1-3.28 3.27 3.275 3.275 0 0 1-3.279-3.27M23.35 9.982v4.239M20.371 40.082a3.274 3.274 0 0 1 3.28-3.27 3.275 3.275 0 0 1 3.279 3.27M23.65 36.563V32.32M37.633 13.59a3.286 3.286 0 0 1-4.635 0 3.264 3.264 0 0 1 0-4.622M32.814 13.767l-3.007 2.998M9.367 32.951a3.286 3.286 0 0 1 4.635 0 3.264 3.264 0 0 1 0 4.622M14.182 32.775l3.007-2.999M33.21 37.366a3.264 3.264 0 0 1 0-4.622 3.286 3.286 0 0 1 4.636 0M33.032 32.561l-3.007-2.998M13.79 9.18a3.264 3.264 0 0 1 0 4.623 3.286 3.286 0 0 1-4.636 0M13.967 13.979l3.007 2.998M6.639 20.153a3.275 3.275 0 0 1 3.279 3.27 3.275 3.275 0 0 1-3.28 3.27M10.172 23.424h4.25M40.355 26.388a3.274 3.274 0 0 1-3.279-3.27 3.274 3.274 0 0 1 3.28-3.27M36.828 23.116h-4.256"/></svg>