<svg xmlns="http://www.w3.org/2000/svg" fill="none" viewBox="0 0 46 46"><rect width="44" height="44" x="1" y="1" stroke="currentColor" stroke-width="2" rx="7"/><path stroke="currentColor" stroke-linecap="round" stroke-linejoin="round" stroke-width="2" d="M37.789 13.442a8.344 8.344 0 0 0-11.797 0l-2.877 2.877-2.877-2.877a8.344 8.344 0 0 0-11.796 0 8.344 8.344 0 0 0 0 11.796L22.995 39.79l.12-.12.12.12L37.79 25.238a8.344 8.344 0 0 0 0-11.796Z"/><path stroke="currentColor" stroke-linecap="round" stroke-linejoin="round" stroke-width="2" d="m11.588 27.284 5.978-8.471 3.737 8.7 4.735-4.866 1.891 5.377 4.018-4.391h12.467"/></svg>