<svg xmlns="http://www.w3.org/2000/svg" fill="none" viewBox="0 0 46 46"><rect width="44" height="44" x="1" y="1" stroke="currentColor" stroke-width="2" rx="7"/><path fill="currentColor" d="M23.806 24.891a1.35 1.35 0 1 0 0-2.699 1.35 1.35 0 0 0 0 2.7ZM14.14 25.228a1.35 1.35 0 1 0 0-2.699 1.35 1.35 0 0 0 0 2.7ZM16.31 30.39a1.35 1.35 0 1 0 0-2.7 1.35 1.35 0 0 0 0 2.7Z"/><path stroke="currentColor" stroke-linecap="round" stroke-linejoin="round" stroke-width="2" d="M17.48 17.824a3.165 3.165 0 1 1 6.331 0M26.645 30.654a3.165 3.165 0 1 1-6.33 0M30.727 21.405a3.165 3.165 0 1 1 0 6.331"/><path stroke="currentColor" stroke-linecap="round" stroke-linejoin="round" stroke-width="2" d="M36.805 20.325c-.186 0-.366.017-.54.05a13.278 13.278 0 0 0-1.54-3.727 3.41 3.41 0 0 0 .421-.343 3.163 3.163 0 0 0 0-4.475 3.163 3.163 0 0 0-4.475 0c-.13.129-.242.275-.343.416a12.954 12.954 0 0 0-3.728-1.54 3.38 3.38 0 0 0 .05-.54 3.165 3.165 0 1 0-6.33 0c0 .185.017.365.05.54a13.277 13.277 0 0 0-3.727 1.54 2.995 2.995 0 0 0-.343-.416 3.163 3.163 0 0 0-4.476 0 3.163 3.163 0 0 0 0 4.475c.13.13.276.242.422.343a12.956 12.956 0 0 0-1.54 3.728 3.38 3.38 0 0 0-.54-.05 3.165 3.165 0 1 0 0 6.33c.185 0 .365-.017.54-.05a13.278 13.278 0 0 0 1.54 3.727 3.409 3.409 0 0 0-.422.343 3.163 3.163 0 0 0 0 4.476 3.163 3.163 0 0 0 4.476 0c.129-.13.241-.276.343-.422a12.955 12.955 0 0 0 3.727 1.54 3.38 3.38 0 0 0-.05.54 3.165 3.165 0 1 0 6.33 0 2.83 2.83 0 0 0-.05-.54 13.276 13.276 0 0 0 3.728-1.54c.1.146.213.287.343.422a3.163 3.163 0 0 0 4.475 0 3.163 3.163 0 0 0 0-4.476 3.04 3.04 0 0 0-.422-.343 12.955 12.955 0 0 0 1.541-3.727c.174.028.354.05.54.05a3.165 3.165 0 1 0 0-6.33Z"/></svg>