<svg xmlns="http://www.w3.org/2000/svg" fill="none" viewBox="0 0 46 46"><rect width="44" height="44" x="1" y="1" stroke="currentColor" stroke-width="2" rx="7"/><path stroke="currentColor" stroke-linecap="round" stroke-linejoin="round" stroke-width="2" d="M23.209 33.284c4.172 0 7.554-3.452 7.554-7.71 0-4.257-3.382-7.708-7.554-7.708-4.172 0-7.555 3.451-7.555 7.709 0 4.257 3.383 7.709 7.555 7.709Z"/><path stroke="currentColor" stroke-linecap="round" stroke-linejoin="round" stroke-width="2" d="M9.195 17.311h5.755l2.757 2.99M7 25.575l3.726-2.807h4.929M15.654 28.314l-4.328.088-3.146 4.884M18.842 12l1.857 3.112M37.608 17.311h-5.75l-2.756 2.99M39.81 25.575l-3.732-2.807h-4.924M31.154 28.314l4.328.088 3.14 4.884M27.966 12l-1.863 3.112M23.21 17.867c1.094 0 2.137.245 3.077.672.144-.38.236-.79.236-1.228 0-1.866-1.485-3.38-3.314-3.38-1.828 0-3.313 1.514-3.313 3.38 0 .433.087.843.235 1.229a7.433 7.433 0 0 1 3.078-.673Z"/></svg>