<svg xmlns="http://www.w3.org/2000/svg" fill="none" viewBox="0 0 46 46"><path stroke="currentColor" stroke-width="2" d="M38 1H8a7 7 0 0 0-7 7v30a7 7 0 0 0 7 7h30a7 7 0 0 0 7-7V8a7 7 0 0 0-7-7Z"/><path stroke="currentColor" stroke-linecap="round" stroke-linejoin="round" stroke-width="2" d="M34.51 27.271c-2.476 0-4.49-2.027-4.496-4.53-.006-2.356-.35-3.963-2.464-5.223-2.165-1.254-2.901-4.037-1.661-6.226a4.503 4.503 0 0 1 6.179-1.685c.764.442 4.634 2.839 6.079 6.657.587 1.545.797 4.093.852 6.349.067 2.559-1.965 4.664-4.495 4.664z"/><path stroke="currentColor" stroke-linecap="round" stroke-linejoin="round" stroke-width="2" d="m33.599 17.724-5.845 2.725c-1.51.704-2.467 2.18-2.467 3.798V36M11.492 27.271c2.474 0 4.49-2.027 4.495-4.53.006-2.356.35-3.963 2.464-5.223 2.165-1.254 2.901-4.037 1.661-6.226a4.503 4.503 0 0 0-6.179-1.685c-.764.442-4.634 2.839-6.079 6.657-.587 1.545-.797 4.093-.852 6.349-.067 2.559 1.965 4.664 4.495 4.664z"/><path stroke="currentColor" stroke-linecap="round" stroke-linejoin="round" stroke-width="2" d="m12.4 17.724 5.845 2.725c1.51.704 2.467 2.18 2.467 3.798V36"/></svg>