<svg xmlns="http://www.w3.org/2000/svg" fill="none" viewBox="0 0 46 46"><rect width="44" height="44" x="1" y="1" stroke="currentColor" stroke-width="2" rx="7"/><path stroke="currentColor" stroke-linecap="round" stroke-linejoin="round" stroke-width="2" d="M12.93 12.545c1.581 0 2.863-1.19 2.863-2.657 0-1.468-1.282-2.658-2.862-2.658s-2.862 1.19-2.862 2.658 1.281 2.657 2.862 2.657ZM22.679 12.545c1.58 0 2.861-1.19 2.861-2.657 0-1.468-1.28-2.658-2.861-2.658-1.58 0-2.862 1.19-2.862 2.658s1.281 2.657 2.862 2.657ZM14.036 12.338l5.578 26.239M21.55 12.338 15.98 38.577M20.079 11.336h-4.287M32.23 7v9.4c0 .939-.494 1.868-.977 2.735l-4.391 7.927c-1.978 4.515-1.792 7.833.82 10.944l.663.794M32.23 7v9.4c0 .939.495 1.868.977 2.735l4.392 7.927c1.977 4.515 1.79 7.833-.82 10.944l-.664.794"/></svg>