<svg xmlns="http://www.w3.org/2000/svg" fill="none" viewBox="0 0 46 46"><rect width="44" height="44" x="1" y="1" stroke="currentColor" stroke-width="2" rx="7"/><path stroke="currentColor" stroke-linecap="round" stroke-linejoin="round" stroke-width="2" d="M13.227 32.864v-8.657a9.542 9.542 0 0 1 9.543-9.544 9.542 9.542 0 0 1 9.543 9.544v8.657M32.593 33.193h-20.2a2.054 2.054 0 1 0 0 4.107h20.2a2.054 2.054 0 1 0 0-4.107ZM22.77 8v3M14.928 10.086l1.416 2.637M9 15.63l2.497 1.655M30.838 10.086l-1.416 2.637M36.766 15.63l-2.496 1.655M22.77 20.321v9.1M27.32 24.871h-9.101"/></svg>