<svg xmlns="http://www.w3.org/2000/svg" fill="none" viewBox="0 0 46 46"><rect width="44" height="44" x="1" y="1" stroke="currentColor" stroke-width="2" rx="7"/><path stroke="currentColor" stroke-linecap="round" stroke-linejoin="round" stroke-width="2" d="M14.175 31.42A3.175 3.175 0 0 0 11 34.595v6.025M23.484 6v6.282a2.483 2.483 0 0 0 2.482 2.482"/><path stroke="currentColor" stroke-linecap="round" stroke-linejoin="round" stroke-width="2" d="M19.328 35.284c-3.049 0-5.52-2.47-5.52-5.52 0-3.049 2.471-5.52 5.52-5.52 3.05 0 5.28-2.366 5.28-5.278 0-2.912 2.47-5.531 5.519-5.531 3.05 0 5.52 2.453 5.52 5.502v.034c0 9-7.32 16.313-16.313 16.313h-.006Z"/></svg>