<svg xmlns="http://www.w3.org/2000/svg" fill="none" viewBox="0 0 46 46"><rect width="44" height="44" x="1" y="1" stroke="currentColor" stroke-width="2" rx="7"/><path stroke="currentColor" stroke-linecap="round" stroke-linejoin="round" stroke-width="2" d="m30.444 23.169-.292-.482a22.76 22.76 0 0 0-7.446-7.514l-.722-.453a1.926 1.926 0 0 0-2.384.275l-.67.67a2.117 2.117 0 0 0-.454 2.316l.614 1.462-9.4 9.4.257 6.35 6.351.259 9.366-9.366 1.508.608a2.127 2.127 0 0 0 2.287-.465l.699-.699c.63-.63.745-1.61.28-2.367l.006.006ZM9.946 35.2 7 38.14M19.667 25.479l-3.296 3.29M38.145 17.5a13.139 13.139 0 0 0-3.64-6.86A13.222 13.222 0 0 0 27.645 7M26.814 10.089a9.97 9.97 0 0 1 5.44 2.803 9.941 9.941 0 0 1 2.797 5.44M25.96 13.282c1.451.172 2.861.814 3.973 1.932a6.78 6.78 0 0 1 1.932 3.972"/><path stroke="currentColor" stroke-linecap="round" stroke-linejoin="round" stroke-width="2" d="M35.057 18.325a9.998 9.998 0 0 0-2.797-5.44 9.988 9.988 0 0 0-5.44-2.802"/></svg>