<svg xmlns="http://www.w3.org/2000/svg" fill="none" viewBox="0 0 46 46"><rect width="44" height="44" x="1" y="1" stroke="currentColor" stroke-width="2" rx="7"/><path stroke="currentColor" stroke-linecap="round" stroke-linejoin="round" stroke-width="2" d="M38.803 22.927S35.593 34.853 23.4 34.853C11.21 34.853 8 22.927 8 22.927S12.864 11 23.401 11c10.538 0 15.402 11.927 15.402 11.927Z"/><path fill="currentColor" d="M16.555 19.734a1.297 1.297 0 1 0 0-2.594 1.297 1.297 0 0 0 0 2.594Z"/><path stroke="currentColor" stroke-linecap="round" stroke-linejoin="round" stroke-width="2" d="M25.973 22.776c0 3.247-2.372 5.885-2.372 5.885s-2.372-2.632-2.372-5.885c0-3.254 2.372-5.885 2.372-5.885s2.372 2.631 2.372 5.885Z"/><path stroke="currentColor" stroke-linecap="round" stroke-linejoin="round" stroke-width="2" d="M19.358 15.205a8.57 8.57 0 0 1 12.586 7.571 8.57 8.57 0 0 1-8.57 8.57 8.57 8.57 0 0 1-8.571-8.57"/></svg>