<svg xmlns="http://www.w3.org/2000/svg" fill="none" viewBox="0 0 101 100"><path stroke="currentColor" stroke-linecap="round" stroke-linejoin="round" stroke-width="3.5" d="M89.444 1.75H11.138c-5.185 0-9.388 4.162-9.388 9.295v77.531c0 5.134 4.203 9.296 9.388 9.296h78.306c5.185 0 9.389-4.162 9.389-9.296v-77.53c0-5.134-4.204-9.296-9.389-9.296"/><path stroke="currentColor" stroke-linecap="round" stroke-linejoin="round" stroke-width="3.5" d="M52.592 24.408s7.304-9.799 21.596-5.513 13.478 17.517 13.478 26.13c0 24.297-35.184 41.786-35.184 41.786S17.298 69.32 17.298 45.025c0-8.613-.814-21.844 13.478-26.13s21.595 5.513 21.595 5.513"/><path stroke="currentColor" stroke-linecap="round" stroke-linejoin="round" stroke-width="3.5" d="M52.483 44.64c2.877 0 5.21-2.654 5.21-5.927s-2.333-5.926-5.21-5.926-5.21 2.653-5.21 5.926 2.333 5.926 5.21 5.926M40.351 49.765c1.924-2.14 1.51-5.648-.923-7.837-2.434-2.188-5.967-2.227-7.89-.088-1.924 2.14-1.51 5.648.923 7.836 2.434 2.188 5.967 2.228 7.89.088M72.502 49.672c2.434-2.188 2.847-5.696.923-7.836s-5.456-2.1-7.89.089-2.847 5.696-.923 7.836c1.924 2.139 5.456 2.1 7.89-.089M52.486 66.676c2.783 0 4.244.703 6.89 2.398 3.597 2.301 8.862-3.39 3.956-10.06-3.074-4.177-6.822-6.781-10.846-7.181-4.025.386-7.773 2.99-10.846 7.18-4.907 6.67.358 12.362 3.955 10.06 2.646-1.694 4.107-2.397 6.89-2.397"/></svg>