<svg xmlns="http://www.w3.org/2000/svg" fill="none" viewBox="0 0 101 100"><path stroke="currentColor" stroke-linecap="round" stroke-linejoin="round" stroke-width="4" d="M89.651 1.94H11.345c-5.185 0-9.388 4.161-9.388 9.295v77.53c0 5.134 4.203 9.296 9.388 9.296h78.306c5.186 0 9.389-4.162 9.389-9.295V11.235c0-5.134-4.204-9.296-9.389-9.296"/><path stroke="currentColor" stroke-linecap="round" stroke-linejoin="round" stroke-width="4" d="M69.944 70.39h-33.27L22 81.814v-47.71C22 26.319 28.238 20 35.924 20h34.02c7.685 0 13.924 6.319 13.924 14.104v22.182c0 7.785-6.239 14.104-13.924 14.104M35.672 33.824h36.665M35.672 45.675h36.665M35.672 57.526h23.794"/></svg>