<svg xmlns="http://www.w3.org/2000/svg" fill="none" viewBox="0 0 101 100"><path stroke="currentColor" stroke-linecap="round" stroke-linejoin="round" stroke-width="3.5" d="M89.444 1.75H11.138c-5.185 0-9.388 4.162-9.388 9.295v77.531c0 5.134 4.203 9.296 9.388 9.296h78.306c5.185 0 9.389-4.162 9.389-9.296v-77.53c0-5.134-4.204-9.296-9.389-9.296"/><path stroke="currentColor" stroke-linecap="round" stroke-linejoin="round" stroke-width="3.5" d="M76.292 15.81H24.287c-5.246 0-9.498 4.246-9.498 9.484v31.034c0 5.237 4.252 9.483 9.498 9.483h52.005c5.245 0 9.497-4.246 9.497-9.483V25.294c0-5.238-4.252-9.484-9.497-9.484"/><path stroke="currentColor" stroke-linecap="round" stroke-linejoin="round" stroke-width="3.5" d="M16.79 44.147h13.202l9.18-14.336 5.16 23 7.09-21.065 4.393 17.047 7.474-12.483 2.858 7.837h18.642M58.29 84.81a4.5 4.5 0 1 0-.001-9 4.5 4.5 0 0 0 0 9M80.79 84.81c2.208 0 4-2.014 4-4.5 0-2.485-1.792-4.5-4-4.5-2.21 0-4 2.015-4 4.5 0 2.486 1.79 4.5 4 4.5M16.79 80.81h22"/></svg>