<svg width="32" height="32" viewBox="0 0 32 32" fill="none" xmlns="http://www.w3.org/2000/svg">
<path d="M5 30V21.7373H7.45494C7.76967 20.9783 8.03195 20.0675 8.24177 19.0048C8.47258 17.9422 8.65093 16.8036 8.77682 15.5892C8.90272 14.3747 8.98665 13.1386 9.02861 11.8807C9.09156 10.6012 9.12303 9.36506 9.12303 8.17229V3H24.608V21.7373H27V30H22.8455V25.7711H9.21745V30H5ZM12.0186 21.7373H19.9185V7.03373H13.5923V8.82289C13.5923 11.8157 13.4454 14.3422 13.1516 16.4024C12.8789 18.441 12.5012 20.2193 12.0186 21.7373Z" fill="url(#paint0_linear_82_41)"/>
<defs>
<linearGradient id="paint0_linear_82_41" x1="4.37053" y1="14.3855" x2="27.9757" y2="14.3855" gradientUnits="userSpaceOnUse">
<stop offset="0.331731" stop-color="#2D3F80"/>
<stop offset="1" stop-color="#090D1A"/>
</linearGradient>
</defs>
</svg>
