<svg xmlns="http://www.w3.org/2000/svg" id="Layer_1" viewBox="0 0 2902.68 2902.68"><defs><style>.st1{fill:#001a33}</style></defs><path d="M0 2902.68V0h1010.26v907.18h882.15V0h1010.27v2902.68H0" style="fill:#875ef8"/><path d="M1013.42 1918.58 865.2 2901.86h1183.34l-147.67-979.62 195.93-212.4c36.33-39.38 19.74-103.15-31.17-119.84l-201.11-65.91a632.6 632.6 0 0 0-197.01-31.46h-417.38c-66.92 0-133.41 10.62-197.01 31.46L852.02 1590c-50.92 16.69-67.5 80.45-31.17 119.84l192.55 208.73Z" style="fill:#fff"/><path d="M1458.84 2447.69c66.87 0 121.24-50.22 121.24-111.98s-54.37-111.98-121.24-111.98-121.24 50.22-121.24 111.98 54.37 111.98 121.24 111.98" class="st1"/><circle cx="1249.37" cy="1907.11" r="84.82" class="st1"/><circle cx="1651.57" cy="1907.11" r="84.82" class="st1"/></svg>