<svg xmlns="http://www.w3.org/2000/svg" fill="none" viewBox="0 0 46 46"><rect width="44" height="44" x="1" y="1" stroke="currentColor" stroke-width="2" rx="7"/><path stroke="currentColor" stroke-linecap="round" stroke-linejoin="round" stroke-width="2" d="M14.026 24.82a3.648 3.648 0 0 1-4.376 4.392 3.607 3.607 0 0 1-2.713-2.718 3.648 3.648 0 0 1 4.376-4.393 3.607 3.607 0 0 1 2.713 2.718Z"/><path stroke="currentColor" stroke-linecap="round" stroke-linejoin="round" stroke-width="2" d="M11.429 25.434a.978.978 0 0 1-1.171 1.177.978.978 0 0 1 .445-1.902c.36.079.646.37.726.725ZM25.169 20.953v10.555a7.279 7.279 0 0 1-7.28 7.28h-.127a7.279 7.279 0 0 1-7.28-7.28V29.87M21.98 7.865h-2.507a6.136 6.136 0 0 0-6.135 6.136v.175c0 3.39 2.75 6.135 6.135 6.135h11.392c3.39 0 6.135-2.75 6.135-6.135V14c0-3.391-2.75-6.136-6.136-6.136h-2.506"/></svg>