<svg xmlns="http://www.w3.org/2000/svg" fill="none" viewBox="0 0 46 46"><rect width="44" height="44" x="1" y="1" stroke="currentColor" stroke-width="2" rx="7"/><path stroke="currentColor" stroke-linecap="round" stroke-linejoin="round" stroke-width="2" d="M12.718 39.553h20.938a1.944 1.944 0 0 0 0-3.888H18.029A7.03 7.03 0 0 1 11 28.635c0-3.881 2.974-5.71 4.732-6.635M19.428 15.7l-3.124-5.248a2.95 2.95 0 0 1 1.053-4.044 2.95 2.95 0 0 1 4.044 1.053L30.293 22.4l-5.097 2.997-3.303-5.496"/><path stroke="currentColor" stroke-linecap="round" stroke-linejoin="round" stroke-width="2" d="M20.66 20.225a2.43 2.43 0 1 0 0-4.86 2.43 2.43 0 0 0 0 4.86ZM32.833 26.402 27.742 29.4"/></svg>