<svg xmlns="http://www.w3.org/2000/svg" fill="none" viewBox="0 0 46 46"><rect width="44" height="44" x="1" y="1" stroke="currentColor" stroke-width="2" rx="7"/><path stroke="currentColor" stroke-linecap="round" stroke-linejoin="round" stroke-width="2" d="M26.788 10.07h-7.58c-1.428 0-2.587 1.095-2.587 2.445v.653c0 1.35 1.159 2.445 2.588 2.445h7.579c1.429 0 2.587-1.095 2.587-2.445v-.653c0-1.35-1.158-2.444-2.587-2.444ZM23.002 20.934v7.327M26.878 24.6h-7.751M29.69 33.098H16.31"/><path stroke="currentColor" stroke-linecap="round" stroke-linejoin="round" stroke-width="2" d="M16.623 12.908h-3.244c-1.318 0-2.379 1.008-2.379 2.247v21.598C11 37.998 12.067 39 13.38 39h19.24C33.94 39 35 37.992 35 36.753V15.155c0-1.245-1.067-2.247-2.38-2.247h-3.243M20.498 9.36c0-1.307 1.121-2.36 2.498-2.36 1.378 0 2.499 1.059 2.499 2.36"/></svg>