<svg xmlns="http://www.w3.org/2000/svg" fill="none" viewBox="0 0 46 46"><rect width="44" height="44" x="1" y="1" stroke="currentColor" stroke-width="2" rx="7"/><path stroke="currentColor" stroke-linecap="round" stroke-linejoin="round" stroke-width="2" d="m34.719 29.284-19.746-.095-8.18-8.013a2.622 2.622 0 0 1 .052-3.807 2.753 2.753 0 0 1 3.829.09l6.884 7.053h19.769c1.1 0 1.989.87 1.989 1.948v3.313"/><path stroke="currentColor" stroke-linecap="round" stroke-linejoin="round" stroke-width="2" d="M9.303 27.628v2.437c0 1.617 1.335 2.925 2.986 2.925h27.129M15.568 33.378v2.066M15.77 40.683c1.316 0 2.384-1.045 2.384-2.336 0-1.29-1.068-2.335-2.385-2.335-1.317 0-2.384 1.045-2.384 2.335s1.067 2.336 2.384 2.336ZM33.955 33.378v1.82M34.156 40.683c1.317 0 2.384-1.045 2.384-2.336 0-1.29-1.067-2.335-2.384-2.335s-2.384 1.045-2.384 2.335 1.067 2.336 2.384 2.336ZM35.934 21.587V7.965c0-1.083-.9-1.965-2.006-1.965h-1.875c-1.152 0-2.086.915-2.086 2.044v.876M30.563 16.42v2.584c0 1.37-1.135 2.487-2.539 2.487h-.149"/><path stroke="currentColor" stroke-linecap="round" stroke-linejoin="round" stroke-width="2" d="M30.993 9.114h-1.697c-.696 0-1.26.553-1.26 1.236v4.542c0 .682.564 1.235 1.26 1.235h1.697c.696 0 1.26-.553 1.26-1.235V10.35c0-.683-.564-1.236-1.26-1.236ZM10.994 17.303l.814-.674a2.45 2.45 0 0 1 3.336.208l3.01 3.229c.922.993.819 2.537-.23 3.396l-.562.466"/></svg>