<svg xmlns="http://www.w3.org/2000/svg" fill="none" viewBox="0 0 244 205"><path stroke="#8965FD" stroke-linecap="round" stroke-linejoin="round" stroke-width="2.015" d="m188.69 203.688 1.162-2.072a18.901 18.901 0 0 0 .455-16.494l-3.861-8.54 12.805-33.958a85.788 85.788 0 0 0 5.498-28.127c.172-6.781-.98-13.543-3.213-19.95l-2.355-6.761s10.036-14.079 9.581-26.652c-.344-9.682-.051-17.02-.677-24.63-.496-6.053 3.941-11.4 9.975-12.067l8.853-.98a15.708 15.708 0 0 0 12.32-8.59l2.911-5.832-27.399-2.244S214.3 1 201.273 1c-14.827 0-21.558 13.876-27.854 30.492-2.375 6.276-6.67 13.947-11.107 21.082-8.49 13.644-23.64 21.689-39.699 21.042-7.459-.293-14.917-.596-22.366-.89-8.944-.353-17.97-1.232-26.924-.707-7.924.465-16.221 3.224-23.943.132-11.34-4.548-14.492-18.506-11.754-27.622 1.8-5.993 7.247-10.703 12.563-10.329 6.974.495 6.074 4.568 5.397 5.387-1.031 1.263-2.577 1.284-4.053.87-1.273-.365-2.011 1.384-.839 2.01.425.233.91.425 1.456.577 2.284.616 3.89.747 6.134-1.951 2.962-3.558 1.466-8.884-4.75-10.258-9.844-2.173-16.959 2.92-21.001 9.884-4.043 6.963-3.598 19.091 0 25.833 3.598 6.74 7.185 10.884 7.185 10.884l-4.042 1.91 7.186 3.144-5.74 3.092 7.882 2.194a36.345 36.345 0 0 0-5.083 11.36l-7.853 38.404a44.221 44.221 0 0 1-13.23 23.549l-7.863 7.317A35.092 35.092 0 0 0 1 184.93"/><path stroke="#8965FD" stroke-linecap="round" stroke-linejoin="round" stroke-width="2.015" d="M39.105 203.679s17.515.152 33.241-17.666c15.938-18.061 16.191-43.782 16.191-50.139.374 3.83 10.905 16.898 23.781 23.185 25.125 12.269 38.627 11.683 38.627 11.683v11.157c0 12.118 7.439 18.667 14.635 21.79"/></svg>