<svg xmlns="http://www.w3.org/2000/svg" fill="none" viewBox="0 0 246 140">
  <path fill="#8965FD" d="M123.179 0s-2.411 1.076-2.949 7.234c-.538 6.16 0 8.58 0 8.58s-5.092.806-15.545 9.108c-10.452 8.31-14.692 12.299-20.573 14.701-6.795 2.77-7.826 1.65-28.463 2.457-20.636.807-27.512 4.599-33.5 13.94-13.403 20.905 1.075 41.004 1.075 41.004s-8.31 16.082-9.377 25.728c-1.075 9.646 7.504 17.149 7.504 17.149h8.848s1.873-3.487-2.412-5.629l-4.285-2.143s-1.873-4.554 5.092-15.007c6.965-10.452 18.763-16.611 24.653-25.19 5.89-8.58 5.36-15.814 5.36-15.814s8.849 4.823 23.317 7.773c14.47 2.949 15.778 1.613 15.778 1.613l.995 11.96c.26 3.092.888 6.14 1.892 9.071l9.395 27.593a8.528 8.528 0 0 0 8.068 5.782h4.079c-.583-4.285-3.326-7.503-6.778-10.381l-2.608-27.673 3.487-18.494s9.897-4.393 14.989-17.786c5.092-13.393 5.289-32.228 5.289-32.228s7.333 3.389 13.223 2.313c5.898-1.076 6.965-5.092 6.965-5.092l-10.453-7.234-1.004-4.169a9.486 9.486 0 0 0-3.953-5.656l-4.151-2.77L134.995.018l-5.092 7.503-6.697-7.503-.027-.018Z"/>
  <path fill="#8965FD" d="M28.582 55.74s-15.096-4.268-20.636-9.117c-6.437-5.63-14.209-20.1.269-34.568C16.884 3.386 38.058-.388 46 15.273 55.378 33.767 30.734 41.89 30.734 41.89s5.54-11.743-.278-14.02c-8.23-3.219-12.057 1.335-12.864 7.234-.708 5.182 3.37 11.591 10.874 15.347 4.778 2.385.116 5.29.116 5.29Z"/>
  <path stroke="#fff" stroke-linecap="round" stroke-linejoin="round" stroke-width="2.5" d="m182.99 114.682-5.771-4.584M161.379 134.208l8.545-16.194-1.168-7.557-3.237-12.592M178.473 92.107l-1.261 17.992-1.977 12.592-4.028 6.612c-1.211 1.989-2.719 4.887-4.671 5.622M174.156 134.209l1.36-2.261a7.179 7.179 0 0 1 7.086-3.423l2.175.284-2.088-4.244a9.43 9.43 0 0 1 2.879-11.771l8.928-6.567"/>
  <path stroke="#fff" stroke-linecap="round" stroke-linejoin="round" stroke-width="2.5" d="m139.999 118.52 1.915-5.338a17.85 17.85 0 0 1 9.175-8.786l6.512-2.755 2.231-7.433-.074-.21a34.415 34.415 0 0 1-1.977-15.064l.723-7.884-2.713-2.854a8.788 8.788 0 0 1-2.416-6.055v-2.966l4.77-1.081.179-.198a5.438 5.438 0 0 1 4.029-1.78h2.632l1.439-5.035 2.342 5.759 1.168.179L177.218 50l-1.977 12.777-1.081 5.036 1.532 11.152s16.466 3.417 25.821 13.136c7.086 7.358 7.463 23.794 7.229 31.338a31.333 31.333 0 0 1-1.014 6.975l-.995 3.788"/>
  <path stroke="#fff" stroke-linecap="round" stroke-linejoin="round" stroke-width="2.5" d="m167.672 106.234-1.273.816a25.463 25.463 0 0 1-8.508 3.472l-11.622 2.435-.574 3.373c-.618 1.786-2.744 3.071-2.744 3.071M206.719 134.209s10.257 1.618 20.692 0c10.436-1.619 14.396-7.378 16.373-18.351 1.514-8.409-3.089-14.279-5.332-16.57"/>
</svg>
