<svg xmlns="http://www.w3.org/2000/svg" fill="none" viewBox="0 0 1178 243"><path fill="#8965FD" d="M263.282 6.914S262.747 0 247.071 0c-17.842 0-25.942 16.567-33.519 36.404-2.858 7.493-8.027 16.651-13.366 25.17-10.216 16.29-28.447 25.894-47.772 25.122-8.976-.35-17.951-.712-26.915-1.062-10.763-.422-21.624-1.472-32.4-.845-9.534.555-19.52 3.85-28.81.157-13.647-5.43-17.441-22.093-14.145-32.977 2.165-7.155 8.72-12.778 15.117-12.331 8.392.59 7.31 5.453 6.495 6.43-1.24 1.51-3.102 1.533-4.877 1.038-1.533-.434-2.42 1.654-1.01 2.402a8.25 8.25 0 0 0 1.752.687c2.748.736 4.682.893 7.382-2.328 3.563-4.248 1.763-10.607-5.716-12.248-11.846-2.594-20.408 3.488-25.273 11.801-4.865 8.314-4.33 22.793 0 30.841 4.33 8.049 8.647 12.996 8.647 12.996l-4.864 2.28 8.647 3.753-6.908 3.692 9.486 2.619a43.222 43.222 0 0 0-6.117 13.562l-9.45 45.852a52.69 52.69 0 0 1-15.92 28.114l-9.462 8.736c-5.777 5.333-9.949 12.175-12.004 19.728L0 241.988h51.932s21.076.181 40-21.092c19.18-21.562 19.484-52.271 19.484-59.86.45 4.573 13.123 20.174 28.617 27.68 30.235 14.648 46.483 13.948 46.483 13.948v13.321c0 14.468 11.821 26.015 26.392 26.015h19.009l1.398-2.474a22.405 22.405 0 0 0 .548-19.692l-4.646-10.196 15.409-40.542a101.732 101.732 0 0 0 6.616-33.58c.207-8.097-1.18-16.169-3.867-23.819l-2.834-8.072s12.077-16.809 11.529-31.819c-.413-11.56-.06-20.32-.814-29.405-.596-7.228 4.743-13.611 12.003-14.407l10.654-1.17c6.373-.7 11.956-4.562 14.826-10.257l3.502-6.962-32.971-2.679.012-.012Z" opacity=".3"/><path stroke="#8965FD" stroke-linecap="round" stroke-linejoin="round" stroke-width="2.5" d="M368.55 240.489c-.51-3.746-2.908-6.559-5.925-9.075l-2.28-24.191 3.048-16.167s8.652-3.839 13.103-15.547c4.451-11.716 4.623-28.172 4.623-28.172s6.41 2.962 11.559 2.022c5.149-.941 6.089-4.451 6.089-4.451l-9.137-6.324-.878-3.644a8.292 8.292 0 0 0-3.456-4.945l-3.628-2.421-1.873-9.373-4.451 6.559-5.854-6.559s-2.108.941-2.578 6.324c-.47 5.392 0 7.5 0 7.5s-4.451.705-13.589 7.961c-9.137 7.265-12.843 10.752-17.984 12.852-5.94 2.422-6.841 1.442-24.881 2.147-13.337.518-20.092 2.469-24.826 6.748-5.869-3.331-9.019-8.558-8.439-12.837.705-5.156 4.051-9.137 11.245-6.324 5.086 1.991.243 12.257.243 12.257s21.542-7.1 13.345-23.267c-6.943-13.69-25.46-10.383-33.03-2.813-12.648 12.648-5.854 25.304-.235 30.217 3.009 2.633 9.254 5.07 13.541 6.544-.384.533-.76 1.081-1.129 1.661-11.715 18.275.941 35.844.941 35.844s-7.265 14.058-8.197 22.49c-.933 8.432 6.559 14.991 6.559 14.991"/><path stroke="#8965FD" stroke-linecap="round" stroke-linejoin="round" stroke-width="2.5" d="M288.195 240.489s1.637-3.049-2.108-4.922l-3.746-1.873s-1.638-3.98 4.451-13.118c6.089-9.137 16.402-14.521 21.55-22.02 5.156-7.5 4.686-13.824 4.686-13.824s7.735 4.216 20.383 6.795c12.648 2.578 13.792 1.41 13.792 1.41l.87 10.454a33 33 0 0 0 1.653 7.93l8.213 24.121c1.026 3.017 2.045 4.161 3.275 5.054"/><path fill="#8965FD" d="M506.687 163.376c-.371-.419-1.007-.482-1.499-.217-2.092 1.14-7.087 4.206-10.497 9.103-4.412 6.334.148 13.554-5.297 18.27-5.444 4.716-11.832 4.212-11.832 4.212l2.442.408a14.985 14.985 0 0 0-3.813-2.259c-4.899-2.016-10.143-3.533-15.481-3.48-18.262.175-25.518 6.339-25.518 6.339l-4.12-3.931 1.684-1.724 3.119.488a2.913 2.913 0 0 0 2.648-.965l2.866-3.279a.316.316 0 0 0-.021-.435l-3.464-3.326a5.257 5.257 0 0 0-2.368-4.106l-1.159-.759.497-5.108c.053-.531-.603-.822-.958-.425l-3.66 4.059-1.764-.589-.927-5.342a.55.55 0 0 0-1.011-.197l-2.892 4.685c-3.665 5.941-5.211 13.702-5.598 20.593-.265 4.743.164 10.806 3.766 14.302l-.043.048 7.738 9.23-1.621 17.682-1.874 1.103c-1.51.886-2.527 2.504-2.76 4.244h6.255l1.16-2.727a22.06 22.06 0 0 0 1.679-5.453l.545-3.204 5.975-10.064c7.028 5.586 9.618 10.653 9.618 10.653l.667 6.53c-1.806.403-2.383 2.435-2.431 4.26h5.884v-7.114s-.296-8.843-2.5-15.618a61.767 61.767 0 0 0-1.35-3.761s7.277-3.278 13.601-2.541c.381 8.35 4.374 16.763 4.374 16.763l-5.254 8.987c-1.716 0-3.177 1.581-3.447 3.278h5.614l7.504-10.944v-1.252c0-3.236.858-6.408 2.479-9.204l1.732-2.981 2.733 3.629a17.27 17.27 0 0 0 7.822 5.814l4.057 1.49.149 9.724c-1.759.17-3.088 1.968-3.088 3.724h6.62l1.028-16.981-4.126-2.318a6.225 6.225 0 0 1-3.172-5.092 182.5 182.5 0 0 0-.493-6.292c-.397-4.271-1.329-8.615-3.458-12.148.015 0 .031-.006.047-.011 5.71-1.549 9.883-5.814 11.207-10.238 1.324-4.419.736-11.199 2.648-15.178 1.499-3.119 6.88-7.05 9.142-8.604.577-.398.688-1.22.206-1.756l-.01.005Z"/><path stroke="#8965FD" stroke-linecap="round" stroke-linejoin="round" stroke-width="2.504" d="M159.609 229.395c-2.266 5.252-6.674 6.686-6.674 6.686M172.105 241.618l-.466-1.321a6.892 6.892 0 0 0-4.255-4.22l-1.05-17.538 7.341-17.049"/><path stroke="#8965FD" stroke-linecap="round" stroke-linejoin="round" stroke-width="2.504" d="M161.871 241.615a6.033 6.033 0 0 0-5.795-5.429l-9.684-.342"/><path stroke="#8965FD" stroke-linecap="round" stroke-linejoin="round" stroke-width="2.504" d="M181.806 241.616a5.538 5.538 0 0 0-5.541-5.542h-.36l-2.23-18.329 4.768-9.595a30.95 30.95 0 0 0 .908-25.552l-3.452-8.392.726-1.452a10.51 10.51 0 0 0 1.11-4.703v-1.977l.938-1.782a6.137 6.137 0 0 0-.065-5.848l-4.939-8.893-3.146 9.967-10.227 6.031-9.182-4.196 1.027 5.842a6.143 6.143 0 0 0 5.323 5.034l1.505.177a10.499 10.499 0 0 0 6.574 4.597l.466.106.69 3.152-10.079 10.728-2.691 1.316a28.92 28.92 0 0 0-14.588 16.482l-5.205 15.001a19.316 19.316 0 0 0-.029 12.57l1.109 3.245M167.379 217.227l6.291 24.389M135.22 239.61s-11.903 6.202-28.821-3.535c-10.894-6.267-18.755-18.848-18.755-18.848"/><path stroke="#8965FD" stroke-linecap="round" stroke-linejoin="round" stroke-width="2.504" d="m159.244 202.471-.938 3.747a32.073 32.073 0 0 0-.437 13.585l4.001 21.816"/><path stroke="#8965FD" stroke-width="1.5" d="M434.168 47.75h148.637c6.305 0 11.418 5.112 11.418 11.418v69.311c0 6.305-5.113 11.417-11.418 11.417H442.539a21.03 21.03 0 0 0-19.789 13.916V59.167c0-6.306 5.112-11.417 11.418-11.417Z"/><path fill="#8965FD" d="m445.155 72.468 4.064-5.52h1.552v11.2h-1.744v-8.224l-3.408 4.592h-.928l-3.408-4.592v8.224h-1.744v-11.2h1.552l4.064 5.52Zm8.4 5.68v-11.2h7.056v1.616h-5.968l.656-.608v9.184l-.656-.624h6.176v1.632h-7.264Zm1.536-4.896v-1.568h5.104v1.568h-5.104Zm12.815 5.088c-1.099 0-2.069-.25-2.912-.752a5.23 5.23 0 0 1-1.968-2.064c-.469-.885-.704-1.877-.704-2.976 0-1.098.229-2.085.688-2.96a5.241 5.241 0 0 1 1.952-2.08c.843-.5 1.803-.752 2.88-.752.949 0 1.819.208 2.608.624.789.406 1.483.992 2.08 1.76l-1.248 1.088a4.179 4.179 0 0 0-1.52-1.312 4.003 4.003 0 0 0-1.92-.48c-.736 0-1.392.182-1.968.544a3.656 3.656 0 0 0-1.328 1.456c-.309.62-.464 1.323-.464 2.112 0 .79.155 1.5.464 2.128.32.62.768 1.104 1.344 1.456.576.352 1.248.528 2.016.528.747 0 1.435-.165 2.064-.496a4.52 4.52 0 0 0 1.6-1.376l1.248 1.056c-.608.822-1.328 1.446-2.16 1.872-.832.416-1.749.624-2.752.624Zm8.911-.192V67.604h1.744v10.544h-1.744Zm-3.472-9.536v-1.664h8.688v1.664h-8.688Zm14.768 9.728c-1.109 0-2.101-.245-2.976-.736a5.369 5.369 0 0 1-2.048-2.064c-.49-.885-.736-1.882-.736-2.992 0-1.109.246-2.1.736-2.976a5.229 5.229 0 0 1 2.048-2.064c.886-.5 1.878-.752 2.976-.752 1.099 0 2.086.251 2.96.752a5.293 5.293 0 0 1 2.064 2.08c.502.875.752 1.862.752 2.96 0 1.1-.25 2.091-.752 2.976a5.322 5.322 0 0 1-2.064 2.064c-.874.502-1.861.752-2.96.752Zm0-1.68c.768 0 1.456-.176 2.064-.528a3.849 3.849 0 0 0 1.424-1.472c.342-.618.512-1.322.512-2.112 0-.789-.17-1.493-.512-2.112a3.735 3.735 0 0 0-1.424-1.456c-.608-.362-1.296-.544-2.064-.544s-1.456.182-2.064.544a3.742 3.742 0 0 0-1.424 1.456c-.341.62-.512 1.323-.512 2.112 0 .79.171 1.494.512 2.112.342.62.816 1.11 1.424 1.472.608.352 1.296.528 2.064.528Zm6.949 3.472c.362-.384.608-.746.736-1.088.138-.33.208-.74.208-1.232h.848a.908.908 0 0 1-.352.368.898.898 0 0 1-.48.128c-.31 0-.571-.106-.784-.32a1.083 1.083 0 0 1-.32-.8c0-.298.101-.549.304-.752.213-.213.48-.32.8-.32.373 0 .666.144.88.432.213.278.32.662.32 1.152 0 .566-.139 1.115-.416 1.648-.267.534-.64.998-1.12 1.392l-.624-.608Zm8.087-1.984v-11.2h6.752v1.664h-5.776l.768-.768v10.304h-1.744Zm7.01-1.328c.352-.202.635-.42.848-.656.214-.245.384-.586.512-1.024.128-.448.219-1.05.272-1.808l.464-6.384h7.312v10.048h-1.744v-9.152l.752.736h-5.44l.784-.72-.384 5.616c-.074.982-.234 1.782-.48 2.4-.245.608-.592 1.088-1.04 1.44l-1.856-.496Zm-.816 3.904v-4.24h2.16l.208.048h6.688l.368-.048h2.432v4.24h-1.664V77.38l.768.768h-9.92l.624-.768v3.344h-1.664Zm13.696-2.576v-11.2h7.056v1.616h-5.968l.656-.608v9.184l-.656-.624h6.176v1.632h-7.264Zm1.536-4.896v-1.568h5.104v1.568h-5.104Zm-78.956 24.896v-4.736l.032-.416v-5.072l.624.656h-3.296c-.682 0-1.216.182-1.6.544-.384.352-.576.838-.576 1.456 0 .62.192 1.11.576 1.472.384.352.918.528 1.6.528h2.848v1.584h-2.912c-.725 0-1.381-.154-1.968-.464a3.713 3.713 0 0 1-1.392-1.296 3.561 3.561 0 0 1-.496-1.856c0-.682.166-1.296.496-1.84.342-.544.806-.97 1.392-1.28a4.044 4.044 0 0 1 1.968-.48h4.448v11.2h-1.744Zm-6.864 0 2.8-4.496 1.808.272-2.592 4.224h-2.016Zm18.885-3.488c-1.322 0-2.352-.373-3.088-1.12-.736-.757-1.104-1.808-1.104-3.152v-3.44h1.744v3.264c0 .928.208 1.622.624 2.08.416.46 1.035.688 1.856.688.598 0 1.179-.08 1.744-.24a6.038 6.038 0 0 0 1.584-.688l.08 1.712a7.787 7.787 0 0 1-1.696.672 7.042 7.042 0 0 1-1.744.224Zm2.704 3.488v-11.2h1.744v11.2h-1.744Zm6.22.192c-.64 0-1.206-.106-1.696-.32l.496-1.568c.362.14.714.208 1.056.208.362 0 .666-.085.912-.256.245-.17.464-.453.656-.848l.32-.672.336-.672 2.08-4.528 1.264-2.736h1.904l-4.416 9.408c-.331.694-.726 1.2-1.184 1.52-.459.31-1.035.464-1.728.464Zm1.616-2.752-4.384-8.64h1.968l1.36 2.736 2.048 4.048-.992 1.856Zm7.344 2.56v-11.2h4.576c.651 0 1.227.128 1.728.384.501.256.891.62 1.168 1.088.277.47.416.998.416 1.584 0 .598-.139 1.12-.416 1.568-.277.448-.688.811-1.232 1.088l-.016-.544a2.89 2.89 0 0 1 1.472 1.104c.373.523.56 1.126.56 1.808a3.08 3.08 0 0 1-.432 1.616c-.288.47-.699.838-1.232 1.104-.523.267-1.12.4-1.792.4h-4.8Zm1.728-.976-.64-.624h3.568c.565 0 1.013-.149 1.344-.448.341-.298.512-.704.512-1.216s-.171-.917-.512-1.216c-.331-.298-.779-.448-1.344-.448h-3.28v-1.536h3.12c.331 0 .619-.064.864-.192.256-.128.453-.309.592-.544.139-.245.208-.522.208-.832 0-.469-.155-.848-.464-1.136-.299-.288-.704-.432-1.216-.432h-3.392l.64-.624v9.248Zm13.56 1.168c-1.098 0-2.069-.25-2.912-.752a5.244 5.244 0 0 1-1.968-2.064c-.469-.885-.704-1.877-.704-2.976 0-1.098.23-2.085.688-2.96a5.248 5.248 0 0 1 1.952-2.08c.843-.5 1.803-.752 2.88-.752.95 0 1.819.208 2.608.624.79.406 1.483.992 2.08 1.76l-1.248 1.088a4.179 4.179 0 0 0-1.52-1.312 4.003 4.003 0 0 0-1.92-.48c-.736 0-1.392.182-1.968.544a3.656 3.656 0 0 0-1.328 1.456c-.309.62-.464 1.323-.464 2.112 0 .79.155 1.5.464 2.128.32.62.768 1.104 1.344 1.456.576.352 1.248.528 2.016.528.747 0 1.435-.165 2.064-.496a4.51 4.51 0 0 0 1.6-1.376l1.248 1.056c-.608.822-1.328 1.446-2.16 1.872-.832.416-1.749.624-2.752.624Zm8.911-.192V87.604h1.744v10.544h-1.744Zm-3.472-9.536v-1.664h8.688v1.664h-8.688Zm10.507 9.536v-11.2h4.576c.651 0 1.227.128 1.728.384.502.256.891.62 1.168 1.088.278.47.416.998.416 1.584 0 .598-.138 1.12-.416 1.568-.277.448-.688.811-1.232 1.088l-.016-.544c.619.214 1.11.582 1.472 1.104.374.523.56 1.126.56 1.808a3.08 3.08 0 0 1-.432 1.616c-.288.47-.698.838-1.232 1.104-.522.267-1.12.4-1.792.4h-4.8Zm1.728-.976-.64-.624h3.568c.566 0 1.014-.149 1.344-.448.342-.298.512-.704.512-1.216s-.17-.917-.512-1.216c-.33-.298-.778-.448-1.344-.448h-3.28v-1.536h3.12c.331 0 .619-.064.864-.192a1.39 1.39 0 0 0 .592-.544c.139-.245.208-.522.208-.832 0-.469-.154-.848-.464-1.136-.298-.288-.704-.432-1.216-.432h-3.392l.64-.624v9.248Zm9.984 1.168c-.64 0-1.205-.106-1.696-.32l.496-1.568a2.95 2.95 0 0 0 1.056.208c.363 0 .667-.085.912-.256.245-.17.464-.453.656-.848l.32-.672.336-.672 2.08-4.528 1.264-2.736h1.904l-4.416 9.408c-.331.694-.725 1.2-1.184 1.52-.459.31-1.035.464-1.728.464Zm1.616-2.752-4.384-8.64h1.968l1.36 2.736 2.048 4.048-.992 1.856Zm16.608 2.752c-1.088 0-2.064-.245-2.928-.736a5.435 5.435 0 0 1-2.016-2.064c-.48-.885-.72-1.882-.72-2.992 0-1.109.24-2.1.72-2.976a5.255 5.255 0 0 1 2.032-2.064c.864-.5 1.835-.752 2.912-.752 1.088 0 2.064.251 2.928.752a5.253 5.253 0 0 1 2.016 2.08c.491.875.736 1.862.736 2.96 0 1.1-.245 2.091-.736 2.976a5.281 5.281 0 0 1-2.016 2.064c-.864.502-1.84.752-2.928.752Zm-9.264-.192v-11.2h1.744v11.2h-1.744Zm1.472-4.88v-1.664h3.36v1.664h-3.36Zm7.776 3.392c.757 0 1.435-.176 2.032-.528a3.775 3.775 0 0 0 1.392-1.472c.331-.618.496-1.322.496-2.112 0-.789-.165-1.493-.496-2.112a3.663 3.663 0 0 0-1.392-1.456c-.597-.362-1.275-.544-2.032-.544-.747 0-1.419.182-2.016.544a3.663 3.663 0 0 0-1.392 1.456c-.331.62-.496 1.323-.496 2.112 0 .79.165 1.494.496 2.112.331.62.795 1.11 1.392 1.472.597.352 1.269.528 2.016.528Zm-92.163 21.68c-1.098 0-2.069-.25-2.912-.752a5.24 5.24 0 0 1-1.968-2.064c-.469-.885-.704-1.877-.704-2.976 0-1.098.23-2.085.688-2.96a5.254 5.254 0 0 1 1.952-2.08c.843-.501 1.803-.752 2.88-.752.95 0 1.819.208 2.608.624.79.406 1.483.992 2.08 1.76l-1.248 1.088a4.187 4.187 0 0 0-1.52-1.312 4.003 4.003 0 0 0-1.92-.48c-.736 0-1.392.182-1.968.544a3.66 3.66 0 0 0-1.328 1.456c-.309.619-.464 1.323-.464 2.112 0 .79.155 1.499.464 2.128.32.619.768 1.104 1.344 1.456.576.352 1.248.528 2.016.528.747 0 1.435-.165 2.064-.496a4.502 4.502 0 0 0 1.6-1.376l1.248 1.056c-.608.822-1.328 1.446-2.16 1.872-.832.416-1.749.624-2.752.624Zm6.681-.192v-11.2h7.056v1.616h-5.968l.656-.608v9.184l-.656-.624h6.176v1.632h-7.264Zm1.536-4.896v-1.568h5.104v1.568h-5.104Zm7.948 4.896v-11.2h1.744v10.224l-.656-.656h3.04c.693 0 1.237-.165 1.632-.496.405-.341.608-.805.608-1.392 0-.586-.203-1.05-.608-1.392-.395-.341-.939-.512-1.632-.512h-3.376v-1.616h3.488c.768 0 1.445.15 2.032.448.587.288 1.04.694 1.36 1.216.32.523.48 1.142.48 1.856 0 .704-.16 1.323-.48 1.856-.32.523-.773.934-1.36 1.232-.587.288-1.264.432-2.032.432h-4.24Zm.864-9.568v-1.632h6.48v1.632h-6.48Zm15.091 9.568v-4.736l.032-.416v-5.072l.624.656h-3.296c-.683 0-1.216.182-1.6.544-.384.352-.576.838-.576 1.456 0 .619.192 1.11.576 1.472.384.352.917.528 1.6.528h2.848v1.584h-2.912c-.725 0-1.381-.154-1.968-.464a3.698 3.698 0 0 1-1.392-1.296 3.55 3.55 0 0 1-.496-1.856c0-.682.165-1.296.496-1.84.341-.544.805-.97 1.392-1.28a4.044 4.044 0 0 1 1.968-.48h4.448v11.2h-1.744Zm-6.864 0 2.8-4.496 1.808.272-2.592 4.224h-2.016Zm21.765 0-4.304-5.664 4.16-5.536h2.176l-4.608 6.032v-1.056l4.768 6.224h-2.192Zm-6.512 0v-11.2h1.744v11.2h-1.744Zm1.184-4.832v-1.632h2.176v1.632h-2.176Zm8.009 4.832 4.384-11.2h2.08l4.336 11.2h-1.792l-1.12-2.896-.176-.512-2.448-6.4h.32l-2.544 6.56-.128.384-1.104 2.864h-1.808Zm2.272-2.192.592-1.568h5.392l.592 1.568h-6.576Zm16.75 2.192-4.304-5.664 4.16-5.536h2.176l-4.608 6.032v-1.056l4.768 6.224h-2.192Zm-6.512 0v-11.2h1.744v11.2h-1.744Zm1.184-4.832v-1.632h2.176v1.632h-2.176Zm12.592 3.504c.352-.202.635-.421.848-.656.213-.245.384-.586.512-1.024.128-.448.219-1.05.272-1.808l.464-6.384h7.312v10.048h-1.744v-9.152l.752.736h-5.44l.784-.72-.384 5.616c-.075.982-.235 1.782-.48 2.4-.245.608-.592 1.088-1.04 1.44l-1.856-.496Zm-.816 3.904v-4.24h2.16l.208.048h6.688l.368-.048h2.432v4.24h-1.664v-3.344l.768.768h-9.92l.624-.768v3.344h-1.664Zm18.333-2.384c-1.11 0-2.102-.245-2.976-.736a5.351 5.351 0 0 1-2.048-2.064c-.491-.885-.736-1.882-.736-2.992 0-1.109.245-2.101.736-2.976a5.22 5.22 0 0 1 2.048-2.064c.885-.501 1.877-.752 2.976-.752 1.098 0 2.085.251 2.96.752a5.312 5.312 0 0 1 2.064 2.08c.501.875.752 1.862.752 2.96 0 1.099-.251 2.091-.752 2.976a5.332 5.332 0 0 1-2.064 2.064c-.875.502-1.862.752-2.96.752Zm0-1.68c.768 0 1.456-.176 2.064-.528a3.85 3.85 0 0 0 1.424-1.472c.341-.618.512-1.322.512-2.112 0-.789-.171-1.493-.512-2.112a3.746 3.746 0 0 0-1.424-1.456c-.608-.362-1.296-.544-2.064-.544s-1.456.182-2.064.544a3.74 3.74 0 0 0-1.424 1.456c-.342.619-.512 1.323-.512 2.112 0 .79.17 1.494.512 2.112.341.619.816 1.11 1.424 1.472.608.352 1.296.528 2.064.528Zm13.557-4.192 4.064-5.52h1.552v11.2h-1.744v-8.224l-3.408 4.592h-.928l-3.408-4.592v8.224h-1.744v-11.2h1.552l4.064 5.52Zm7.328 5.68 4.384-11.2h2.08l4.336 11.2h-1.792l-1.12-2.896-.176-.512-2.448-6.4h.32l-2.544 6.56-.128.384-1.104 2.864h-1.808Zm2.272-2.192.592-1.568h5.392l.592 1.568h-6.576ZM722.369 109.526h12.635l6.638-8.215-9.473-7.803c.665-9.096 5.756-17.235 22.652-17.246 30.065-.011 33.357 35.362 33.357 35.362s9.528-.685 22.522 5.433c13.811 6.51 18.662 17.497 18.662 17.497s31.755.271 32.78.358c11.239.967 19.403-9.454 19.839-10.193-4.131-2.478-6.9-6.977-6.9-12.128 0-7.824 6.366-14.16 14.204-14.16 7.838 0 14.204 6.346 14.204 14.16 0 7.813-6.366 14.16-14.204 14.16-1.275 0-2.518-.185-3.695-.5-.044.109-.088.228-.142.337-.207.369-2.78 5.988-14.324 11.574 5.429 3.988 9.876 10.943 8.47 19.017l-2.245 25.506 13.484 20.321a9.798 9.798 0 0 1 2.78-.402c5.461 0 9.887 4.412 9.887 9.857 0 4.586-3.15 8.433-7.413 9.53v18.486h-12.35c1.286-4.825 3.586-5.488 6.159-6.412l-.208-12.573c-3.499-1.522-5.951-4.988-5.951-9.042a9.77 9.77 0 0 1 1.973-5.89l-14.749-15.355-4.535 2.053 6.66 11.302c4.775.696 8.438 4.782 8.438 9.737 0 4.576-3.129 8.412-7.369 9.52l-4.84 16.649h-13.594c.698-4.108 6.65-6.705 9.048-6.108l2.431-11.269c-3.227-1.619-5.44-4.945-5.44-8.792a9.848 9.848 0 0 1 4.339-8.161l-6.672-10.422s-12.241-2.206-19.065-11.856c-4.786-6.77-1.527-18.941-1.527-18.941l-9.473-.413s-1.351 15.062-16.111 25.049c-6.912 4.673-15.709 8.4-25.073 9.476v15.877c2.9 1.206 4.939 4.064 4.939 7.39 0 3.325-2.039 6.183-4.939 7.39v10.78h-14.759c2.572-4.043 4.622-6.977 7.946-7.031l.589-3.76c-2.878-1.217-4.894-4.065-4.894-7.368 0-2.837 1.482-5.314 3.706-6.738l-1.385-16.344c-8.524-.674-17.158-3.88-24.974-10.889-26.522-23.778-14.411-63.639-14.411-63.639s-9.571-.967-13.582-5.336c-6.225-6.781-4.045-9.856-4.045-9.856v.021Z"/><path fill="#8965FD" d="m619.759 190.767-3.025-2.552a10.016 10.016 0 0 0-4.608-2.179c-2.205-.411-5.184-.59-7.253.782-3.671 2.429-2.798 12.501-4.363 16.052-2.197 4.988-4.356 5.667-9.294 6.603-6.412 1.218-31.466.455-38.459.321-1.778-.032-3.555.275-5.184.987-1.493.654-3.154 1.699-4.266 3.295-5.081 7.167-11.609 9.398-16.218 10.001-5.183.679-8.48.038-10.425-.705a21.363 21.363 0 0 1-2.528-1.526.724.724 0 0 0-.943.096.708.708 0 0 0-.026.942c.064.084.918 1.058 3.044 1.859 2.663 1.315 5.468 1.962 8.493 1.962 2.657 0 5.482-.5 8.539-1.5a33.786 33.786 0 0 0 8.028-3.866c-.226 2.815-.02 5.129-.02 5.129l-4.893 2.833.737 8.796a3.667 3.667 0 0 0 3.659 3.34h5.184c-.828-1.981-2.146-3.346-4.486-3.436l1.021-7.283 16.314-5.866 33.728 7.379.911 5.417c.369 2.186 2.275 3.789 4.512 3.789h4.692c-.898-3.096-2.559-3.282-4.285-3.237l-.207-5.68 5.307-1.507c3.477-1.526 6.418-4.096 8.247-7.404 1.532-2.77 2.554-5.86 2.896-8.789l1.7-14.642 5.481.371c1.823-.038 5.372-1.333 6.606-2.775 1.228-1.443 1.784-3.257 1.784-3.257l-10.4-3.738v-.012Z" opacity=".3"/><path stroke="#8965FD" stroke-linecap="round" stroke-linejoin="round" stroke-width="2.5" d="M991.825 238.915v-1.013a6.354 6.354 0 0 0-1.912-4.55l-1.7-1.662-3.857-16.138 3.375-23.368M971.597 197.963l7.225 14.937 2.912 14.944a15.853 15.853 0 0 0 2.925 6.538l3.444 4.537"/><path stroke="#8965FD" stroke-linecap="round" stroke-linejoin="round" stroke-width="2.5" d="M984.356 238.908a3.686 3.686 0 0 0-3.687-3.688h-6.432s6.288-4.056 6.875-10.525M985.17 209.912s2.194-3.212 4.45-6.581c3.125-4.662 3.875-12.619 2.531-18.069-.831-3.362-3.912-6.581-7.293-7.343l-1.95-.444-1.207-6.025 2.625-4.231a6.914 6.914 0 0 0 .682-5.831l-.663-1.982-6.506 1.688-.413-.219a4.694 4.694 0 0 0-5.143.456l-3.357 2.657-5.537-6.988.587 7.975a8.747 8.747 0 0 0 2.963 5.944l.062.056v2.425c0 1.975.875 3.85 2.388 5.119l3.637 3.056-1.443 6.744c-2.944 3.05-15.507 8.625-17.863 24.012-.325 2.106-.35 4.256-.131 6.375l2.094 20.2"/><path stroke="#8965FD" stroke-linecap="round" stroke-linejoin="round" stroke-width="2.5" d="m992.918 190.37 9.042-6.887a12.136 12.136 0 0 1 9.16-2.35l4.55.681-.77 2.444a3.287 3.287 0 0 1-3.84 2.212l-4.3-.944-14.605 12.432M921 224.695l1.875 4.732a15.01 15.01 0 0 0 13.956 9.481h18.856M1095.09 225.586l-15.4 5.04-3.58 6.507"/><path stroke="#8965FD" stroke-linecap="round" stroke-linejoin="round" stroke-width="2.5" d="m1027 239.201 1.19-6.809 39.07-2.363v-18.356l3.55-8.287v-21.021l-10.99-8.664a12.285 12.285 0 0 1-4.67-9.074l-.32-6.289 12.14 4.483 6.22-3.259 11.85 4.434 10.65-7.996-6.81 17.168 6.81 23.094 12.43 4.737h21.33c13.17 0 24.62 9.051 27.66 21.858l3.4 14.248h15.69M1085.02 164.037l-4.75 8.578"/><path stroke="#8965FD" stroke-linecap="round" stroke-linejoin="round" stroke-width="2.5" d="m1135.32 215.236-4.14 6.81 7.4 10.359h-13.03c-2.61 0-4.73 2.12-4.73 4.737"/><path stroke="#8965FD" stroke-linejoin="round" stroke-width="1.5" d="M1119.95 61.51c0-5.252-4.26-9.51-9.51-9.51H930.513a9.51 9.51 0 0 0-9.511 9.51v46.934c0 5.252 4.258 9.51 9.511 9.51h172.947c5.05 0 9.8 2.413 12.79 6.494l3.7 5.054V61.511Z"/><path fill="#8965FD" d="M942.025 75.512c-1.323 0-2.352-.373-3.088-1.12-.736-.757-1.104-1.808-1.104-3.152V67.8h1.744v3.264c0 .928.208 1.621.624 2.08.416.459 1.034.688 1.856.688.597 0 1.178-.08 1.744-.24a6.038 6.038 0 0 0 1.584-.688l.08 1.712a7.827 7.827 0 0 1-1.696.672 7.052 7.052 0 0 1-1.744.224ZM944.729 79V67.8h1.744V79h-1.744Zm6.219.192c-.64 0-1.205-.107-1.696-.32l.496-1.568a2.95 2.95 0 0 0 1.056.208c.363 0 .667-.085.912-.256.245-.17.464-.453.656-.848l.32-.672.336-.672 2.08-4.528 1.264-2.736h1.904l-4.416 9.408c-.331.693-.725 1.2-1.184 1.52-.459.31-1.035.464-1.728.464Zm1.616-2.752-4.384-8.64h1.968l1.36 2.736 2.048 4.048-.992 1.856Zm16.608 2.752c-1.088 0-2.064-.245-2.928-.736a5.435 5.435 0 0 1-2.016-2.064c-.48-.885-.72-1.883-.72-2.992 0-1.11.24-2.101.72-2.976a5.255 5.255 0 0 1 2.032-2.064c.864-.501 1.835-.752 2.912-.752 1.088 0 2.064.25 2.928.752a5.253 5.253 0 0 1 2.016 2.08c.491.875.736 1.861.736 2.96s-.245 2.09-.736 2.976a5.281 5.281 0 0 1-2.016 2.064c-.864.501-1.84.752-2.928.752ZM959.908 79V67.8h1.744V79h-1.744Zm1.472-4.88v-1.664h3.36v1.664h-3.36Zm7.776 3.392c.758 0 1.435-.176 2.032-.528a3.761 3.761 0 0 0 1.392-1.472c.331-.619.496-1.323.496-2.112 0-.79-.165-1.493-.496-2.112a3.649 3.649 0 0 0-1.392-1.456c-.597-.363-1.274-.544-2.032-.544a3.81 3.81 0 0 0-2.016.544 3.662 3.662 0 0 0-1.392 1.456c-.33.619-.496 1.323-.496 2.112 0 .79.166 1.493.496 2.112.331.619.795 1.11 1.392 1.472.598.352 1.27.528 2.016.528Zm6.868 3.472c.363-.384.608-.747.736-1.088.139-.33.208-.741.208-1.232h.848a.895.895 0 0 1-.352.368.894.894 0 0 1-.48.128c-.309 0-.57-.107-.784-.32a1.087 1.087 0 0 1-.32-.8c0-.299.102-.55.304-.752.214-.213.48-.32.8-.32.374 0 .667.144.88.432.214.277.32.661.32 1.152 0 .565-.138 1.115-.416 1.648-.266.533-.64.997-1.12 1.392l-.624-.608Zm11.655-1.856a6.535 6.535 0 0 1-2.272-.4 6.325 6.325 0 0 1-1.92-1.168l.992-1.264c.939.779 1.995 1.168 3.168 1.168.779 0 1.366-.144 1.76-.432.406-.299.608-.725.608-1.28 0-.341-.08-.635-.24-.88a1.49 1.49 0 0 0-.704-.56c-.298-.139-.656-.208-1.072-.208h-2.304v-1.616h2.192c.534 0 .96-.144 1.28-.432.331-.288.496-.683.496-1.184 0-.48-.186-.853-.56-1.12-.362-.277-.869-.416-1.52-.416a4.18 4.18 0 0 0-1.536.288c-.49.181-.976.475-1.456.88l-.976-1.264a5.725 5.725 0 0 1 1.824-1.168 5.76 5.76 0 0 1 2.144-.4c.779 0 1.451.123 2.016.368.576.245 1.019.597 1.328 1.056.31.459.464 1.003.464 1.632a3.02 3.02 0 0 1-.464 1.648c-.298.49-.725.875-1.28 1.152l-.016-.56a2.901 2.901 0 0 1 1.552 1.12c.395.544.592 1.157.592 1.84 0 .981-.368 1.76-1.104 2.336-.725.576-1.722.864-2.992.864Zm5.677-1.456c.352-.203.635-.421.848-.656.214-.245.384-.587.512-1.024.128-.448.219-1.05.272-1.808l.464-6.384h7.308v10.048h-1.74v-9.152l.75.736h-5.438l.784-.72-.384 5.616c-.074.981-.234 1.781-.48 2.4-.245.608-.592 1.088-1.04 1.44l-1.856-.496Zm-.816 3.904v-4.24h2.16l.208.048h6.692l.36-.048h2.44v4.24h-1.67v-3.344l.77.768h-9.92l.624-.768v3.344h-1.664Zm13.7-2.576V67.8h7.05v1.616h-5.97l.66-.608v9.184l-.66-.624h6.18V79h-7.26Zm1.53-4.896v-1.568h5.11v1.568h-5.11Zm12.82 5.088c-1.1 0-2.07-.25-2.91-.752a5.194 5.194 0 0 1-1.97-2.064c-.47-.885-.71-1.877-.71-2.976s.23-2.085.69-2.96a5.257 5.257 0 0 1 1.95-2.08c.85-.501 1.81-.752 2.88-.752.95 0 1.82.208 2.61.624.79.405 1.48.992 2.08 1.76l-1.25 1.088a4.122 4.122 0 0 0-1.52-1.312c-.59-.32-1.23-.48-1.92-.48-.73 0-1.39.181-1.96.544-.57.352-1.01.837-1.33 1.456-.31.619-.47 1.323-.47 2.112 0 .79.16 1.499.47 2.128.32.619.77 1.104 1.34 1.456.58.352 1.25.528 2.02.528.74 0 1.43-.165 2.06-.496.64-.33 1.17-.79 1.6-1.376l1.25 1.056c-.61.821-1.33 1.445-2.16 1.872-.83.416-1.75.624-2.75.624Zm6.68-.192V67.8h1.74v4.56l-.01.48v5.184l-.64-.656h3.16c.74 0 1.3-.176 1.68-.528.39-.352.58-.843.58-1.472 0-.63-.19-1.12-.58-1.472-.38-.363-.94-.544-1.68-.544h-3.5V71.72h3.63c.77 0 1.45.155 2.03.464a3.2 3.2 0 0 1 1.36 1.28c.32.544.48 1.179.48 1.904 0 .725-.16 1.36-.48 1.904-.32.544-.77.97-1.36 1.28-.58.299-1.26.448-2.03.448h-4.38Zm14 0V67.8h4.57c.65 0 1.23.128 1.73.384s.89.619 1.17 1.088c.28.47.42.997.42 1.584 0 .597-.14 1.12-.42 1.568-.28.448-.69.81-1.23 1.088l-.02-.544c.62.213 1.11.581 1.47 1.104.38.523.56 1.125.56 1.808a3.06 3.06 0 0 1-.43 1.616c-.29.47-.7.837-1.23 1.104-.52.267-1.12.4-1.79.4h-4.8Zm1.73-.976-.64-.624h3.56c.57 0 1.02-.15 1.35-.448.34-.299.51-.704.51-1.216s-.17-.917-.51-1.216c-.33-.299-.78-.448-1.35-.448h-3.28v-1.536h3.12c.33 0 .62-.064.87-.192s.45-.31.59-.544c.14-.245.21-.523.21-.832 0-.47-.16-.848-.47-1.136-.29-.288-.7-.432-1.21-.432h-3.39l.64-.624v9.248Zm8.71.976V67.8h4.06c.78 0 1.46.16 2.05.48.59.31 1.05.752 1.37 1.328.33.565.5 1.227.5 1.984 0 .757-.17 1.424-.5 2a3.372 3.372 0 0 1-1.37 1.344c-.59.31-1.27.464-2.05.464h-3.31v-1.632h3.18c.72 0 1.28-.192 1.68-.576.42-.395.63-.928.63-1.6s-.21-1.2-.63-1.584c-.4-.384-.96-.576-1.68-.576h-2.85l.64-.656v5.504l.02.48V79h-1.74Zm7.85 0 4.38-11.2h2.08l4.34 11.2h-1.8l-1.12-2.896-.17-.512-2.45-6.4h.32l-2.54 6.56-.13.384-1.11 2.864h-1.8Zm2.27-2.192.59-1.568h5.39l.59 1.568h-6.57Zm12.63-1.296c-1.32 0-2.35-.373-3.09-1.12-.73-.757-1.1-1.808-1.1-3.152V67.8h1.74v3.264c0 .928.21 1.621.63 2.08.41.459 1.03.688 1.85.688.6 0 1.18-.08 1.75-.24a6.1 6.1 0 0 0 1.58-.688l.08 1.712a7.84 7.84 0 0 1-1.69.672c-.59.15-1.17.224-1.75.224Zm2.71 3.488V67.8h1.74V79h-1.74Zm4.52 0V67.8h1.74v10.288l-.7-1.072 6.7-9.216h1.59V79h-1.75V68.696l.71 1.072-6.71 9.232h-1.58Zm24.67-3.616h-9.37V73.96h9.37v1.424ZM937.177 97.576c.65-.181 1.13-.379 1.44-.592a1.77 1.77 0 0 0 .688-.88c.138-.384.234-.933.288-1.648l.48-6.656h7.648V99h-1.728V88.696l.752.768h-5.792l.8-.768-.416 5.872c-.064.96-.24 1.75-.528 2.368a3.393 3.393 0 0 1-1.216 1.424c-.512.341-1.174.581-1.984.72l-.432-1.504Zm15.021 1.616c-.64 0-1.205-.107-1.696-.32l.496-1.568a2.95 2.95 0 0 0 1.056.208c.363 0 .667-.085.912-.256.245-.17.464-.453.656-.848l.32-.672.336-.672 2.08-4.528 1.264-2.736h1.904l-4.416 9.408c-.331.693-.725 1.2-1.184 1.52-.459.31-1.035.464-1.728.464Zm1.616-2.752-4.384-8.64h1.968l1.36 2.736 2.048 4.048-.992 1.856Zm10.836-.928c-1.323 0-2.352-.373-3.088-1.12-.736-.757-1.104-1.808-1.104-3.152V87.8h1.744v3.264c0 .928.208 1.621.624 2.08.416.459 1.034.688 1.856.688.597 0 1.178-.08 1.744-.24a6.038 6.038 0 0 0 1.584-.688l.08 1.712a7.827 7.827 0 0 1-1.696.672 7.052 7.052 0 0 1-1.744.224ZM967.354 99V87.8h1.744V99h-1.744Zm5.371 0v-1.664h14.096V99h-14.096Zm-.848 0V87.8h1.744V99h-1.744Zm7.008-.624V87.8h1.744v10.576h-1.744Zm7.024.624V87.8h1.744V99h-1.744Zm4.531 0V87.8h1.744v10.288l-.704-1.072 6.704-9.216h1.584V99h-1.744V88.696l.704 1.072L992.024 99h-1.584Zm12.11 0V87.8h7.05v1.616h-5.96l.65-.608v9.184l-.65-.624h6.17V99h-7.26Zm1.53-4.896v-1.568h5.11v1.568h-5.11Zm11.59 3.568c.35-.203.63-.421.85-.656.21-.245.38-.587.51-1.024.13-.448.22-1.05.27-1.808l.46-6.384h7.32v10.048h-1.75v-9.152l.75.736h-5.44l.79-.72-.39 5.616c-.07.981-.23 1.781-.48 2.4-.24.608-.59 1.088-1.04 1.44l-1.85-.496Zm-.82 3.904v-4.24h2.16l.21.048h6.69l.37-.048h2.43v4.24h-1.67v-3.344l.77.768h-9.92l.63-.768v3.344h-1.67Zm13.7-2.576V87.8h4.06c.78 0 1.46.16 2.05.48.6.31 1.06.752 1.38 1.328.33.565.49 1.227.49 1.984 0 .757-.16 1.424-.49 2a3.337 3.337 0 0 1-1.38 1.344c-.59.31-1.27.464-2.05.464h-3.31v-1.632h3.18c.72 0 1.28-.192 1.68-.576.42-.395.63-.928.63-1.6s-.21-1.2-.63-1.584c-.4-.384-.96-.576-1.68-.576h-2.84l.64-.656v5.504l.01.48V99h-1.74Zm10.96.192c-.64 0-1.2-.107-1.7-.32l.5-1.568c.36.139.72.208 1.06.208.36 0 .66-.085.91-.256.24-.17.46-.453.65-.848l.32-.672.34-.672 2.08-4.528 1.26-2.736h1.91l-4.42 9.408c-.33.693-.72 1.2-1.18 1.52-.46.31-1.04.464-1.73.464Zm1.62-2.752-4.39-8.64h1.97l1.36 2.736 2.05 4.048-.99 1.856Zm10.11 2.688c-.79 0-1.54-.133-2.27-.4a6.423 6.423 0 0 1-1.92-1.168l.99-1.264c.94.779 2 1.168 3.17 1.168.78 0 1.37-.144 1.76-.432.41-.299.61-.725.61-1.28 0-.341-.08-.635-.24-.88-.16-.245-.4-.432-.71-.56-.29-.139-.65-.208-1.07-.208h-2.3v-1.616h2.19c.53 0 .96-.144 1.28-.432.33-.288.5-.683.5-1.184 0-.48-.19-.853-.56-1.12-.37-.277-.87-.416-1.52-.416-.54 0-1.05.096-1.54.288-.49.181-.98.475-1.46.88l-.97-1.264a5.686 5.686 0 0 1 1.82-1.168c.67-.267 1.39-.4 2.15-.4.77 0 1.45.123 2.01.368.58.245 1.02.597 1.33 1.056.31.459.46 1.003.46 1.632 0 .608-.15 1.157-.46 1.648-.3.49-.73.875-1.28 1.152l-.02-.56c.65.203 1.17.576 1.56 1.12.39.544.59 1.157.59 1.84 0 .981-.37 1.76-1.11 2.336-.72.576-1.72.864-2.99.864Zm6.26-.128V87.8h1.75v4.56l-.02.48v5.184l-.64-.656h3.17c.73 0 1.29-.176 1.68-.528.38-.352.57-.843.57-1.472 0-.63-.19-1.12-.57-1.472-.39-.363-.95-.544-1.68-.544h-3.51V91.72h3.64c.76 0 1.44.155 2.03.464.58.299 1.04.725 1.36 1.28.32.544.48 1.179.48 1.904 0 .725-.16 1.36-.48 1.904-.32.544-.78.97-1.36 1.28-.59.299-1.27.448-2.03.448h-4.39Zm15.86 0v-4.736l.04-.416v-5.072l.62.656h-3.3c-.68 0-1.21.181-1.6.544-.38.352-.57.837-.57 1.456s.19 1.11.57 1.472c.39.352.92.528 1.6.528h2.85v1.584h-2.91c-.73 0-1.38-.155-1.97-.464a3.663 3.663 0 0 1-1.39-1.296 3.565 3.565 0 0 1-.5-1.856c0-.683.17-1.296.5-1.84.34-.544.8-.97 1.39-1.28.59-.32 1.24-.48 1.97-.48h4.45V99h-1.75Zm-6.86 0 2.8-4.496 1.81.272-2.59 4.224h-2.02Zm11.46-2.72-.15-4.416-.05-4.064h1.75l-.05 4.064-.14 4.416h-1.36Zm.68 2.88c-.32 0-.58-.101-.8-.304a1.045 1.045 0 0 1-.32-.784c0-.31.11-.565.32-.768.22-.203.48-.304.8-.304.31 0 .58.101.79.304.21.203.32.459.32.768 0 .32-.11.581-.32.784-.21.203-.48.304-.79.304Z"/></svg>