<svg xmlns="http://www.w3.org/2000/svg" fill="none" viewBox="0 0 579 423"><path stroke="#fff" stroke-width="1.5" d="M148.168.75H360.83c6.306 0 11.418 5.111 11.418 11.417l.002 46.175c0 6.306-5.112 11.418-11.418 11.418H150.817a16.46 16.46 0 0 0-14.065 7.915l-.002-65.507c0-6.306 5.112-11.418 11.418-11.418Z"/><path fill="#fff" d="m163.192 31 4.384-6.416.4-.368 1.536-2.384 1.36-2.032h2.064l-3.984 6-.352.304-1.984 2.96L165.288 31zm7.968 0-1.312-1.936-2.048-3.056-.336-.384-3.936-5.824h2.08L167 21.832l1.728 2.64.288.288L173.24 31zm8.15.192q-1.665 0-2.976-.736a5.36 5.36 0 0 1-2.048-2.064q-.736-1.328-.736-2.992t.736-2.976a5.2 5.2 0 0 1 2.048-2.064q1.327-.752 2.976-.752 1.647 0 2.96.752a5.3 5.3 0 0 1 2.064 2.08q.752 1.312.752 2.96t-.752 2.976a5.34 5.34 0 0 1-2.064 2.064q-1.313.752-2.96.752m0-1.68q1.152 0 2.064-.528a3.86 3.86 0 0 0 1.424-1.472q.512-.928.512-2.112t-.512-2.112a3.74 3.74 0 0 0-1.424-1.456q-.912-.544-2.064-.544t-2.064.544a3.74 3.74 0 0 0-1.424 1.456q-.512.929-.512 2.112t.512 2.112a3.85 3.85 0 0 0 1.424 1.472q.912.528 2.064.528m10.775 1.616a6.5 6.5 0 0 1-2.272-.4 6.3 6.3 0 0 1-1.92-1.168l.992-1.264q1.409 1.168 3.168 1.168 1.168 0 1.76-.432.608-.448.608-1.28 0-.512-.24-.88a1.5 1.5 0 0 0-.704-.56q-.448-.208-1.072-.208h-2.304v-1.616h2.192q.8 0 1.28-.432.496-.432.496-1.184 0-.72-.56-1.12-.544-.416-1.52-.416a4.2 4.2 0 0 0-1.536.288q-.736.272-1.456.88l-.976-1.264a5.7 5.7 0 0 1 1.824-1.168 5.8 5.8 0 0 1 2.144-.4q1.168 0 2.016.368.864.367 1.328 1.056.464.688.464 1.632 0 .912-.464 1.648-.448.736-1.28 1.152l-.016-.56a2.9 2.9 0 0 1 1.552 1.12q.592.816.592 1.84 0 1.472-1.104 2.336-1.088.864-2.992.864M202.222 31v-4.736l.032-.416v-5.072l.624.656h-3.296q-1.024 0-1.6.544-.576.528-.576 1.456 0 .929.576 1.472.576.528 1.6.528h2.848v1.584h-2.912q-1.088 0-1.968-.464a3.7 3.7 0 0 1-1.392-1.296 3.55 3.55 0 0 1-.496-1.856q0-1.024.496-1.84.512-.816 1.392-1.28a4.04 4.04 0 0 1 1.968-.48h4.448V31zm-6.864 0 2.8-4.496 1.808.272L197.374 31zm11.393 0V19.8h1.744v10.288l-.704-1.072 6.704-9.216h1.584V31h-1.744V20.696l.704 1.072L208.335 31zm19.438 0V19.8h1.744V31zm-7.328 0V19.8h1.744V31zm1.472-4.88v-1.664h6.128v1.664zm10.003 6.864q.544-.576.736-1.088.208-.495.208-1.232h.848a.9.9 0 0 1-.352.368.9.9 0 0 1-.48.128q-.464 0-.784-.32a1.09 1.09 0 0 1-.32-.8q0-.449.304-.752.32-.32.8-.32.56 0 .88.432.32.416.32 1.152 0 .848-.416 1.648-.4.8-1.12 1.392zm13.703-7.664 4.064-5.52h1.552V31h-1.744v-8.224l-3.408 4.592h-.928l-3.408-4.592V31h-1.744V19.8h1.552zM259.767 31V19.8h1.744V31zm-7.328 0V19.8h1.744V31zm1.472-4.88v-1.664h6.128v1.664zM264.298 31V19.8h7.056v1.616h-5.968l.656-.608v9.184l-.656-.624h6.176V31zm1.536-4.896v-1.568h5.104v1.568zm16.565 5.088q-1.647 0-2.912-.752a5.24 5.24 0 0 1-1.968-2.064q-.704-1.328-.704-2.976t.688-2.96a5.25 5.25 0 0 1 1.952-2.08q1.264-.752 2.88-.752 1.425 0 2.608.624 1.185.608 2.08 1.76l-1.248 1.088a4.2 4.2 0 0 0-1.52-1.312 4 4 0 0 0-1.92-.48q-1.104 0-1.968.544a3.66 3.66 0 0 0-1.328 1.456q-.464.929-.464 2.112 0 1.185.464 2.128.48.928 1.344 1.456t2.016.528q1.12 0 2.064-.496.96-.496 1.6-1.376l1.248 1.056q-.912 1.232-2.16 1.872-1.248.624-2.752.624M289.08 31V19.8h4.064q1.167 0 2.048.48.896.464 1.376 1.328.495.848.496 1.984 0 1.136-.496 2a3.34 3.34 0 0 1-1.376 1.344q-.88.464-2.048.464h-3.312v-1.632h3.184q1.071 0 1.68-.576.624-.592.624-1.6t-.624-1.584q-.609-.576-1.68-.576h-2.848l.64-.656v5.504l.016.48V31zm14.886.192q-1.663 0-2.976-.736a5.36 5.36 0 0 1-2.048-2.064q-.736-1.328-.736-2.992t.736-2.976a5.2 5.2 0 0 1 2.048-2.064q1.327-.752 2.976-.752 1.648 0 2.96.752a5.3 5.3 0 0 1 2.064 2.08q.752 1.312.752 2.96t-.752 2.976a5.34 5.34 0 0 1-2.064 2.064q-1.312.752-2.96.752m0-1.68q1.152 0 2.064-.528a3.85 3.85 0 0 0 1.424-1.472q.512-.928.512-2.112t-.512-2.112a3.74 3.74 0 0 0-1.424-1.456q-.912-.544-2.064-.544t-2.064.544a3.74 3.74 0 0 0-1.424 1.456q-.512.929-.512 2.112t.512 2.112a3.85 3.85 0 0 0 1.424 1.472q.912.528 2.064.528m11.449-2q-1.984 0-3.088-1.12-1.104-1.136-1.104-3.152V19.8h1.744v3.264q0 1.392.624 2.08.623.688 1.856.688.895 0 1.744-.24a6 6 0 0 0 1.584-.688l.08 1.712a7.8 7.8 0 0 1-1.696.672 7 7 0 0 1-1.744.224M318.119 31V19.8h1.744V31zm11.851 0V19.8h1.744V31zm-7.328 0V19.8h1.744V31zm1.472-4.88v-1.664h6.128v1.664zm15.555 5.072q-1.663 0-2.976-.736a5.36 5.36 0 0 1-2.048-2.064q-.736-1.328-.736-2.992t.736-2.976a5.2 5.2 0 0 1 2.048-2.064q1.327-.752 2.976-.752 1.648 0 2.96.752a5.3 5.3 0 0 1 2.064 2.08q.752 1.312.752 2.96t-.752 2.976a5.34 5.34 0 0 1-2.064 2.064q-1.312.752-2.96.752m0-1.68q1.152 0 2.064-.528a3.85 3.85 0 0 0 1.424-1.472q.512-.928.512-2.112t-.512-2.112a3.74 3.74 0 0 0-1.424-1.456q-.912-.544-2.064-.544t-2.064.544a3.74 3.74 0 0 0-1.424 1.456q-.512.929-.512 2.112t.512 2.112a3.85 3.85 0 0 0 1.424 1.472q.912.528 2.064.528M171.72 51V39.8h1.744V51zm-7.328 0V39.8h1.744V51zm1.472-4.88v-1.664h6.128v1.664zm12.083 5.072q-.96 0-1.696-.32l.496-1.568a3 3 0 0 0 1.056.208q.544 0 .912-.256.369-.255.656-.848l.32-.672.336-.672 2.08-4.528 1.264-2.736h1.904l-4.416 9.408q-.495 1.04-1.184 1.52-.687.464-1.728.464m1.616-2.752-4.384-8.64h1.968l1.36 2.736 2.048 4.048zm6.129 2.56 4.16-5.696-4-5.504h2.128l3.424 4.736h1.088V39.8h1.696v4.736h1.088L198.7 39.8h2.128l-4 5.504 4.16 5.696h-2.144l-3.52-4.832h-1.136V51h-1.696v-4.832h-1.136L187.836 51zm24.184 0V39.8h1.744V51zm-7.328 0V39.8h1.744V51zm1.472-4.88v-1.664h6.128v1.664zm15.555 5.072q-1.663 0-2.976-.736a5.37 5.37 0 0 1-2.048-2.064q-.736-1.328-.736-2.992t.736-2.976a5.23 5.23 0 0 1 2.048-2.064q1.329-.752 2.976-.752 1.649 0 2.96.752a5.3 5.3 0 0 1 2.064 2.08q.752 1.312.752 2.96t-.752 2.976a5.3 5.3 0 0 1-2.064 2.064q-1.311.752-2.96.752m0-1.68q1.152 0 2.064-.528a3.85 3.85 0 0 0 1.424-1.472q.512-.928.512-2.112t-.512-2.112a3.74 3.74 0 0 0-1.424-1.456q-.912-.544-2.064-.544t-2.064.544a3.74 3.74 0 0 0-1.424 1.456q-.512.928-.512 2.112t.512 2.112q.513.929 1.424 1.472.912.528 2.064.528M237.67 51l-4.304-5.664 4.16-5.536h2.176l-4.608 6.032v-1.056L239.862 51zm-6.512 0V39.8h1.744V51zm1.184-4.832v-1.632h2.176v1.632zM245.158 51V39.8h4.576q.975 0 1.728.384.751.384 1.168 1.088t.416 1.584q0 .896-.416 1.568-.416.671-1.232 1.088l-.016-.544a2.9 2.9 0 0 1 1.472 1.104q.56.784.56 1.808a3.1 3.1 0 0 1-.432 1.616 2.96 2.96 0 0 1-1.232 1.104q-.784.4-1.792.4zm1.728-.976-.64-.624h3.568q.847 0 1.344-.448.512-.448.512-1.216t-.512-1.216q-.496-.448-1.344-.448h-3.28v-1.536h3.12q.495 0 .864-.192.384-.193.592-.544.208-.368.208-.832 0-.704-.464-1.136-.448-.432-1.216-.432h-3.392l.64-.624zm8.709.976V39.8h4.064q1.168 0 2.048.48.896.465 1.376 1.328.496.848.496 1.984t-.496 2a3.34 3.34 0 0 1-1.376 1.344q-.88.464-2.048.464h-3.312v-1.632h3.184q1.072 0 1.68-.576.624-.592.624-1.6t-.624-1.584q-.607-.576-1.68-.576h-2.848l.64-.656v5.504l.016.48V51zm7.85 0 4.384-11.2h2.08l4.336 11.2h-1.792l-1.12-2.896-.176-.512-2.448-6.4h.32l-2.544 6.56-.128.384L265.253 51zm2.272-2.192.592-1.568h5.392l.592 1.568zm12.635-1.296q-1.984 0-3.088-1.12-1.104-1.136-1.104-3.152V39.8h1.744v3.264q0 1.392.624 2.08t1.856.688q.896 0 1.744-.24a6 6 0 0 0 1.584-.688l.08 1.712a7.8 7.8 0 0 1-1.696.672 7 7 0 0 1-1.744.224M281.056 51V39.8h1.744V51zm6.22.192q-.96 0-1.696-.32l.496-1.568q.543.208 1.056.208.543 0 .912-.256.368-.255.656-.848l.32-.672.336-.672 2.08-4.528L292.7 39.8h1.904l-4.416 9.408q-.497 1.04-1.184 1.52-.689.464-1.728.464m1.615-2.752-4.383-8.64h1.968l1.36 2.736 2.048 4.048zm7.409-.16-.144-4.416-.048-4.064h1.744l-.048 4.064-.144 4.416zm.688 2.88q-.48 0-.8-.304a1.03 1.03 0 0 1-.32-.784q0-.464.32-.768t.8-.304q.463 0 .784.304.32.305.32.768 0 .48-.32.784a1.1 1.1 0 0 1-.784.304M24.72 208v-11.2h1.744V208zm-7.328 0v-11.2h1.744V208zm1.472-4.88v-1.664h6.128v1.664zM29.251 208v-11.2h7.056v1.616H30.34l.656-.608v9.184l-.656-.624h6.176V208zm1.536-4.896v-1.568h5.104v1.568zM42.595 208v-11.2h1.744v10.224l-.656-.656h3.04q1.041 0 1.632-.496.608-.512.608-1.392t-.608-1.392q-.591-.512-1.632-.512h-3.376v-1.616h3.488q1.153 0 2.032.448.88.432 1.36 1.216t.48 1.856q0 1.056-.48 1.856-.48.784-1.36 1.232-.88.432-2.032.432zm.864-9.568V196.8h6.48v1.632zm14.444 9.76q-1.664 0-2.976-.736a5.36 5.36 0 0 1-2.048-2.064q-.735-1.328-.736-2.992 0-1.663.736-2.976a5.23 5.23 0 0 1 2.048-2.064q1.329-.752 2.976-.752 1.649 0 2.96.752a5.3 5.3 0 0 1 2.064 2.08q.753 1.312.752 2.96 0 1.649-.752 2.976a5.33 5.33 0 0 1-2.064 2.064q-1.311.752-2.96.752m0-1.68q1.152 0 2.064-.528a3.85 3.85 0 0 0 1.424-1.472q.512-.928.512-2.112 0-1.183-.512-2.112a3.74 3.74 0 0 0-1.424-1.456q-.912-.544-2.064-.544t-2.064.544a3.74 3.74 0 0 0-1.424 1.456q-.512.929-.512 2.112t.512 2.112a3.85 3.85 0 0 0 1.424 1.472q.912.528 2.064.528M65.845 208v-11.2h1.744v10.288l-.704-1.072 6.704-9.216h1.584V208H73.43v-10.304l.704 1.072L67.43 208zm4.736-12.272q-1.087 0-1.68-.464-.591-.48-.736-1.472l1.344-.256q.065.512.32.752.272.24.752.24.465 0 .72-.24.271-.24.336-.752l1.344.256q-.144.992-.736 1.472-.593.464-1.664.464m12.365 12.464q-1.649 0-2.912-.752a5.23 5.23 0 0 1-1.968-2.064q-.704-1.327-.704-2.976 0-1.648.688-2.96a5.24 5.24 0 0 1 1.952-2.08q1.265-.752 2.88-.752 1.425 0 2.608.624 1.185.608 2.08 1.76l-1.248 1.088a4.2 4.2 0 0 0-1.52-1.312 4 4 0 0 0-1.92-.48q-1.104 0-1.968.544a3.65 3.65 0 0 0-1.328 1.456q-.464.929-.464 2.112t.464 2.128q.48.928 1.344 1.456t2.016.528q1.12 0 2.064-.496a4.5 4.5 0 0 0 1.6-1.376l1.248 1.056q-.912 1.231-2.16 1.872-1.249.624-2.752.624m12.76-.192v-4.736l.032-.416v-5.072l.624.656h-3.296q-1.024 0-1.6.544-.576.528-.576 1.456t.576 1.472q.577.528 1.6.528h2.848v1.584h-2.912q-1.088 0-1.968-.464a3.7 3.7 0 0 1-1.392-1.296 3.56 3.56 0 0 1-.496-1.856q0-1.024.496-1.84a3.6 3.6 0 0 1 1.392-1.28 4.04 4.04 0 0 1 1.968-.48h4.448V208zm-6.864 0 2.8-4.496 1.808.272L90.858 208z"/><path stroke="#fff" stroke-width="1.5" d="M387.168 92.75h159.665c6.306 0 11.418 5.112 11.418 11.417l.001 46.175c0 6.306-5.111 11.418-11.417 11.418H389.817a16.46 16.46 0 0 0-14.065 7.915l-.002-65.507c0-6.306 5.112-11.418 11.418-11.418ZM104.836 179.75H13.17c-6.306 0-11.418 5.112-11.418 11.417l-.001 26.175c0 6.306 5.111 11.418 11.417 11.418h89.019c5.827 0 11.124 3.07 14.065 7.915l.001-45.507c0-6.306-5.111-11.418-11.417-11.418Z"/><path fill="#fff" d="M399.96 121.128a6.5 6.5 0 0 1-2.272-.4 6.3 6.3 0 0 1-1.92-1.168l.992-1.264q1.409 1.168 3.168 1.168 1.168 0 1.76-.432.608-.448.608-1.28 0-.512-.24-.88a1.5 1.5 0 0 0-.704-.56q-.448-.208-1.072-.208h-2.304v-1.616h2.192q.8 0 1.28-.432.496-.432.496-1.184 0-.72-.56-1.12-.544-.416-1.52-.416a4.2 4.2 0 0 0-1.536.288q-.736.272-1.456.88l-.976-1.264a5.7 5.7 0 0 1 1.824-1.168 5.8 5.8 0 0 1 2.144-.4q1.168 0 2.016.368.864.367 1.328 1.056t.464 1.632a3.03 3.03 0 0 1-.464 1.648 3.05 3.05 0 0 1-1.28 1.152l-.016-.56a2.9 2.9 0 0 1 1.552 1.12q.592.816.592 1.84 0 1.472-1.104 2.336-1.088.864-2.992.864m5.677-1.456q.527-.304.848-.656.32-.368.512-1.024.191-.672.272-1.808l.464-6.384h7.312v10.048h-1.744v-9.152l.752.736h-5.44l.784-.72-.384 5.616q-.113 1.471-.48 2.4-.368.912-1.04 1.44zm-.816 3.904v-4.24h2.16l.208.048h6.688l.368-.048h2.432v4.24h-1.664v-3.344l.768.768h-9.92l.624-.768v3.344zM418.517 121v-11.2h7.056v1.616h-5.968l.656-.608v9.184l-.656-.624h6.176V121zm1.536-4.896v-1.568h5.104v1.568zm12.815 5.088q-1.648 0-2.912-.752a5.23 5.23 0 0 1-1.968-2.064q-.704-1.328-.704-2.976t.688-2.96a5.24 5.24 0 0 1 1.952-2.08q1.264-.752 2.88-.752 1.424 0 2.608.624 1.184.608 2.08 1.76l-1.248 1.088a4.2 4.2 0 0 0-1.52-1.312 4 4 0 0 0-1.92-.48q-1.104 0-1.968.544a3.65 3.65 0 0 0-1.328 1.456q-.464.928-.464 2.112t.464 2.128q.48.928 1.344 1.456t2.016.528q1.12 0 2.064-.496a4.5 4.5 0 0 0 1.6-1.376l1.248 1.056q-.912 1.232-2.16 1.872-1.248.624-2.752.624m6.68-.192v-11.2h1.744v4.56l-.016.48v5.184l-.64-.656h3.168q1.104 0 1.68-.528t.576-1.472-.576-1.472q-.576-.544-1.68-.544H440.3v-1.632h3.632q1.152 0 2.032.464.88.448 1.36 1.28.48.816.48 1.904t-.48 1.904a3.35 3.35 0 0 1-1.36 1.28q-.88.448-2.032.448zm12.784-1.424q.976-.272 1.44-.592.48-.32.688-.88.209-.576.288-1.648l.48-6.656h7.648V121h-1.728v-10.304l.752.768h-5.792l.8-.768-.416 5.872q-.096 1.44-.528 2.368-.432.912-1.216 1.424-.768.511-1.984.72zm15.022 1.616q-.96 0-1.696-.32l.496-1.568q.543.208 1.056.208.543 0 .912-.256.368-.256.656-.848l.32-.672.336-.672 2.08-4.528 1.264-2.736h1.904l-4.416 9.408q-.497 1.04-1.184 1.52-.689.464-1.728.464m1.616-2.752-4.384-8.64h1.968l1.36 2.736 2.048 4.048zm10.835-.928q-1.983 0-3.088-1.12-1.104-1.136-1.104-3.152v-3.44h1.744v3.264q0 1.392.624 2.08t1.856.688q.897 0 1.744-.24a6 6 0 0 0 1.584-.688l.08 1.712a7.8 7.8 0 0 1-1.696.672 7 7 0 0 1-1.744.224m2.704 3.488v-11.2h1.744V121zm5.372 0v-1.664h14.096V121zm-.848 0v-11.2h1.744V121zm7.008-.624V109.8h1.744v10.576zm7.024.624v-11.2h1.744V121zm4.53 0v-11.2h1.744v10.288l-.704-1.072 6.704-9.216h1.584V121h-1.744v-10.304l.704 1.072-6.704 9.232zm12.11 0v-11.2h7.055v1.616h-5.967l.656-.608v9.184l-.656-.624h6.176V121zm1.536-4.896v-1.568h5.104v1.568zm-117.873 25.088q-1.648 0-2.912-.752a5.23 5.23 0 0 1-1.968-2.064q-.704-1.327-.704-2.976 0-1.648.688-2.96a5.24 5.24 0 0 1 1.952-2.08q1.264-.752 2.88-.752 1.424 0 2.608.624 1.184.608 2.08 1.76l-1.248 1.088a4.2 4.2 0 0 0-1.52-1.312 4 4 0 0 0-1.92-.48q-1.104 0-1.968.544a3.65 3.65 0 0 0-1.328 1.456q-.464.929-.464 2.112t.464 2.128q.48.928 1.344 1.456t2.016.528q1.12 0 2.064-.496a4.5 4.5 0 0 0 1.6-1.376l1.248 1.056q-.912 1.232-2.16 1.872-1.248.624-2.752.624m14.008-.192v-11.2h1.744V141zm-7.328 0v-11.2h1.744V141zm.848-9.536V129.8h7.392v1.664zM419.908 141v-11.2h7.056v1.616h-5.968l.656-.608v9.184l-.656-.624h6.176V141zm1.536-4.896v-1.568h5.104v1.568zm17.004 7.472v-3.344l.832.768h-9.04v-1.664h9.872v4.24zM429.392 141v-11.2h1.744V141zm7.328 0v-11.2h1.744V141zm5.235 0v-11.2h1.744v10.288l-.704-1.072 6.704-9.216h1.584V141h-1.744v-10.304l.704 1.072-6.704 9.232zm11.037 0 4.384-11.2h2.08l4.336 11.2H462l-1.12-2.896-.176-.512-2.448-6.4h.32l-2.544 6.56-.128.384L454.8 141zm2.272-2.192.592-1.568h5.392l.592 1.568zm8.928.768q.975-.272 1.44-.592a1.77 1.77 0 0 0 .688-.88q.207-.576.288-1.648l.48-6.656h7.648V141h-1.728v-10.304l.752.768h-5.792l.8-.768-.416 5.872q-.096 1.44-.528 2.368a3.4 3.4 0 0 1-1.216 1.424q-.768.511-1.984.72zM477.517 141v-11.2h1.744v10.288l-.704-1.072 6.704-9.216h1.584V141h-1.744v-10.304l.704 1.072-6.704 9.232zm17.101.192q-1.648 0-2.912-.752a5.23 5.23 0 0 1-1.968-2.064q-.704-1.327-.704-2.976 0-1.648.688-2.96a5.24 5.24 0 0 1 1.952-2.08q1.264-.752 2.88-.752 1.424 0 2.608.624 1.184.608 2.08 1.76l-1.248 1.088a4.2 4.2 0 0 0-1.52-1.312 4 4 0 0 0-1.92-.48q-1.104 0-1.968.544a3.65 3.65 0 0 0-1.328 1.456q-.464.929-.464 2.112t.464 2.128q.48.928 1.344 1.456t2.016.528q1.12 0 2.064-.496a4.5 4.5 0 0 0 1.6-1.376l1.248 1.056q-.912 1.232-2.16 1.872-1.248.624-2.752.624m8.911-.192v-10.544h1.744V141zm-3.472-9.536V129.8h8.688v1.664zM510.564 141v-11.2h1.744v4.56l-.016.48v5.184l-.64-.656h3.168q1.104 0 1.68-.528t.576-1.472-.576-1.472q-.576-.544-1.68-.544h-3.504v-1.632h3.632q1.152 0 2.032.464.88.448 1.36 1.28.48.816.48 1.904t-.48 1.904a3.35 3.35 0 0 1-1.36 1.28q-.88.448-2.032.448zm10.144 0v-11.2h1.744V141zm4.576-2.72-.144-4.416-.048-4.064h1.744l-.048 4.064-.144 4.416zm.688 2.88q-.48 0-.8-.304a1.03 1.03 0 0 1-.32-.784q0-.464.32-.768t.8-.304q.464 0 .784.304t.32.768q0 .48-.32.784a1.1 1.1 0 0 1-.784.304"/><g clip-path="url(#a)"><path fill="#faf6e6" d="M178.868 307.315a24.32 24.32 0 0 0-18.351 4.705l-18.103 13.786-.27.169c-.067-3.691-.484-7.248-1.249-10.388-1.655-6.741-7.836-13.167-14.602-14.698l-3.907-.878-2.409-12.053 5.257-8.475a13.83 13.83 0 0 0 1.374-11.671l-1.329-3.973-13.025 3.377-.822-.439a9.42 9.42 0 0 0-10.301.911l-6.721 5.324L83.298 259l1.17 15.97a17.52 17.52 0 0 0 5.922 11.885l.147.124v4.85a13.35 13.35 0 0 0 4.784 10.253l7.285 6.111-2.894 13.506c-5.9 6.111-31.05 17.264-35.778 48.079-.653 4.22-.698 8.519-.26 12.762l3.4 32.773H45.404c-19.32 0-30.048-3.838-33.38-10.388a92 92 0 0 1-3.772-8.418c-.732-1.868-2.623-3.151-4.616-2.87-2.713.383-4.334 3.208-3.332 5.729l.776 1.958a34.29 34.29 0 0 0 31.872 21.653h92.328a7.387 7.387 0 0 0-7.385-7.382h-12.879s12.586-8.115 13.768-21.069l1.757 9.015a45 45 0 0 0 2.645 8.711l4.504 10.725h12.541v-2.025c0-3.433-.09-5.245-2.544-7.642l-4.188-2.679-8.23-34.438 1.633-11.277s4.39-6.427 8.916-13.179c2.06-3.073 3.591-6.854 4.638-10.94l.428.18 29.26-24.883 8.613 1.891a6.57 6.57 0 0 0 7.678-4.435l1.553-4.895-9.13-1.373z"/></g><path fill="#d2d3dd" d="M556.977 323.539c-4.62 5.566-13.426 8.13-23.487 1.361-16.459-11.079-33.477-45.643-33.477-45.643l-.14.209c-4.063-7.572-9.869-14.621-18.326-20.099-20.365-13.191-58.987-7.189-72.762-8.393-13.775-1.203-19.459-12.283-19.459-12.283l11.386-11.986s.75 8.654 16.617 12.562c15.867 3.891 22.929-3.873 22.929-3.873l-15.222-15.564s-.663-1.797-.07-9.892c.593-8.096-2.702-16.785-10.775-20.972-8.091-4.188-13.479 2.704-13.479 2.704l-8.439-6.735a8.9 8.9 0 0 0-11.438.297l-22.65 20.082 2.284 2.53 29.45-10.503s-22.162 23.065-25.457 56.931 7.393 58.467 7.393 58.467l5.091 69.511-3.749 17.954C368.873 402.402 359.806 410.986 354 418h16.164l11.56-15.773 5.423-25.403 1.29-59.653 9.503 4.798 2.772 68.307-5.649 12.719c-3.714 1.884-10.392 7.258-15.013 14.988h20.366l9.276-24.427 4.499-71.012s8.683.908 22.754-10.189c14.071-11.079 14.664-22.176 14.664-22.176l6.085 1.256-1.168 23.241a41.43 41.43 0 0 0 7.812 26.345l17.209 23.781-8.387 38.054c-2.441 1.326-8.718 7.711-12.048 15.127h17.14l13.775-57.979-17.96-30.864 8.98-20.676s1.203 5.391 10.183 19.472c8.98 14.08 25.143 36.849 25.143 36.849l.907 37.146c-3.697 3.158-6.521 11.079-8.091 16.034h16.774v-57.978s-16.774-31.162-18.866-48.243c-.018-.192-.052-.401-.07-.593 7.602 8.148 16.739 16.471 24.899 19.925C552.2 338.823 559 324.341 559 324.341s.035-3.367-2.023-.889z"/><g stroke="#fff" stroke-linecap="round" stroke-linejoin="round" stroke-width="2.5" clip-path="url(#b)"><path d="m214.115 156.26-21.327 45.694c-5.965 12.783-21.004 18.503-33.939 12.891-13.378-5.801-19.383-21.485-13.338-34.765l22.292-48.89h-19.825l-2.373 11.911h-7.654l-1.957-13.817a12.97 12.97 0 0 1 8.472-14.046l19.034-6.808a9.74 9.74 0 0 1 11.608 4.123l3.793 6.23 29.343 12.394 3.351-4.096a6.17 6.17 0 0 1 8.538-.993l15.12 11.574c3.847 2.955 4.437 8.54 1.287 12.22l-16.608 28.829-6.917-39.598M220.148 421.134l8.539-15.939a75.4 75.4 0 0 0 8.914-35.53v-73.65l8.726-58.384"/><path d="M165.434 217.57v42.821a74.4 74.4 0 0 0 17.318 47.735l16.782 20.061-3.967 69.905-1.81.872c-6.903 3.344-11.273 10.353-11.273 18.034v4.122M240.582 340.93l24.959 13.508M302.616 326.589l-19.074 6.795c-9.96 3.545-16.608 12.984-16.608 23.565l.482 15.455c.308 9.655 6.689 18.061 15.898 20.934l20.294 6.325M415.302 413.977c9.503-8.648 12.372-25.513 3.471-34.778l-2.251-2.35c-5.764-6.002-17.372-9.023-23.927-3.894l-9.772 7.64c-2.171 1.692-2.359 4.901-.415 6.849a4.57 4.57 0 0 0 5.817.537l11.085-5.264s6.006-.792 9.518 5.559c3.511 6.351-4.102 16.677-20.482 15.616-16.394-1.06-23.873-13.763-23.873-13.763l-7.4-46.607c-2.412-15.227-9.021-29.487-24.235-47.628L223.164 173.111M351.782 421.12l-4.759-21.444 14.558 13.119M303.606 399.676h-33.953c-8.901 0-16.126 7.238-16.126 16.154v5.29M176.545 181.84l-6.796-2.807c-2.293-.94-4.906.323-5.563 2.726l-2.239 8.07a4.14 4.14 0 0 0 2.48 4.968l5.469 2.149a4.143 4.143 0 0 0 5.241-2.055l3.579-7.412a4.15 4.15 0 0 0-2.158-5.639z"/></g><defs><clipPath id="a"><path fill="#fff" d="M0 259h188v164H0z"/></clipPath><clipPath id="b"><path fill="#fff" d="M134 106h292v317H134z"/></clipPath></defs></svg>