<svg xmlns="http://www.w3.org/2000/svg" fill="none" viewBox="0 0 100 100"><path stroke="currentColor" stroke-linecap="round" stroke-linejoin="round" stroke-width="3.5" d="M88.58 1.75H11.045a9.296 9.296 0 0 0-9.296 9.296v77.533a9.296 9.296 0 0 0 9.296 9.296h77.533a9.296 9.296 0 0 0 9.296-9.296V11.046a9.296 9.296 0 0 0-9.296-9.296"/><path stroke="currentColor" stroke-linecap="round" stroke-linejoin="round" stroke-width="3.5" d="M33.348 12.254H66.29v16.62c0 9.088-7.382 16.47-16.471 16.47s-16.471-7.382-16.471-16.47zM33.348 27.188H66.29M81.425 96.877V70.468c0-8.778-7.124-15.902-15.903-15.902H34.105c-8.778 0-15.902 7.124-15.902 15.902v26.409M62.254 55.341V66.06"/><path stroke="currentColor" stroke-linecap="round" stroke-linejoin="round" stroke-width="3.5" d="M62.251 77.942a4.977 4.977 0 1 0 0-9.955 4.977 4.977 0 0 0 0 9.955M41.574 56.868v3.827M50.37 81.38v-6.516c0-6.555-4.629-11.881-10.343-11.881s-10.343 5.314-10.343 11.881v6.516M50.763 87.523a3.064 3.064 0 1 0 0-6.128 3.064 3.064 0 0 0 0 6.128M29.685 87.523a3.064 3.064 0 1 0 0-6.128 3.064 3.064 0 0 0 0 6.128"/></svg>