<svg xmlns="http://www.w3.org/2000/svg" fill="none" viewBox="0 0 104 104"><path stroke="currentColor" stroke-linecap="round" stroke-linejoin="round" stroke-width="3.5" d="M92.08 1.75H11.42c-5.34 0-9.67 4.33-9.67 9.67v80.66a9.67 9.67 0 0 0 9.67 9.67h80.66a9.67 9.67 0 0 0 9.67-9.67V11.42a9.67 9.67 0 0 0-9.67-9.67"/><path stroke="currentColor" stroke-linecap="round" stroke-linejoin="round" stroke-width="3.5" d="M86.917 74.16 51.31 93.082V49.68l35.608-18.924zM15.7 74.16l35.608 18.923V49.68L15.699 30.756z"/><path stroke="currentColor" stroke-linecap="round" stroke-linejoin="round" stroke-width="3.5" d="m15.7 74.16 35.608 18.923V49.68L15.699 30.756zM86.917 74.16 51.31 93.082V49.68l35.608-18.924zM15.7 30.09l35.608-18.914M86.917 30.09 51.31 11.175M15.7 61.31l18.983 10.08M30.762 54.923l20.55 10.913"/><path stroke="currentColor" stroke-linecap="round" stroke-linejoin="round" stroke-width="3.5" d="M29.72 52.395c-.073 1.841-1.37 3.09-2.906 2.799-1.534-.292-2.719-2.019-2.647-3.85s1.37-3.09 2.905-2.798 2.72 2.018 2.647 3.85M72.015 50.033c.072 1.841 1.37 3.09 2.905 2.798s2.719-2.018 2.647-3.849-1.37-3.09-2.905-2.798c-1.535.29-2.72 2.018-2.647 3.849M64.105 73.055c.072 1.842 1.37 3.09 2.904 2.799 1.535-.291 2.72-2.019 2.648-3.85s-1.37-3.09-2.905-2.798-2.72 2.018-2.647 3.85M41.3 74.076c-.288 1.612-1.895 2.57-3.573 2.132-1.68-.437-2.802-2.101-2.514-3.714s1.895-2.57 3.574-2.132c1.68.437 2.802 2.101 2.514 3.714M45.13 30.152c.01 1.446-1.68 2.892-3.77 3.225-2.091.333-3.791-.562-3.801-2.008s1.679-2.892 3.77-3.225c2.09-.333 3.79.562 3.8 2.008M62.106 27.01c.01 1.446-1.679 2.892-3.77 3.225-2.09.333-3.79-.562-3.8-2.008-.011-1.446 1.678-2.892 3.77-3.225 2.09-.333 3.79.562 3.8 2.008M39.474 28.248l-9.58-5.088M72.685 36.332l-12.02-6.388M52.715 67.772l12.175-6.46v-6.846M70.802 51.178l-5.243 2.788M86.232 60.76l-15.709 8.354"/></svg>