<svg xmlns="http://www.w3.org/2000/svg" fill="none" viewBox="0 0 101 100"><path stroke="currentColor" stroke-linecap="round" stroke-linejoin="round" stroke-width="3.5" d="M89.444 1.75H11.138c-5.185 0-9.388 4.162-9.388 9.295v77.531c0 5.134 4.203 9.296 9.388 9.296h78.306c5.185 0 9.389-4.162 9.389-9.296v-77.53c0-5.134-4.204-9.296-9.389-9.296M80.214 29.455l-43.39 42.948"/><path stroke="currentColor" stroke-linecap="round" stroke-linejoin="round" stroke-width="3.5" d="M67.262 54.769h17.81L66.61 83.3M55.927 37.78H34.238l16.505-21.473v29.812M14.17 25.448c0-4.693 3.448-8.287 8.096-8.39 3.774-.091 8.2 3.542 8.2 8.222 0 1.176-.195 2.52-1.514 4.654-1.188 1.926-3.265 3.917-6.581 6.89l-9.18 8.016h18.777"/></svg>