<svg xmlns="http://www.w3.org/2000/svg" fill="none" viewBox="0 0 101 100"><path stroke="currentColor" stroke-linecap="round" stroke-linejoin="round" stroke-width="3.5" d="M89.444 1.75H11.138c-5.185 0-9.388 4.162-9.388 9.295v77.531c0 5.134 4.203 9.296 9.388 9.296h78.306c5.185 0 9.389-4.162 9.389-9.296v-77.53c0-5.134-4.204-9.296-9.389-9.296"/><path stroke="currentColor" stroke-linecap="round" stroke-linejoin="round" stroke-width="3.5" d="M50.99 18.7c-3.714-3.852-9.724-3.852-13.426 0l-3.275 3.395-3.275-3.396c-3.727-3.851-9.737-3.851-13.44 0-3.714 3.852-3.714 10.084 0 13.923L34.152 49.81l.138-.143.138.143 16.576-17.188c3.715-3.852 3.715-10.084 0-13.923zM72.417 64.716l-.421-1.021A45.2 45.2 0 0 0 59.78 46.859l-1.276-1.098a3.8 3.8 0 0 0-4.723-.179l-1.506 1.11a4.13 4.13 0 0 0-1.57 4.366l.753 3.025-21.086 15.458-1.392 12.432 12.28 2.412L62.27 68.98l2.756 1.634a4.16 4.16 0 0 0 4.583-.217l1.57-1.149a3.805 3.805 0 0 0 1.263-4.518zM28.962 81.973l-6.599 4.837M50.777 65.993l-7.39 5.412M88.787 58.04a28.43 28.43 0 0 0-5.527-15.88c-3.523-4.799-8.258-8.194-13.479-10.045M68.594 42.863c3.05.843 5.846 2.68 7.862 5.438a14.6 14.6 0 0 1 2.821 9.139"/></svg>