<svg xmlns="http://www.w3.org/2000/svg" fill="none" viewBox="0 0 101 100"><path stroke="currentColor" stroke-linecap="round" stroke-linejoin="round" stroke-width="3.5" d="M89.444 1.75H11.138c-5.185 0-9.388 4.162-9.388 9.295v77.531c0 5.134 4.203 9.296 9.388 9.296h78.306c5.185 0 9.389-4.162 9.389-9.296v-77.53c0-5.134-4.204-9.296-9.389-9.296"/><path stroke="currentColor" stroke-linecap="round" stroke-linejoin="round" stroke-width="3.5" d="M75.2 14.769H41.76c-3.338 0-6.045 2.68-6.045 5.985v27.227c0 3.306 2.707 5.986 6.045 5.986H75.2c3.34 0 6.046-2.68 6.046-5.986V20.754c0-3.306-2.706-5.985-6.045-5.985M66.633 54.38v21.875M51.59 76.256V54.38M37.79 77.81h41.77M36.221 88.567c3 0 5.432-2.408 5.432-5.378S39.22 77.81 36.22 77.81s-5.432 2.407-5.432 5.378 2.432 5.378 5.432 5.378M80.221 88.567c3 0 5.432-2.408 5.432-5.378S83.22 77.81 80.22 77.81s-5.432 2.407-5.432 5.378 2.432 5.378 5.432 5.378"/><path stroke="currentColor" stroke-linecap="round" stroke-linejoin="round" stroke-width="3.5" d="M70.638 22.525H46.743c-1.94 0-3.513 1.557-3.513 3.478v10.278c0 1.92 1.573 3.478 3.513 3.478h23.895c1.94 0 3.513-1.557 3.513-3.478V26.003c0-1.92-1.573-3.478-3.513-3.478M34.482 37.107H13.016M21.504 37.833v18.824c0 5.83 4.766 10.549 10.655 10.549h17.758M23.8 15.144h-6.737c-1.14 0-2.063.914-2.063 2.042v10.395c0 1.128.924 2.042 2.063 2.042h6.738c1.14 0 2.063-.914 2.063-2.043V17.187a2.053 2.053 0 0 0-2.063-2.042"/></svg>