<svg xmlns="http://www.w3.org/2000/svg" fill="none" viewBox="0 0 101 100"><path stroke="currentColor" stroke-linecap="round" stroke-linejoin="round" stroke-width="3.5" d="M89.444 1.75H11.138c-5.185 0-9.388 4.162-9.388 9.295v77.531c0 5.134 4.203 9.296 9.388 9.296h78.306c5.185 0 9.389-4.162 9.389-9.296v-77.53c0-5.134-4.204-9.296-9.389-9.296"/><path stroke="currentColor" stroke-linecap="round" stroke-linejoin="round" stroke-width="3.5" d="M15.79 62.586h7.884c0-5.148 4.405-10.776 13.202-10.776 5.565 0 10.895 4.613 10.895 10.057h8.907c2.873 0 5.179 2.412 5.11 5.346v3.598"/><path stroke="currentColor" stroke-linecap="round" stroke-linejoin="round" stroke-width="3.5" d="M42.37 71.624h17.628c1.02 0 2.01-.296 2.85-.85l18.47-13.154c2.176-1.444 5.123-.904 6.61 1.2 1.529 2.146.964 5.1-1.24 6.571L67.27 79.234a15.44 15.44 0 0 1-8.566 2.577H15.789M22.79 35.012l14.822 8.798v-5.03l4.78-2.905c2.111-1.275 3.397-3.59 3.397-6.072v-1.507l-2.721-1.206a7 7 0 0 0-6.376-4.14h-4.698l-6.05-6.14v11.294l-3.155 6.894zM52.803 30.544V35.7c0 4.678 3.933 8.47 8.784 8.47h2.49l3.437 6.642 18.275-10.134-2.97-4.173v-7.27c0-3.831-2.207-7.35-5.729-9.137l-6.493-3.286v8.346h-3.79c-3.282 0-5.941 2.564-5.941 5.728l-8.077-.34z"/></svg>