<svg xmlns="http://www.w3.org/2000/svg" fill="none" viewBox="0 0 101 100"><path stroke="currentColor" stroke-linecap="round" stroke-linejoin="round" stroke-width="3.5" d="M89.444 1.75H11.138c-5.185 0-9.388 4.162-9.388 9.295v77.531c0 5.134 4.203 9.296 9.388 9.296h78.306c5.185 0 9.389-4.162 9.389-9.296v-77.53c0-5.134-4.204-9.296-9.389-9.296"/><path stroke="currentColor" stroke-linecap="round" stroke-linejoin="round" stroke-width="3.5" d="M50.892 36.81H24.686c-3.809 0-6.897 3.163-6.897 7.065v31.871c0 3.902 3.088 7.065 6.897 7.065h26.206c3.809 0 6.897-3.163 6.897-7.065V43.875c0-3.902-3.088-7.065-6.897-7.065"/><path stroke="currentColor" stroke-linecap="round" stroke-linejoin="round" stroke-width="3.5" d="M46.73 44.81H28.848c-2.242 0-4.059 1.773-4.059 3.96v10.08c0 2.188 1.817 3.96 4.06 3.96H46.73c2.242 0 4.06-1.772 4.06-3.96V48.77c0-2.187-1.818-3.96-4.06-3.96"/><path stroke="currentColor" stroke-linecap="round" stroke-linejoin="round" stroke-width="3.5" d="M24.79 36.084v-7.37c0-7.684 6.149-13.903 13.719-13.903h17.56c7.583 0 13.72 6.219 13.72 13.902v43.098"/><path stroke="currentColor" stroke-linecap="round" stroke-linejoin="round" stroke-width="3.5" d="M37.79 35.81v-7.275c0-7.585 5.815-13.724 13-13.724M69.79 33.81c0 3.313 2.771 6 6.189 6h2.81"/><path stroke="currentColor" stroke-linecap="round" stroke-linejoin="round" stroke-width="3.5" d="M83.29 43.81a4.5 4.5 0 1 0-.001-9 4.5 4.5 0 0 0 0 9M69.79 39.81v11.063c0 3.278 2.771 5.938 6.189 5.938h2.81"/><path stroke="currentColor" stroke-linecap="round" stroke-linejoin="round" stroke-width="3.5" d="M83.29 60.81a4.5 4.5 0 1 0-.001-9 4.5 4.5 0 0 0 0 9M70.29 81.81a4.5 4.5 0 1 0-.001-9 4.5 4.5 0 0 0 0 9M30.79 75.81a3 3 0 1 0 0-6 3 3 0 0 0 0 6M44.79 75.81a3 3 0 1 0 0-6 3 3 0 0 0 0 6M69.79 36.81v-7.473c0-5.264-4.251-9.526-9.5-9.526-5.25 0-9.5 4.262-9.5 9.526v7.473M30.79 52.81c2.501 0 2.501 3 4.99 3s2.502-3 5.005-3c2.502 0 2.502 3 5.004 3"/></svg>