<svg xmlns="http://www.w3.org/2000/svg" fill="none" viewBox="0 0 101 100"><path stroke="currentColor" stroke-linecap="round" stroke-linejoin="round" stroke-width="3.5" d="m35.008 20.522 5.797 17.815 10.16 6.464h8.918c6.855 0 12.404 5.494 12.404 12.282v3.09l5.589 5.533V79.28h-7.613v-6.606l-1.71-.88c-3.774-1.938-6.176-5.765-6.242-9.98l-.026-1.642H42.986v19.82h-8.71V64.192s-3.342-8.907-3.486-12.501c-.143-3.595-.73-7.33-.73-7.33-5.002 1.86-10.603-.389-12.889-5.172l-.757-1.59s8.266-2.728 7.835-2.728c-.105 0-.118-.336-.066-.853.261-2.767 2.076-5.146 4.662-6.232l.927-.388 5.223-7.472"/><path stroke="currentColor" stroke-linecap="round" stroke-linejoin="round" stroke-width="3.5" d="m30.082 44.361 10.015-5.74 10.746-2.081c11.648-2.25 21.846-9.18 28.153-19.134l3.76-5.934"/><path stroke="currentColor" stroke-linecap="round" stroke-linejoin="round" stroke-width="3.5" d="M89.444 1.75H11.138c-5.185 0-9.388 4.162-9.388 9.295v77.531c0 5.134 4.203 9.296 9.388 9.296h78.306c5.185 0 9.389-4.162 9.389-9.296v-77.53c0-5.134-4.204-9.296-9.389-9.296"/></svg>