<svg xmlns="http://www.w3.org/2000/svg" fill="none" viewBox="0 0 105 105"><path stroke="currentColor" stroke-linecap="round" stroke-linejoin="round" stroke-width="3.5" d="M92.983 1.75H11.517c-5.394 0-9.767 4.373-9.767 9.767v81.466c0 5.394 4.373 9.767 9.767 9.767h81.466c5.394 0 9.767-4.373 9.767-9.767V11.517c0-5.394-4.373-9.767-9.767-9.767M37.689 68.032l-3.81 3.81"/><path stroke="currentColor" stroke-linecap="round" stroke-linejoin="round" stroke-width="3.5" d="M25.827 71.631 15.605 81.853a5.363 5.363 0 0 0 0 7.585l.01.01a5.363 5.363 0 0 0 7.584 0L33.42 79.224a5.363 5.363 0 0 0 0-7.584l-.01-.01a5.363 5.363 0 0 0-7.584 0M60.777 61.888c4.74-.08 11.098 1.407 13.089-2.987 1.234-2.734 1.181-6.703-2.217-8.734-2.336-1.394-3.359-2.032-4.845-3.956-1.487-1.925-3.81-3.797-6.027-3.797s-4.553 1.766-6.027 3.69c-1.473 1.925-2.509 2.563-4.845 3.956-3.412 2.045-3.465 6.014-2.217 8.735 1.991 4.394 8.35 3.014 13.089 3.093M48.114 44.244c1.74-1.22 1.876-4.03.302-6.275s-4.261-3.076-6.002-1.855c-1.74 1.22-1.876 4.03-.303 6.275 1.574 2.245 4.262 3.076 6.003 1.855M55.581 35.996c1.955-.261 3.272-2.476 2.943-4.946-.33-2.471-2.182-4.263-4.137-4.002s-3.272 2.476-2.942 4.946c.33 2.471 2.181 4.263 4.136 4.002M79.873 42.768c1.574-2.245 1.439-5.055-.302-6.275s-4.428-.39-6.002 1.856-1.439 5.054.302 6.275c1.741 1.22 4.428.39 6.002-1.856"/><path stroke="currentColor" stroke-linecap="round" stroke-linejoin="round" stroke-width="3.5" d="M60.511 75.708c17.207 0 31.156-13.95 31.156-31.156 0-17.207-13.949-31.156-31.156-31.156S29.355 27.344 29.355 44.55s13.95 31.156 31.156 31.156"/><path stroke="currentColor" stroke-linecap="round" stroke-linejoin="round" stroke-width="3.5" d="M70.559 32.379c.33-2.47-.988-4.685-2.943-4.946-1.955-.26-3.807 1.53-4.136 4.001s.988 4.686 2.942 4.946c1.955.261 3.807-1.53 4.137-4.001"/></svg>