<svg xmlns="http://www.w3.org/2000/svg" fill="none" viewBox="0 0 101 100"><path stroke="currentColor" stroke-linecap="round" stroke-linejoin="round" stroke-width="3.5" d="M89.444 1.75H11.138c-5.185 0-9.388 4.162-9.388 9.295v77.531c0 5.134 4.203 9.296 9.388 9.296h78.306c5.185 0 9.389-4.162 9.389-9.296v-77.53c0-5.134-4.204-9.296-9.389-9.296"/><path stroke="currentColor" stroke-linecap="round" stroke-linejoin="round" stroke-width="3.5" d="M29.491 85.81h45.11c2.306 0 4.188-1.878 4.188-4.208 0-2.317-1.87-4.208-4.188-4.208H40.934c-8.364 0-15.145-6.814-15.145-15.218s6.407-12.361 10.196-14.366M44.395 34.314l-6.727-11.092c-1.78-2.972-.772-6.8 2.268-8.548 3.027-1.749 6.926-.758 8.707 2.226l19.146 31.576-10.974 6.334-7.113-11.617"/><path stroke="currentColor" stroke-linecap="round" stroke-linejoin="round" stroke-width="3.5" d="M46.79 43.81a5 5 0 1 0 0-10 5 5 0 0 0 0 10M72.79 57.81l-11 6"/></svg>