<svg xmlns="http://www.w3.org/2000/svg" fill="none" viewBox="0 0 101 100"><path stroke="currentColor" stroke-linecap="round" stroke-linejoin="round" stroke-width="3.5" d="M89.444 1.75H11.138c-5.185 0-9.388 4.162-9.388 9.295v77.531c0 5.134 4.203 9.296 9.388 9.296h78.306c5.185 0 9.389-4.162 9.389-9.296v-77.53c0-5.134-4.204-9.296-9.389-9.296"/><path stroke="currentColor" stroke-linecap="round" stroke-linejoin="round" stroke-width="3.5" d="M74.034 55.763H47.14l-11.852 9.048V24.997c0-6.173 5.044-11.186 11.255-11.186h27.49c6.211 0 11.255 5.013 11.255 11.186V44.59c0 6.174-5.044 11.187-11.255 11.187z"/><path stroke="currentColor" stroke-linecap="round" stroke-linejoin="round" stroke-width="3.5" d="M33.442 39.81h-7.796c-5.718 0-10.357 4.601-10.357 10.271v16.147c0 5.67 4.639 10.27 10.357 10.27h24.74l10.903 8.313v-28M47.29 26.81h26.5M47.29 35.81h26.5M47.29 44.81h14"/></svg>