<svg xmlns="http://www.w3.org/2000/svg" fill="none" viewBox="0 0 101 100"><path stroke="currentColor" stroke-linecap="round" stroke-linejoin="round" stroke-width="4" d="M89.651 1.94H11.345c-5.185 0-9.388 4.161-9.388 9.295v77.53c0 5.134 4.203 9.296 9.388 9.296h78.306c5.186 0 9.389-4.162 9.389-9.295V11.235c0-5.134-4.204-9.296-9.389-9.296"/><path stroke="currentColor" stroke-linecap="round" stroke-linejoin="round" stroke-width="3.5" d="M70.5 80C77.956 80 84 73.956 84 66.5S77.956 53 70.5 53 57 59.044 57 66.5 63.044 80 70.5 80"/><path stroke="currentColor" stroke-linecap="round" stroke-linejoin="round" stroke-width="3.5" d="M50.994 79H25.979C22.13 79 19 76.008 19 72.328V32.672C19 28.992 22.13 26 25.98 26h50.04c3.85 0 6.98 2.992 6.98 6.672v16.933M35.39 19v13.226M50.762 19v13.226M66.133 19v13.226"/><path stroke="currentColor" stroke-linecap="round" stroke-linejoin="round" stroke-width="3.5" d="M70 61v6h7"/><path fill="currentColor" d="M35.5 46a3.5 3.5 0 1 0 0-7 3.5 3.5 0 0 0 0 7M46.5 46a3.5 3.5 0 1 0 0-7 3.5 3.5 0 0 0 0 7M58.5 46a3.5 3.5 0 1 0 0-7 3.5 3.5 0 0 0 0 7M69.5 46a3.5 3.5 0 1 0 0-7 3.5 3.5 0 0 0 0 7M35.5 57a3.5 3.5 0 1 0 0-7 3.5 3.5 0 0 0 0 7M46.5 57a3.5 3.5 0 1 0 0-7 3.5 3.5 0 0 0 0 7M35.5 68a3.5 3.5 0 1 0 0-7 3.5 3.5 0 0 0 0 7M46.5 68a3.5 3.5 0 1 0 0-7 3.5 3.5 0 0 0 0 7"/></svg>