<svg xmlns="http://www.w3.org/2000/svg" fill="none" viewBox="0 0 34 34"><g stroke="var(--icon-stroke-color)" stroke-width="1.5"><path d="M16.74.75c8.83 0 15.988 7.159 15.988 15.99 0 8.83-7.158 15.988-15.989 15.988C7.91 32.728.75 25.57.75 16.74.75 7.91 7.909.75 16.74.75Z"/><path fill="none" stroke="currentColor" stroke-linecap="round" stroke-linejoin="round" d="m15.889 20.905 3.166 3.6c1.172 1.333 1.759 2 2.373 1.837.613-.162.824-1.04 1.245-2.794l2.334-9.734c.65-2.703.974-4.054.253-4.721-.72-.667-1.97-.17-4.468.82L9.205 14.516c-1.998.794-2.997 1.19-3.06 1.872a.976.976 0 0 0 0 .209c.06.682 1.058 1.082 3.054 1.882.903.362 1.355.544 1.68.89.036.04.071.08.105.121.299.371.426.86.68 1.832l.478 1.823c.247.948.371 1.422.696 1.487.326.064.608-.328 1.173-1.114l1.878-2.613Zm0 0-.31-.322c-.353-.37-.53-.553-.53-.781 0-.229.176-.413.53-.781l3.49-3.637"/></g></svg>