<svg xmlns="http://www.w3.org/2000/svg" fill="none" viewBox="0 0 34 34"><g stroke="var(--icon-stroke-color)" stroke-width="1.5"><path d="M16.74.75c8.83 0 15.988 7.159 15.988 15.99 0 8.83-7.158 15.988-15.989 15.988C7.91 32.728.75 25.57.75 16.74.75 7.91 7.909.75 16.74.75Z"/><path fill="none" stroke="currentColor" stroke-linecap="round" stroke-linejoin="round" d="M7 11c.214 2.984 1.188 5.822 2.794 8.142C11.4 21.462 13.564 23.155 16 24V11m9 0c-1.2 3.095-3.6 5.262-7.2 6.5m0 0c3.6 1.238 6 3.405 7.2 6.5m-7.2-6.5H16"/></g></svg>