<svg xmlns="http://www.w3.org/2000/svg" fill="none" viewBox="0 0 34 34"><g stroke="var(--icon-stroke-color)" stroke-width="1.5"><path d="M16.74.75c8.83 0 15.988 7.159 15.988 15.99 0 8.83-7.158 15.988-15.989 15.988C7.91 32.728.75 25.57.75 16.74.75 7.91 7.909.75 16.74.75Z"/><path fill="none" stroke="currentColor" stroke-linecap="round" stroke-linejoin="round" d="M19.42 20.04c-2.34 2.46-8.305-3.451-5.958-5.922 1.434-1.509-.185-3.232-1.082-4.5-1.682-2.379-5.375.905-5.263 2.993.354 6.588 7.48 14.395 14.38 13.713 2.159-.213 4.639-4.111 2.163-5.536-1.238-.713-2.938-2.12-4.24-.749m-1.563-11.25a6.835 6.835 0 0 1 6.836 6.835m-6.836-2.93a2.93 2.93 0 0 1 2.93 2.93"/></g></svg>