<svg xmlns="http://www.w3.org/2000/svg" viewBox="0 0 54 54"><circle cx="26.977" cy="27.132" r="25.829" fill="var(--icon-background-color)" stroke="var(--icon-stroke-color)" stroke-width="1.845"/><path fill="#fff" d="M6.433 33.824V31.86l4.743-4.346c.642-.592 1.115-1.134 1.417-1.625.302-.504.454-.989.454-1.455a1.56 1.56 0 0 0-.246-.87 1.566 1.566 0 0 0-.7-.604 2.293 2.293 0 0 0-1.039-.227c-.528 0-1.026.152-1.492.454-.466.29-.914.737-1.342 1.341l-1.757-1.549c.617-.895 1.304-1.55 2.06-1.965.755-.429 1.624-.643 2.607-.643.882 0 1.657.164 2.324.492a3.632 3.632 0 0 1 1.55 1.398c.378.592.567 1.272.567 2.04a4.86 4.86 0 0 1-.662 2.495c-.428.756-1.14 1.575-2.135 2.456L9.4 32.237l-.473-.7 3.647-.037h3.364v2.324H6.433Zm17.353 0v-3.722l.076-.303v-2.72l.038-4.214.963.094-2.985 3.685-2.835 3.458-.415-.926h5.97l.549-.038h2.645v2.249H16.87v-2.154l7.03-8.636h2.324v13.227h-2.438Zm5.134.888 5.915-14.87h2.097l-5.914 14.87H28.92Zm10.272-.888 5.196-11.923.775 1.04h-7.275v-2.344h8.938v1.927l-4.913 11.3h-2.721Z"/></svg>