<svg xmlns="http://www.w3.org/2000/svg" fill="none" viewBox="0 0 34 34"><g stroke="var(--icon-stroke-color)" stroke-width="1.5"><path d="M16.74.75c8.83 0 15.988 7.159 15.988 15.99 0 8.83-7.158 15.988-15.989 15.988C7.91 32.728.75 25.57.75 16.74.75 7.91 7.909.75 16.74.75Z"/><path fill="none" stroke="currentColor" stroke-linecap="round" stroke-linejoin="round" d="m9 11 6.108 4.612.002.002c.678.497 1.017.746 1.389.842a2 2 0 0 0 1.002 0c.372-.096.712-.345 1.392-.844 0 0 3.917-3.006 6.107-4.612M8 20.8v-7.6c0-1.12 0-1.68.218-2.108.192-.377.497-.682.874-.874C9.52 10 10.08 10 11.2 10h11.6c1.12 0 1.68 0 2.107.218.377.192.683.497.875.874.218.427.218.987.218 2.105v7.607c0 1.118 0 1.676-.218 2.104a2 2 0 0 1-.875.874c-.427.218-.986.218-2.104.218H11.197c-1.118 0-1.678 0-2.105-.218a2 2 0 0 1-.874-.874C8 22.48 8 21.92 8 20.8Z"/></g></svg>