<svg xmlns="http://www.w3.org/2000/svg" fill="none" viewBox="0 0 243 245"><g style="mix-blend-mode:multiply"><path fill="#18222C" d="m219.046 212 7.879-12.017-7.263-11.225h6.427l5.546 8.804h-1.408l5.458-8.804h6.383l-7.307 11.225L242.684 212h-6.559l-6.119-9.42 1.453-.044-6.031 9.464h-6.382Zm-11.433.615c-2.055 0-3.859-.293-5.415-.88-1.555-.587-2.861-1.409-3.917-2.465-1.027-1.086-1.805-2.377-2.333-3.874-.499-1.496-.749-3.155-.749-4.974v-.264c0-1.761.25-3.375.749-4.842.528-1.468 1.291-2.729 2.289-3.786 1.027-1.056 2.274-1.878 3.741-2.465 1.497-.616 3.214-.924 5.15-.924 1.732 0 3.302.264 4.711.792 1.438.528 2.67 1.277 3.697 2.245 1.027.968 1.82 2.157 2.377 3.566.558 1.379.837 2.949.837 4.71v2.112h-19.017v-3.257h13.162v-.22c0-.822-.147-1.555-.44-2.201a4.648 4.648 0 0 0-1.145-1.717 4.991 4.991 0 0 0-1.804-1.144c-.705-.264-1.482-.396-2.333-.396-1.057 0-1.967.176-2.73.528a5.062 5.062 0 0 0-1.848 1.364c-.47.558-.822 1.233-1.057 2.025a8.336 8.336 0 0 0-.352 2.465v2.201c0 .91.117 1.79.352 2.641.264.822.66 1.556 1.189 2.201a5.973 5.973 0 0 0 1.98 1.497c.822.382 1.805.572 2.95.572.792 0 1.496-.088 2.113-.264.645-.176 1.188-.411 1.628-.704.441-.323.778-.675 1.013-1.057a2.41 2.41 0 0 0 .44-1.232l.044-.22h5.458v.308a7.07 7.07 0 0 1-.836 2.949c-.499.91-1.203 1.717-2.113 2.421-.88.705-1.981 1.262-3.301 1.673-1.292.411-2.788.616-4.49.616Z"/><path fill="#18222C" d="M182.918 212.001v-25.355H172.75v-5.458h26.719v5.458h-10.212v25.355h-6.339Z"/><path fill="#18222C" d="M160.466 212v-18.312h-7.923v-4.93h21.701v4.93h-7.879V212h-5.899Zm-19.489.615c-2.054 0-3.859-.293-5.414-.88-1.556-.587-2.862-1.409-3.918-2.465-1.027-1.086-1.805-2.377-2.333-3.874-.499-1.496-.749-3.155-.749-4.974v-.264c0-1.761.25-3.375.749-4.842.528-1.468 1.291-2.729 2.289-3.786 1.027-1.056 2.274-1.878 3.741-2.465 1.497-.616 3.214-.924 5.151-.924 1.731 0 3.301.264 4.71.792 1.438.528 2.67 1.277 3.697 2.245 1.027.968 1.82 2.157 2.377 3.566.558 1.379.837 2.949.837 4.71v2.112h-19.017v-3.257h13.162v-.22c0-.822-.147-1.555-.44-2.201a4.658 4.658 0 0 0-1.144-1.717 4.995 4.995 0 0 0-1.805-1.144c-.705-.264-1.482-.396-2.333-.396-1.057 0-1.966.176-2.729.528a5.065 5.065 0 0 0-1.849 1.364c-.47.558-.822 1.233-1.057 2.025a8.336 8.336 0 0 0-.352 2.465v2.201c0 .91.117 1.79.352 2.641a6.652 6.652 0 0 0 1.189 2.201 5.967 5.967 0 0 0 1.981 1.497c.821.382 1.804.572 2.949.572.792 0 1.497-.088 2.113-.264.645-.176 1.188-.411 1.629-.704.44-.323.777-.675 1.012-1.057a2.41 2.41 0 0 0 .44-1.232l.044-.22h5.459v.308a7.086 7.086 0 0 1-.837 2.949c-.499.91-1.203 1.717-2.113 2.421-.88.705-1.981 1.262-3.301 1.673-1.291.411-2.788.616-4.49.616Zm-41.595-.614v-30.813h15.011c1.497 0 2.861.146 4.094.44 1.232.293 2.289.748 3.169 1.364a5.777 5.777 0 0 1 2.025 2.333c.47.969.704 2.128.704 3.478v.22c0 .88-.132 1.687-.396 2.421a5.81 5.81 0 0 1-1.1 1.937 6.933 6.933 0 0 1-1.717 1.452 7.873 7.873 0 0 1-2.245.837v.132c1.115.147 2.098.44 2.949.88.851.411 1.556.939 2.113 1.585a6.368 6.368 0 0 1 1.277 2.157c.293.822.44 1.702.44 2.641v.264c0 1.497-.279 2.788-.836 3.874a7.341 7.341 0 0 1-2.289 2.729c-.998.704-2.216 1.233-3.654 1.585-1.438.323-3.052.484-4.842.484H99.382Zm6.295-5.062h7.175c.939 0 1.791-.059 2.554-.176.763-.118 1.423-.323 1.98-.617a3.25 3.25 0 0 0 1.277-1.32c.323-.558.484-1.262.484-2.113v-.264c0-.91-.161-1.644-.484-2.201a2.982 2.982 0 0 0-1.277-1.277c-.557-.293-1.232-.499-2.025-.616a16.6 16.6 0 0 0-2.509-.176h-7.175v8.76Zm0-12.854h6.867c.851 0 1.614-.059 2.289-.176.675-.147 1.247-.367 1.717-.66a3.41 3.41 0 0 0 1.1-1.233c.265-.499.397-1.115.397-1.849v-.264c0-.704-.132-1.291-.397-1.76a2.538 2.538 0 0 0-1.056-1.101c-.44-.293-.998-.499-1.673-.616a12.322 12.322 0 0 0-2.201-.176h-7.043v7.835Z"/><path fill="#8965FD" d="M59.255 211.999v-23.506h7.924v8.188h4.578v6.383h-4.578v8.935h-7.924Zm22.846.661c-2.054 0-3.873-.294-5.458-.881-1.555-.616-2.861-1.452-3.918-2.509-1.027-1.086-1.804-2.377-2.333-3.873-.528-1.526-.792-3.199-.792-5.019v-.264c0-1.819.264-3.477.792-4.974.529-1.497 1.292-2.788 2.29-3.874 1.026-1.085 2.303-1.922 3.829-2.509 1.555-.587 3.346-.88 5.37-.88 2.113 0 3.977.308 5.59.924 1.615.617 2.95 1.468 4.007 2.553 1.085 1.057 1.907 2.348 2.465 3.874.557 1.497.836 3.126.836 4.886v.264c0 1.761-.264 3.39-.792 4.887a10.136 10.136 0 0 1-2.377 3.917c-1.057 1.086-2.377 1.937-3.962 2.553-1.555.617-3.404.925-5.546.925Zm.044-6.251c.646 0 1.233-.117 1.761-.352a3.799 3.799 0 0 0 1.409-1.145c.41-.528.719-1.159.924-1.892.206-.763.308-1.658.308-2.686v-.264c0-.939-.102-1.775-.308-2.509-.205-.733-.513-1.364-.924-1.893a3.648 3.648 0 0 0-1.409-1.188c-.557-.264-1.203-.396-1.937-.396-.733 0-1.393.132-1.98.396a4.004 4.004 0 0 0-1.453 1.188c-.382.499-.675 1.116-.88 1.849-.206.734-.309 1.585-.309 2.553v.264c0 .998.103 1.879.309 2.642.234.763.557 1.393.968 1.892.41.499.91.881 1.497 1.145a5.089 5.089 0 0 0 2.025.396ZM33.602 212v-23.506h7.924v6.559h4.534c2.054 0 3.741.235 5.062.704 1.32.47 2.362 1.086 3.125 1.849a6.144 6.144 0 0 1 1.585 2.641c.323.998.484 2.04.484 3.126v.22a9.03 9.03 0 0 1-.572 3.169 7.528 7.528 0 0 1-1.76 2.729c-.793.763-1.82 1.38-3.082 1.849-1.233.44-2.715.66-4.446.66H33.602Zm7.704-5.678h3.345c.675 0 1.233-.044 1.673-.132.47-.118.85-.294 1.144-.528.294-.235.5-.514.617-.837.146-.352.22-.763.22-1.232v-.264c0-.411-.074-.778-.22-1.101a1.627 1.627 0 0 0-.617-.792c-.264-.235-.63-.411-1.1-.528-.44-.118-.969-.177-1.585-.177h-3.477v5.591ZM.005 212.001v-30.813H8.5v11.444h11.71v-11.444h8.495v30.813H20.21v-12.193H8.5v12.193H.005Z"/><path fill="#18222C" d="m232.928 241.001 3.033-4.622 1.631.021-2.907 4.601h-1.757Zm7.216 0v-3.953h-3.117a6.586 6.586 0 0 1-1.505-.167 3.734 3.734 0 0 1-1.213-.565 2.986 2.986 0 0 1-.816-1.025c-.195-.432-.293-.962-.293-1.589v-.126c0-.572.091-1.067.272-1.485.181-.432.439-.795.774-1.088a3.187 3.187 0 0 1 1.213-.648 5.438 5.438 0 0 1 1.631-.23h4.476v10.876h-1.422Zm-2.949-5.292h2.949v-4.245h-2.803a5.23 5.23 0 0 0-1.108.104c-.321.056-.6.167-.837.335a1.546 1.546 0 0 0-.523.627c-.111.265-.167.607-.167 1.025v.126c0 .376.056.697.167.962.112.251.272.46.481.627.209.154.467.265.774.335.321.07.676.104 1.067.104Zm-14.092 5.292v-10.876h1.422v3.953h2.886c.586 0 1.13.056 1.632.167.502.098.927.272 1.276.523.362.251.641.593.836 1.025.209.432.314.976.314 1.631v.126c0 .558-.091 1.053-.272 1.485a2.716 2.716 0 0 1-.753 1.087 3.259 3.259 0 0 1-1.15.67 4.976 4.976 0 0 1-1.485.209h-4.706Zm1.422-1.339h2.803c.418 0 .787-.028 1.108-.083a2.29 2.29 0 0 0 .816-.335c.237-.167.411-.383.523-.648.125-.265.188-.607.188-1.025v-.126c0-.404-.056-.732-.167-.983a1.46 1.46 0 0 0-.481-.627 1.847 1.847 0 0 0-.774-.314 4.84 4.84 0 0 0-1.067-.104h-2.949v4.245Zm-12.411 1.339v-10.876h4.643c.433 0 .851.042 1.255.125.405.084.76.231 1.067.44.307.209.551.488.732.836.181.335.272.753.272 1.255v.126c0 .306-.042.592-.126.857a2.203 2.203 0 0 1-.355.67 2.284 2.284 0 0 1-.586.481 3.392 3.392 0 0 1-.795.334v.042c.377.098.705.223.983.377.293.139.53.32.712.543.195.209.334.454.418.732.097.265.146.572.146.921v.125c0 .6-.104 1.095-.313 1.485-.21.391-.489.704-.837.941a3.127 3.127 0 0 1-1.192.46c-.46.084-.941.126-1.443.126h-4.581Zm1.422-1.255h2.887c.348 0 .676-.021.983-.063a2.24 2.24 0 0 0 .815-.251 1.4 1.4 0 0 0 .565-.544c.14-.237.209-.55.209-.941v-.125c0-.405-.069-.725-.209-.962a1.524 1.524 0 0 0-.565-.586 2.001 2.001 0 0 0-.836-.293 5.969 5.969 0 0 0-1.025-.083h-2.824v3.848Zm0-5.02h2.782c.321 0 .621-.021.899-.062.279-.042.523-.119.732-.23.21-.126.37-.3.482-.523.125-.223.188-.509.188-.858v-.125c0-.321-.063-.579-.188-.774a1.28 1.28 0 0 0-.502-.481 1.996 1.996 0 0 0-.691-.23 5.193 5.193 0 0 0-.815-.063h-2.887v3.346Zm-9.081 6.525c-.809 0-1.527-.133-2.155-.397a4.576 4.576 0 0 1-1.589-1.151 5.305 5.305 0 0 1-.962-1.778 7.984 7.984 0 0 1-.314-2.3v-.126c0-.822.105-1.575.314-2.259.223-.697.543-1.289.962-1.777a4.505 4.505 0 0 1 1.568-1.172c.628-.279 1.346-.418 2.155-.418.808 0 1.52.139 2.133.418.627.279 1.15.67 1.569 1.172.432.488.753 1.08.962 1.777.223.684.334 1.437.334 2.259v.126c0 .808-.097 1.561-.292 2.259a4.978 4.978 0 0 1-.9 1.777c-.404.502-.92.893-1.547 1.172-.628.279-1.374.418-2.238.418Zm.062-1.255c.586 0 1.088-.105 1.506-.314.432-.223.788-.53 1.067-.92a4.17 4.17 0 0 0 .627-1.38c.14-.544.21-1.137.21-1.778v-.126c0-.585-.07-1.143-.21-1.673a3.929 3.929 0 0 0-.648-1.38 2.833 2.833 0 0 0-1.088-.941c-.432-.238-.948-.356-1.547-.356-.628 0-1.165.118-1.611.356a3.132 3.132 0 0 0-1.087.92 3.89 3.89 0 0 0-.607 1.38 7.365 7.365 0 0 0-.188 1.694v.126c0 .613.07 1.192.209 1.736.139.53.356.997.648 1.401.293.391.663.697 1.109.92.446.223.983.335 1.61.335Zm-16.77 4.769v-14.641h1.422v1.757h.021c.181-.363.398-.669.649-.92s.529-.454.836-.607a3.72 3.72 0 0 1 1.025-.355 5.184 5.184 0 0 1 1.171-.126c.795 0 1.478.146 2.05.439.586.279 1.06.67 1.422 1.172a4.83 4.83 0 0 1 .816 1.756c.181.67.272 1.388.272 2.155v.125c0 .865-.098 1.652-.293 2.364-.195.697-.488 1.296-.878 1.798a3.881 3.881 0 0 1-1.423 1.172c-.557.264-1.199.397-1.924.397-.404 0-.795-.035-1.171-.105a4.188 4.188 0 0 1-1.025-.334 3.89 3.89 0 0 1-.857-.586 3.814 3.814 0 0 1-.67-.857h-.021v5.396h-1.422Zm4.936-4.769c.628 0 1.15-.132 1.569-.397a3.074 3.074 0 0 0 1.004-1.025 4.47 4.47 0 0 0 .523-1.443c.097-.53.146-1.053.146-1.569v-.125a7.64 7.64 0 0 0-.167-1.611 3.84 3.84 0 0 0-.565-1.359 2.891 2.891 0 0 0-1.046-.963c-.432-.251-.969-.376-1.61-.376-.656 0-1.199.132-1.632.397a3.12 3.12 0 0 0-1.045 1.046 4.546 4.546 0 0 0-.544 1.443 9.305 9.305 0 0 0-.147 1.653v.125c0 .558.063 1.095.189 1.611.125.502.327.948.606 1.338.279.391.641.697 1.088.92.446.223.99.335 1.631.335Zm-12.596 1.255c-.808 0-1.526-.133-2.154-.397a4.576 4.576 0 0 1-1.589-1.151 5.305 5.305 0 0 1-.962-1.778 7.95 7.95 0 0 1-.314-2.3v-.126c0-.822.104-1.575.314-2.259.223-.697.543-1.289.962-1.777a4.505 4.505 0 0 1 1.568-1.172c.628-.279 1.346-.418 2.155-.418.808 0 1.519.139 2.133.418.627.279 1.15.67 1.569 1.172.432.488.752 1.08.962 1.777.223.684.334 1.437.334 2.259v.126c0 .808-.097 1.561-.293 2.259a4.976 4.976 0 0 1-.899 1.777c-.404.502-.92.893-1.548 1.172-.627.279-1.373.418-2.238.418Zm.063-1.255c.586 0 1.088-.105 1.506-.314.432-.223.788-.53 1.067-.92a4.17 4.17 0 0 0 .627-1.38c.14-.544.209-1.137.209-1.778v-.126c0-.585-.069-1.143-.209-1.673a3.929 3.929 0 0 0-.648-1.38 2.84 2.84 0 0 0-1.088-.941c-.432-.238-.948-.356-1.547-.356-.628 0-1.165.118-1.611.356a3.145 3.145 0 0 0-1.088.92c-.278.39-.481.85-.606 1.38a7.31 7.31 0 0 0-.188 1.694v.126c0 .613.069 1.192.209 1.736.139.53.355.997.648 1.401.293.391.663.697 1.109.92.446.223.983.335 1.61.335Zm-17.726 3.724v-4.058h1.15c.362-.683.648-1.31.857-1.882a9.98 9.98 0 0 0 .461-1.799 14.96 14.96 0 0 0 .209-2.029c.028-.739.042-1.61.042-2.614v-1.213h6.985v9.537h1.673v4.058h-1.338v-2.719h-8.701v2.719h-1.338Zm2.614-4.058h5.668v-8.198h-4.225v.732c0 .864-.028 1.652-.084 2.363a15.587 15.587 0 0 1-.23 1.945 11.21 11.21 0 0 1-.439 1.673 8.407 8.407 0 0 1-.69 1.485Zm-8.129 1.589a8.565 8.565 0 0 1-1.715-.167 4.035 4.035 0 0 1-1.443-.586 3.155 3.155 0 0 1-.983-1.109c-.237-.474-.356-1.059-.356-1.756v-.126h1.381v.126c0 .474.084.864.251 1.171.167.307.39.551.669.732.293.181.628.307 1.004.376a8.11 8.11 0 0 0 2.322 0 2.74 2.74 0 0 0 .899-.334c.251-.168.446-.384.586-.649.153-.265.23-.592.23-.983v-.125c0-.405-.07-.732-.209-.983a1.364 1.364 0 0 0-.544-.607 2.022 2.022 0 0 0-.816-.272 5.696 5.696 0 0 0-1.004-.083h-1.673v-1.172h1.485c.307 0 .599-.02.878-.062.293-.042.551-.119.774-.23.237-.126.425-.3.565-.523.139-.223.209-.509.209-.858v-.125c0-.349-.07-.635-.209-.858a1.42 1.42 0 0 0-.565-.544 2.466 2.466 0 0 0-.836-.292 5.48 5.48 0 0 0-.983-.084c-.349 0-.691.028-1.025.084a2.352 2.352 0 0 0-.9.292c-.251.14-.453.342-.606.607-.154.265-.23.607-.23 1.025v.125h-1.381v-.125c0-.614.119-1.123.356-1.527.251-.418.572-.753.962-1.004a4.074 4.074 0 0 1 1.36-.565 7.523 7.523 0 0 1 1.589-.167 6.4 6.4 0 0 1 1.464.167c.474.112.893.286 1.255.523.363.223.655.523.879.9.223.362.334.808.334 1.338v.126c0 .613-.167 1.122-.502 1.526-.321.405-.774.663-1.359.774v.042c.683.14 1.22.425 1.61.858.405.432.607.99.607 1.673v.125c0 .642-.119 1.179-.356 1.611a2.77 2.77 0 0 1-.941 1.025c-.39.251-.851.425-1.38.523a7.849 7.849 0 0 1-1.653.167Zm-20.735-.25v-10.876h1.422v9.537l-.356-.083 6.024-9.454h1.611v10.876h-1.423v-9.517l.356.105-6.003 9.412h-1.631Zm-12.051 0v-10.876h1.422v9.537l-.355-.083 6.023-9.454h1.611v10.876h-1.422v-9.517l.355.105-6.003 9.412h-1.631Zm-12.357 3.764v-14.641h1.422v1.757h.021c.181-.363.397-.669.648-.92s.53-.454.837-.607a3.708 3.708 0 0 1 1.025-.355 5.178 5.178 0 0 1 1.171-.126c.795 0 1.478.146 2.05.439.585.279 1.059.67 1.422 1.172.376.501.648 1.087.816 1.756.181.67.272 1.388.272 2.155v.125c0 .865-.098 1.652-.293 2.364-.195.697-.488 1.296-.879 1.798a3.87 3.87 0 0 1-1.422 1.172c-.558.264-1.199.397-1.924.397-.404 0-.795-.035-1.171-.105a4.174 4.174 0 0 1-1.025-.334 3.919 3.919 0 0 1-.858-.586 3.811 3.811 0 0 1-.669-.857h-.021v5.396h-1.422Zm4.936-4.769c.627 0 1.15-.132 1.568-.397a3.064 3.064 0 0 0 1.004-1.025c.251-.432.426-.914.523-1.443.098-.53.147-1.053.147-1.569v-.125c0-.558-.056-1.095-.168-1.611a3.82 3.82 0 0 0-.564-1.359 2.891 2.891 0 0 0-1.046-.963c-.432-.251-.969-.376-1.611-.376-.655 0-1.199.132-1.631.397a3.133 3.133 0 0 0-1.046 1.046 4.57 4.57 0 0 0-.544 1.443 9.399 9.399 0 0 0-.146 1.653v.125c0 .558.063 1.095.188 1.611.126.502.328.948.607 1.338.279.391.641.697 1.087.92.447.223.99.335 1.632.335Zm-12.596 1.255c-.808 0-1.527-.133-2.154-.397a4.59 4.59 0 0 1-1.59-1.151 5.326 5.326 0 0 1-.962-1.778 7.981 7.981 0 0 1-.313-2.3v-.126c0-.822.104-1.575.313-2.259.223-.697.544-1.289.962-1.777a4.518 4.518 0 0 1 1.569-1.172c.628-.279 1.346-.418 2.154-.418.809 0 1.52.139 2.134.418.627.279 1.15.67 1.568 1.172.433.488.753 1.08.962 1.777.224.684.335 1.437.335 2.259v.126c0 .808-.098 1.561-.293 2.259a4.976 4.976 0 0 1-.899 1.777c-.404.502-.92.893-1.548 1.172-.627.279-1.373.418-2.238.418Zm.063-1.255c.586 0 1.088-.105 1.506-.314.432-.223.788-.53 1.067-.92a4.19 4.19 0 0 0 .627-1.38 7.172 7.172 0 0 0 .209-1.778v-.126c0-.585-.07-1.143-.209-1.673a3.947 3.947 0 0 0-.648-1.38 2.84 2.84 0 0 0-1.088-.941c-.432-.238-.948-.356-1.548-.356-.627 0-1.164.118-1.61.356a3.145 3.145 0 0 0-1.088.92 3.87 3.87 0 0 0-.606 1.38 7.31 7.31 0 0 0-.188 1.694v.126c0 .613.069 1.192.209 1.736.139.53.355.997.648 1.401.293.391.662.697 1.109.92.446.223.983.335 1.61.335Zm-11.076 1.005v-9.537h-3.681v-1.339h8.784v1.339h-3.68v9.537h-1.423Zm-9.207.25c-.879 0-1.638-.133-2.28-.397a4.263 4.263 0 0 1-1.569-1.172 4.96 4.96 0 0 1-.899-1.798 8.613 8.613 0 0 1-.293-2.322v-.125c0-.809.098-1.555.293-2.238.21-.684.516-1.269.92-1.757a4.416 4.416 0 0 1 1.548-1.151c.628-.279 1.36-.418 2.196-.418.711 0 1.339.105 1.883.314a3.797 3.797 0 0 1 1.401.836c.376.349.662.76.858 1.234.195.474.292.983.292 1.527v.126h-1.38v-.126c0-.362-.077-.704-.23-1.025a2.394 2.394 0 0 0-.607-.836 2.968 2.968 0 0 0-.962-.565 3.305 3.305 0 0 0-1.255-.23c-.627 0-1.164.112-1.61.335a2.951 2.951 0 0 0-1.067.92 3.9 3.9 0 0 0-.585 1.359 6.978 6.978 0 0 0-.189 1.653v.125c0 .572.063 1.13.189 1.673.125.53.327 1.004.606 1.423.279.418.641.753 1.088 1.004.46.251 1.025.376 1.694.376.446 0 .85-.063 1.213-.188a2.99 2.99 0 0 0 .962-.565 2.81 2.81 0 0 0 .627-.878c.154-.349.23-.732.23-1.151v-.125h1.38v.125c0 .628-.11 1.192-.334 1.694a3.466 3.466 0 0 1-.9 1.276c-.39.349-.864.614-1.421.795a5.668 5.668 0 0 1-1.8.272Zm-16.422-.25v-10.876h1.422v9.537l-.355-.083 6.023-9.454h1.61v10.876h-1.422v-9.517l.356.105-6.003 9.412h-1.631Zm-12.253.25c-.878 0-1.638-.133-2.28-.397a4.415 4.415 0 0 1-1.61-1.172 5.028 5.028 0 0 1-.941-1.798c-.196-.698-.293-1.471-.293-2.322v-.125c0-.809.097-1.555.293-2.238a5.017 5.017 0 0 1 .92-1.757 4.416 4.416 0 0 1 1.548-1.151c.627-.279 1.36-.418 2.196-.418.71 0 1.36.126 1.945.377a4.12 4.12 0 0 1 1.485 1.003c.418.433.739.949.962 1.548.223.6.335 1.262.335 1.987v1.171h-8.743v-1.255h7.279v-.125c0-.544-.084-1.025-.251-1.443a3.098 3.098 0 0 0-.69-1.088 2.919 2.919 0 0 0-1.046-.669 3.21 3.21 0 0 0-1.276-.251c-.628 0-1.164.105-1.61.314a2.937 2.937 0 0 0-1.067.857c-.265.363-.46.788-.586 1.276a6.376 6.376 0 0 0-.188 1.59v.522c0 .558.063 1.102.188 1.632.14.516.349.976.627 1.38.293.391.67.704 1.13.941.46.238 1.025.356 1.694.356.488 0 .913-.056 1.276-.167.376-.126.69-.286.941-.481.251-.196.44-.412.565-.649a1.67 1.67 0 0 0 .188-.753v-.125h1.38v.125c0 .474-.104.914-.313 1.318-.21.404-.51.753-.9 1.046-.376.293-.836.523-1.38.69a5.898 5.898 0 0 1-1.778.251Zm-9.233-.25v-10.876H47.4v10.876h-1.422Zm-9.621 0v-10.876h1.422v3.953h2.677c.586 0 1.13.056 1.631.167.502.098.928.272 1.276.523.363.251.642.593.837 1.025.209.432.313.976.313 1.631v.126c0 .558-.09 1.053-.271 1.485a2.723 2.723 0 0 1-.753 1.087 3.259 3.259 0 0 1-1.15.67 4.977 4.977 0 0 1-1.486.209h-4.496Zm1.422-1.339h2.593c.419 0 .788-.028 1.109-.083.32-.07.592-.182.816-.335a1.49 1.49 0 0 0 .522-.648c.126-.265.189-.607.189-1.025v-.126c0-.404-.056-.732-.168-.983a1.456 1.456 0 0 0-.48-.627 1.843 1.843 0 0 0-.775-.314 4.834 4.834 0 0 0-1.066-.104h-2.74v4.245Zm-12.411 1.339v-10.876h4.643c.432 0 .85.042 1.255.125.404.084.76.231 1.067.44.306.209.55.488.732.836.18.335.272.753.272 1.255v.126c0 .306-.042.592-.126.857a2.211 2.211 0 0 1-.355.67 2.27 2.27 0 0 1-.586.481 3.393 3.393 0 0 1-.795.334v.042c.377.098.704.223.983.377.293.139.53.32.711.543.195.209.335.454.419.732.097.265.146.572.146.921v.125c0 .6-.105 1.095-.314 1.485a2.6 2.6 0 0 1-.836.941 3.125 3.125 0 0 1-1.193.46c-.46.084-.94.126-1.443.126h-4.58Zm1.422-1.255h2.886c.349 0 .677-.021.983-.063a2.24 2.24 0 0 0 .816-.251c.237-.125.425-.306.565-.544.14-.237.209-.55.209-.941v-.125c0-.405-.07-.725-.21-.962a1.527 1.527 0 0 0-.564-.586 2.001 2.001 0 0 0-.837-.293 5.96 5.96 0 0 0-1.024-.083H26.79v3.848Zm0-5.02h2.782c.32 0 .62-.021.9-.062.278-.042.522-.119.731-.23.21-.126.37-.3.481-.523.126-.223.188-.509.188-.858v-.125c0-.321-.062-.579-.188-.774a1.276 1.276 0 0 0-.502-.481 1.986 1.986 0 0 0-.69-.23 5.202 5.202 0 0 0-.816-.063H26.79v3.346Zm-9.082 6.525c-.808 0-1.527-.133-2.154-.397a4.577 4.577 0 0 1-1.59-1.151 5.32 5.32 0 0 1-.962-1.778 7.981 7.981 0 0 1-.313-2.3v-.126c0-.822.104-1.575.313-2.259.223-.697.544-1.289.962-1.777a4.506 4.506 0 0 1 1.57-1.172c.626-.279 1.345-.418 2.153-.418.81 0 1.52.139 2.134.418.627.279 1.15.67 1.568 1.172.433.488.753 1.08.962 1.777.224.684.335 1.437.335 2.259v.126a8.36 8.36 0 0 1-.293 2.259 4.974 4.974 0 0 1-.9 1.777c-.403.502-.92.893-1.547 1.172-.627.279-1.373.418-2.238.418Zm.063-1.255c.586 0 1.088-.105 1.506-.314a2.96 2.96 0 0 0 1.067-.92 4.19 4.19 0 0 0 .627-1.38c.14-.544.21-1.137.21-1.778v-.126a6.55 6.55 0 0 0-.21-1.673 3.94 3.94 0 0 0-.648-1.38 2.836 2.836 0 0 0-1.088-.941c-.432-.238-.948-.356-1.548-.356-.627 0-1.164.118-1.61.356a3.139 3.139 0 0 0-1.088.92c-.279.39-.48.85-.606 1.38a7.337 7.337 0 0 0-.188 1.694v.126c0 .613.07 1.192.209 1.736.14.53.355.997.648 1.401.293.391.662.697 1.108.92.447.223.983.335 1.611.335ZM1.43 241.001v-10.876h1.422v4.497h5.73v-4.497h1.423v10.876H8.583v-5.041H2.852v5.041H1.43Z"/><path fill="#8965FD" d="M42.57 156.419V0h54.44v48.886h47.538V0h54.441v156.419H42.569Z"/><path fill="#fff" d="M99.926 85.096h42.282l9.693 64.301c2.572 17.066-10.643 32.422-27.901 32.422h-5.866c-17.258 0-30.473-15.356-27.9-32.422l9.692-64.301Z"/><path fill="#fff" d="m154.181 93.629-12.36 13.399c-3.256 3.529-9.15 1.226-9.15-3.576v-17.45c0-3.588 3.506-6.13 6.916-5.012l12.36 4.051c3.649 1.196 4.838 5.766 2.234 8.588Zm-66.001 0 12.36 13.399c3.255 3.529 9.15 1.226 9.15-3.576v-17.45c0-3.588-3.506-6.13-6.916-5.012l-12.36 4.051c-3.65 1.196-4.838 5.766-2.234 8.588Z"/><path fill="#18222C" d="M110.685 110.899c1.706 0 3.093-1.322 3.093-2.949 0-1.627-1.387-2.95-3.093-2.95s-3.093 1.323-3.093 2.95c0 1.627 1.387 2.949 3.093 2.949Zm30.773 14.061c-1.409-.8-1.554-.886-2.332.555-.509.944-.872 1.984-1.303 2.939-.722 1.595-1.158 3.072-2.489 4.299-1.533 1.413-3.255 1.616-4.765.283-1.231-1.089-2.54-2.001-4.207-2.465-.9-.25-2.584-.325-3.003-1.168-.235-1.152-.308-2.859 0-4.011.99-1.062 2.416-2.128 3.535-2.992.598-.464.906-1.03.229-1.569-1.499-1.2-2.086-1.392-5.347-1.381-3.261-.011-3.848.187-5.347 1.381-.677.539-.364 1.105.229 1.569 1.119.864 2.545 1.93 3.535 2.992.308 1.152.235 2.859 0 4.011-.419.843-2.103.923-3.003 1.168-1.667.459-2.976 1.376-4.206 2.465-1.505 1.333-3.233 1.125-4.766-.283-1.331-1.227-1.767-2.704-2.489-4.299-.43-.955-.788-1.995-1.303-2.939-.777-1.435-.928-1.355-2.332-.555-.946.539-.957 1.536-.386 2.694.872 1.776 1.532 3.392 2.377 5.403 1.27 3.035 3.742 5.105 7.064 4.486.906-.171 2.025-.576 2.718-.864.023.864.112 1.877.403 2.699 1.024 2.837 2.78 4.891 5.146 5.707a7.004 7.004 0 0 0 2.354.352 7.006 7.006 0 0 0 2.355-.352c2.366-.816 4.122-2.864 5.146-5.707.296-.822.38-1.83.403-2.699.699.288 1.817.693 2.718.864 3.322.619 5.794-1.451 7.064-4.486.839-2.011 1.505-3.627 2.377-5.403.565-1.158.554-2.155-.386-2.694h.011Zm-17.137 16.306c-.66.491-1.505 1.067-2.539.976-1.035.085-1.885-.485-2.54-.976-1.812-1.355-3.104-5.558-1.666-7.148.632-.698 2.002-.858 2.584-.858.039.346 0 .672.016 1.146.017.603.062 1.227.101 1.846.062.896.42 1.291 1.488 1.27h.045c1.068.021 1.426-.374 1.487-1.27.04-.619.084-1.243.101-1.846.017-.474-.022-.8.017-1.146.576 0 1.952.16 2.584.858 1.437 1.59.145 5.798-1.667 7.148h-.011Zm8.558-30.367c1.705 0 3.093-1.322 3.093-2.949 0-1.627-1.388-2.95-3.093-2.95-1.706 0-3.093 1.323-3.093 2.95 0 1.627 1.387 2.949 3.093 2.949Z"/></g></svg>