<svg xmlns="http://www.w3.org/2000/svg" fill="none" viewBox="0 0 243 245">
  <g clip-path="url(#a)">
    <path fill="#8965FD" d="M42.57 156.419V0h54.44v48.886h47.538V0h54.441v156.419H42.569Z"/>
    <path fill="#fff" d="M99.926 85.096h42.282l9.692 64.301c2.573 17.066-10.642 32.422-27.901 32.422h-5.865c-17.259 0-30.474-15.356-27.901-32.422l9.693-64.301Z"/>
    <path fill="#fff" d="m154.182 93.629-12.36 13.399c-3.256 3.529-9.151 1.226-9.151-3.576v-17.45c0-3.588 3.506-6.13 6.916-5.012l12.361 4.051c3.648 1.196 4.837 5.766 2.234 8.588ZM88.18 93.629l12.36 13.399c3.256 3.529 9.15 1.226 9.15-3.576v-17.45c0-3.588-3.506-6.13-6.916-5.012l-12.36 4.051c-3.65 1.196-4.838 5.766-2.234 8.588Z"/>
  </g>
  <path fill="#18222C" d="M110.685 110.899c1.706 0 3.093-1.322 3.093-2.949 0-1.627-1.387-2.95-3.093-2.95s-3.093 1.323-3.093 2.95c0 1.627 1.387 2.949 3.093 2.949ZM141.458 124.96c-1.409-.8-1.555-.886-2.332.555-.509.944-.873 1.984-1.303 2.939-.722 1.595-1.158 3.072-2.489 4.299-1.533 1.413-3.256 1.616-4.766.283-1.23-1.089-2.539-2.001-4.206-2.465-.9-.25-2.584-.325-3.003-1.168-.235-1.152-.308-2.859 0-4.011.99-1.062 2.416-2.128 3.535-2.992.598-.464.906-1.03.229-1.569-1.499-1.2-2.086-1.392-5.347-1.381-3.261-.011-3.848.187-5.347 1.381-.677.539-.364 1.105.229 1.569 1.119.864 2.545 1.93 3.535 2.992.308 1.152.235 2.859 0 4.011-.42.843-2.103.923-3.004 1.168-1.666.459-2.975 1.376-4.206 2.465-1.504 1.333-3.232 1.125-4.765-.283-1.331-1.227-1.767-2.704-2.489-4.299-.431-.955-.789-1.995-1.303-2.939-.778-1.435-.929-1.355-2.333-.555-.945.539-.956 1.536-.385 2.694.872 1.776 1.532 3.392 2.377 5.403 1.269 3.035 3.741 5.105 7.064 4.486.906-.171 2.025-.576 2.718-.864.022.864.112 1.877.403 2.699 1.023 2.837 2.78 4.891 5.146 5.707a7.004 7.004 0 0 0 2.354.352 7.01 7.01 0 0 0 2.355-.352c2.366-.816 4.122-2.864 5.146-5.707.296-.822.38-1.83.402-2.699.7.288 1.818.693 2.719.864 3.322.619 5.794-1.451 7.064-4.486.839-2.011 1.504-3.627 2.377-5.403.565-1.158.554-2.155-.386-2.694h.011Zm-17.137 16.306c-.66.491-1.505 1.067-2.54.976-1.034.085-1.884-.485-2.539-.976-1.812-1.355-3.104-5.558-1.667-7.148.632-.698 2.003-.858 2.584-.858.04.346 0 .672.017 1.146.017.603.062 1.227.101 1.846.061.896.419 1.291 1.488 1.27h.044c1.069.021 1.427-.374 1.488-1.27.039-.619.084-1.243.101-1.846.017-.474-.023-.8.017-1.146.576 0 1.952.16 2.584.858 1.437 1.59.145 5.798-1.667 7.148h-.011ZM132.878 110.899c1.706 0 3.093-1.322 3.093-2.949 0-1.627-1.387-2.95-3.093-2.95s-3.093 1.323-3.093 2.95c0 1.627 1.387 2.949 3.093 2.949ZM219.046 212l7.879-12.017-7.263-11.225h6.427l5.546 8.804h-1.408l5.458-8.804h6.383l-7.307 11.225L242.684 212h-6.559l-6.118-9.42 1.452-.044-6.03 9.464h-6.383ZM207.613 212.615c-2.055 0-3.859-.293-5.415-.88-1.555-.587-2.861-1.409-3.917-2.465-1.028-1.086-1.805-2.377-2.333-3.874-.499-1.496-.749-3.155-.749-4.974v-.264c0-1.761.25-3.375.749-4.842.528-1.468 1.291-2.729 2.289-3.786 1.027-1.056 2.274-1.878 3.741-2.465 1.497-.616 3.214-.924 5.15-.924 1.732 0 3.302.264 4.71.792 1.438.528 2.671 1.277 3.698 2.245 1.027.968 1.82 2.157 2.377 3.566.558 1.379.836 2.949.836 4.71v2.112h-19.016v-3.257h13.162v-.22c0-.822-.147-1.555-.44-2.201a4.648 4.648 0 0 0-1.145-1.717 4.987 4.987 0 0 0-1.805-1.144c-.704-.264-1.482-.396-2.333-.396-1.056 0-1.966.176-2.729.528a5.074 5.074 0 0 0-1.849 1.364c-.469.558-.821 1.233-1.056 2.025a8.336 8.336 0 0 0-.352 2.465v2.201c0 .91.117 1.79.352 2.641.264.822.66 1.556 1.189 2.201a5.973 5.973 0 0 0 1.98 1.497c.822.382 1.805.572 2.95.572.792 0 1.496-.088 2.113-.264.645-.176 1.188-.411 1.628-.704.44-.323.778-.675 1.013-1.057a2.41 2.41 0 0 0 .44-1.232l.044-.22h5.458v.308a7.07 7.07 0 0 1-.836 2.949c-.499.91-1.203 1.717-2.113 2.421-.88.705-1.981 1.262-3.301 1.673-1.292.411-2.788.616-4.49.616Z"/>
  <path fill="#18222C" d="M182.918 212.001v-25.355H172.75v-5.458h26.72v5.458h-10.213v25.355h-6.339Z"/>
  <path fill="#18222C" d="M160.466 212v-18.312h-7.923v-4.93h21.701v4.93h-7.879V212h-5.899ZM140.977 212.615c-2.054 0-3.859-.293-5.414-.88-1.556-.587-2.862-1.409-3.918-2.465-1.027-1.086-1.805-2.377-2.333-3.874-.499-1.496-.749-3.155-.749-4.974v-.264c0-1.761.25-3.375.749-4.842.528-1.468 1.291-2.729 2.289-3.786 1.027-1.056 2.274-1.878 3.741-2.465 1.497-.616 3.214-.924 5.151-.924 1.731 0 3.301.264 4.71.792 1.438.528 2.67 1.277 3.697 2.245 1.027.968 1.82 2.157 2.377 3.566.558 1.379.837 2.949.837 4.71v2.112h-19.017v-3.257h13.162v-.22c0-.822-.147-1.555-.44-2.201a4.658 4.658 0 0 0-1.144-1.717 4.995 4.995 0 0 0-1.805-1.144c-.705-.264-1.482-.396-2.333-.396-1.057 0-1.966.176-2.729.528a5.065 5.065 0 0 0-1.849 1.364c-.47.558-.822 1.233-1.057 2.025a8.336 8.336 0 0 0-.352 2.465v2.201c0 .91.117 1.79.352 2.641a6.652 6.652 0 0 0 1.189 2.201 5.967 5.967 0 0 0 1.981 1.497c.821.382 1.804.572 2.949.572.792 0 1.497-.088 2.113-.264.645-.176 1.188-.411 1.629-.704.44-.323.777-.675 1.012-1.057a2.41 2.41 0 0 0 .44-1.232l.044-.22h5.459v.308a7.086 7.086 0 0 1-.837 2.949c-.499.91-1.203 1.717-2.113 2.421-.88.705-1.981 1.262-3.301 1.673-1.291.411-2.788.616-4.49.616ZM99.383 212.001v-30.813h15.01c1.497 0 2.862.146 4.094.44 1.233.293 2.289.748 3.17 1.364a5.782 5.782 0 0 1 2.024 2.333c.47.969.705 2.128.705 3.478v.22c0 .88-.132 1.687-.396 2.421a5.812 5.812 0 0 1-1.101 1.937 6.915 6.915 0 0 1-1.717 1.452 7.873 7.873 0 0 1-2.245.837v.132c1.115.147 2.099.44 2.95.88.851.411 1.555.939 2.113 1.585a6.365 6.365 0 0 1 1.276 2.157c.294.822.44 1.702.44 2.641v.264c0 1.497-.278 2.788-.836 3.874a7.323 7.323 0 0 1-2.289 2.729c-.998.704-2.216 1.233-3.654 1.585-1.438.323-3.052.484-4.842.484H99.383Zm6.295-5.062h7.175c.939 0 1.79-.059 2.553-.176.763-.118 1.423-.323 1.981-.617a3.248 3.248 0 0 0 1.276-1.32c.323-.558.484-1.262.484-2.113v-.264c0-.91-.161-1.644-.484-2.201a2.98 2.98 0 0 0-1.276-1.277c-.558-.293-1.233-.499-2.025-.616-.763-.117-1.6-.176-2.509-.176h-7.175v8.76Zm0-12.854h6.867c.851 0 1.614-.059 2.289-.176.675-.147 1.247-.367 1.716-.66.47-.323.837-.734 1.101-1.233.264-.499.396-1.115.396-1.849v-.264c0-.704-.132-1.291-.396-1.76a2.546 2.546 0 0 0-1.057-1.101c-.44-.293-.997-.499-1.672-.616a12.337 12.337 0 0 0-2.201-.176h-7.043v7.835Z"/>
  <path fill="#8965FD" d="M59.256 211.999v-23.506h7.923v8.188h4.578v6.383H67.18v8.935h-7.923Zm22.846.661c-2.054 0-3.874-.294-5.459-.881-1.555-.616-2.86-1.452-3.917-2.509-1.027-1.086-1.805-2.377-2.333-3.873-.528-1.526-.793-3.199-.793-5.019v-.264c0-1.819.265-3.477.793-4.974.528-1.497 1.291-2.788 2.289-3.874 1.027-1.085 2.303-1.922 3.83-2.509 1.555-.587 3.345-.88 5.37-.88 2.113 0 3.976.308 5.59.924 1.614.617 2.95 1.468 4.006 2.553 1.086 1.057 1.907 2.348 2.465 3.874.558 1.497.836 3.126.836 4.886v.264c0 1.761-.264 3.39-.792 4.887a10.136 10.136 0 0 1-2.377 3.917c-1.056 1.086-2.377 1.937-3.962 2.553-1.555.617-3.404.925-5.546.925Zm.044-6.251c.645 0 1.232-.117 1.76-.352a3.798 3.798 0 0 0 1.41-1.145c.41-.528.718-1.159.924-1.892.205-.763.308-1.658.308-2.686v-.264c0-.939-.103-1.775-.308-2.509-.206-.733-.514-1.364-.925-1.893a3.648 3.648 0 0 0-1.408-1.188c-.558-.264-1.204-.396-1.937-.396-.734 0-1.394.132-1.981.396a4.002 4.002 0 0 0-1.453 1.188c-.381.499-.675 1.116-.88 1.849-.206.734-.308 1.585-.308 2.553v.264c0 .998.103 1.879.308 2.642.235.763.557 1.393.968 1.892.411.499.91.881 1.497 1.145a5.088 5.088 0 0 0 2.025.396ZM33.602 212v-23.506h7.924v6.559h4.534c2.054 0 3.742.235 5.062.704 1.32.47 2.363 1.086 3.126 1.849a6.142 6.142 0 0 1 1.584 2.641c.323.998.484 2.04.484 3.126v.22a9.03 9.03 0 0 1-.572 3.169 7.527 7.527 0 0 1-1.76 2.729c-.793.763-1.82 1.38-3.082 1.849-1.232.44-2.714.66-4.446.66H33.602Zm7.704-5.678h3.345c.675 0 1.233-.044 1.673-.132.47-.118.851-.294 1.145-.528.293-.235.498-.514.616-.837.147-.352.22-.763.22-1.232v-.264c0-.411-.073-.778-.22-1.101a1.627 1.627 0 0 0-.616-.792c-.264-.235-.631-.411-1.1-.528-.441-.118-.97-.177-1.586-.177h-3.477v5.591ZM.005 212.001v-30.813H8.5v11.444H20.21v-11.444h8.495v30.813H20.21v-12.193H8.5v12.193H.006Z"/>
  <path fill="#18222C" visibility="var(--path-slogan-visibility, visible)" d="m232.428 241.001 3.032-4.622 1.632.021-2.907 4.601h-1.757Zm7.215 0v-3.953h-3.116c-.53 0-1.032-.056-1.506-.167a3.754 3.754 0 0 1-1.213-.565 2.998 2.998 0 0 1-.816-1.025c-.195-.432-.292-.962-.292-1.589v-.126c0-.572.09-1.067.272-1.485.181-.432.439-.795.773-1.088a3.194 3.194 0 0 1 1.213-.648 5.445 5.445 0 0 1 1.632-.23h4.476v10.876h-1.423Zm-2.949-5.292h2.949v-4.245h-2.802c-.418 0-.788.034-1.109.104-.32.056-.599.167-.836.335a1.539 1.539 0 0 0-.523.627c-.112.265-.167.607-.167 1.025v.126c0 .376.055.697.167.962.111.251.272.46.481.627.209.154.467.265.774.335.32.07.676.104 1.066.104ZM222.603 241.001v-10.876h1.422v3.953h2.886c.586 0 1.13.056 1.631.167.502.098.928.272 1.276.523.363.251.642.593.837 1.025.209.432.314.976.314 1.631v.126c0 .558-.091 1.053-.272 1.485a2.736 2.736 0 0 1-.753 1.087 3.255 3.255 0 0 1-1.151.67 4.976 4.976 0 0 1-1.485.209h-4.705Zm1.422-1.339h2.802c.419 0 .788-.028 1.109-.083a2.29 2.29 0 0 0 .816-.335c.237-.167.411-.383.523-.648.125-.265.188-.607.188-1.025v-.126c0-.404-.056-.732-.168-.983a1.445 1.445 0 0 0-.481-.627 1.843 1.843 0 0 0-.773-.314 4.84 4.84 0 0 0-1.067-.104h-2.949v4.245ZM211.614 241.001v-10.876h4.643c.433 0 .851.042 1.255.125.405.084.76.231 1.067.44.307.209.551.488.732.836.181.335.272.753.272 1.255v.126c0 .306-.042.592-.126.857a2.203 2.203 0 0 1-.355.67 2.267 2.267 0 0 1-.586.481 3.402 3.402 0 0 1-.794.334v.042c.376.098.704.223.983.377.292.139.529.32.711.543.195.209.334.454.418.732.098.265.146.572.146.921v.125c0 .6-.104 1.095-.313 1.485-.21.391-.488.704-.837.941a3.127 3.127 0 0 1-1.192.46c-.46.084-.941.126-1.443.126h-4.581Zm1.422-1.255h2.887c.348 0 .676-.021.983-.063.321-.042.592-.125.816-.251.237-.125.425-.306.564-.544.14-.237.209-.55.209-.941v-.125c0-.405-.069-.725-.209-.962a1.522 1.522 0 0 0-.564-.586 2.005 2.005 0 0 0-.837-.293 5.96 5.96 0 0 0-1.025-.083h-2.824v3.848Zm0-5.02h2.782c.321 0 .621-.021.9-.062.278-.042.522-.119.732-.23.209-.126.369-.3.481-.523.125-.223.188-.509.188-.858v-.125c0-.321-.063-.579-.188-.774a1.28 1.28 0 0 0-.502-.481 1.996 1.996 0 0 0-.691-.23 5.184 5.184 0 0 0-.815-.063h-2.887v3.346ZM203.954 241.251c-.808 0-1.527-.133-2.154-.397a4.58 4.58 0 0 1-1.59-1.151 5.323 5.323 0 0 1-.962-1.778 7.985 7.985 0 0 1-.313-2.3v-.126c0-.822.104-1.575.313-2.259.223-.697.544-1.289.962-1.777a4.518 4.518 0 0 1 1.569-1.172c.627-.279 1.346-.418 2.154-.418.809 0 1.52.139 2.134.418.627.279 1.15.67 1.568 1.172.433.488.753 1.08.962 1.777.224.684.335 1.437.335 2.259v.126c0 .808-.098 1.561-.293 2.259a4.976 4.976 0 0 1-.899 1.777c-.404.502-.92.893-1.548 1.172-.627.279-1.373.418-2.238.418Zm.063-1.255c.586 0 1.088-.105 1.506-.314.432-.223.788-.53 1.067-.92a4.19 4.19 0 0 0 .627-1.38 7.172 7.172 0 0 0 .209-1.778v-.126c0-.585-.07-1.143-.209-1.673a3.947 3.947 0 0 0-.648-1.38 2.84 2.84 0 0 0-1.088-.941c-.432-.238-.948-.356-1.548-.356-.627 0-1.164.118-1.61.356a3.145 3.145 0 0 0-1.088.92 3.87 3.87 0 0 0-.606 1.38 7.31 7.31 0 0 0-.189 1.694v.126c0 .613.07 1.192.21 1.736.139.53.355.997.648 1.401.293.391.662.697 1.108.92.447.223.984.335 1.611.335ZM187.247 244.765v-14.641h1.422v1.757h.021c.181-.363.398-.669.649-.92s.529-.454.836-.607a3.72 3.72 0 0 1 1.025-.355 5.184 5.184 0 0 1 1.171-.126c.795 0 1.478.146 2.05.439.586.279 1.06.67 1.422 1.172a4.83 4.83 0 0 1 .816 1.756c.181.67.272 1.388.272 2.155v.125c0 .865-.098 1.652-.293 2.364-.195.697-.488 1.296-.878 1.798a3.881 3.881 0 0 1-1.423 1.172c-.557.264-1.199.397-1.924.397-.404 0-.795-.035-1.171-.105a4.188 4.188 0 0 1-1.025-.334 3.89 3.89 0 0 1-.857-.586 3.814 3.814 0 0 1-.67-.857h-.021v5.396h-1.422Zm4.936-4.769c.628 0 1.15-.132 1.569-.397a3.074 3.074 0 0 0 1.004-1.025 4.47 4.47 0 0 0 .523-1.443c.097-.53.146-1.053.146-1.569v-.125a7.64 7.64 0 0 0-.167-1.611 3.84 3.84 0 0 0-.565-1.359 2.891 2.891 0 0 0-1.046-.963c-.432-.251-.969-.376-1.61-.376-.656 0-1.199.132-1.632.397a3.12 3.12 0 0 0-1.045 1.046 4.546 4.546 0 0 0-.544 1.443 9.305 9.305 0 0 0-.147 1.653v.125c0 .558.063 1.095.189 1.611.125.502.327.948.606 1.338.279.391.641.697 1.088.92.446.223.99.335 1.631.335ZM179.587 241.251c-.809 0-1.527-.133-2.154-.397a4.571 4.571 0 0 1-1.59-1.151 5.323 5.323 0 0 1-.962-1.778 7.984 7.984 0 0 1-.314-2.3v-.126c0-.822.105-1.575.314-2.259.223-.697.544-1.289.962-1.777a4.5 4.5 0 0 1 1.569-1.172c.627-.279 1.345-.418 2.154-.418.809 0 1.52.139 2.133.418.628.279 1.151.67 1.569 1.172.432.488.753 1.08.962 1.777.223.684.335 1.437.335 2.259v.126c0 .808-.098 1.561-.293 2.259a4.976 4.976 0 0 1-.899 1.777 4.088 4.088 0 0 1-1.548 1.172c-.627.279-1.373.418-2.238.418Zm.063-1.255c.585 0 1.087-.105 1.506-.314.432-.223.787-.53 1.066-.92s.488-.851.628-1.38a7.172 7.172 0 0 0 .209-1.778v-.126c0-.585-.07-1.143-.209-1.673-.14-.53-.356-.99-.649-1.38a2.83 2.83 0 0 0-1.087-.941c-.432-.238-.948-.356-1.548-.356-.627 0-1.164.118-1.61.356a3.136 3.136 0 0 0-1.088.92 3.87 3.87 0 0 0-.606 1.38 7.31 7.31 0 0 0-.189 1.694v.126c0 .613.07 1.192.209 1.736.14.53.356.997.649 1.401.293.391.662.697 1.108.92.446.223.983.335 1.611.335ZM161.924 243.72v-4.058h1.15c.363-.683.649-1.31.858-1.882.209-.586.362-1.185.46-1.799a14.96 14.96 0 0 0 .209-2.029c.028-.739.042-1.61.042-2.614v-1.213h6.986v9.537h1.673v4.058h-1.339v-2.719h-8.701v2.719h-1.338Zm2.614-4.058h5.668v-8.198h-4.225v.732c0 .864-.028 1.652-.083 2.363a15.973 15.973 0 0 1-.23 1.945c-.112.6-.258 1.157-.44 1.673a8.407 8.407 0 0 1-.69 1.485ZM156.409 241.251c-.6 0-1.171-.056-1.715-.167a4.035 4.035 0 0 1-1.443-.586 3.146 3.146 0 0 1-.983-1.109c-.237-.474-.356-1.059-.356-1.756v-.126h1.381v.126c0 .474.083.864.251 1.171.167.307.39.551.669.732.293.181.627.307 1.004.376a8.1 8.1 0 0 0 2.321 0c.349-.069.649-.181.9-.334.251-.168.446-.384.585-.649.154-.265.23-.592.23-.983v-.125c0-.405-.069-.732-.209-.983a1.358 1.358 0 0 0-.544-.607 2.023 2.023 0 0 0-.815-.272 5.704 5.704 0 0 0-1.004-.083h-1.673v-1.172h1.485c.306 0 .599-.02.878-.062.293-.042.551-.119.774-.23.237-.126.425-.3.565-.523.139-.223.209-.509.209-.858v-.125c0-.349-.07-.635-.209-.858a1.42 1.42 0 0 0-.565-.544 2.464 2.464 0 0 0-.837-.292 5.471 5.471 0 0 0-.983-.084c-.348 0-.69.028-1.025.084a2.352 2.352 0 0 0-.899.292c-.251.14-.453.342-.607.607-.153.265-.23.607-.23 1.025v.125h-1.38v-.125c0-.614.119-1.123.356-1.527.251-.418.571-.753.962-1.004a4.069 4.069 0 0 1 1.359-.565 7.54 7.54 0 0 1 1.59-.167 6.4 6.4 0 0 1 1.464.167c.474.112.892.286 1.255.523.362.223.655.523.878.9.223.362.335.808.335 1.338v.126c0 .613-.168 1.122-.502 1.526-.321.405-.774.663-1.36.774v.042c.684.14 1.22.425 1.611.858.404.432.606.99.606 1.673v.125c0 .642-.118 1.179-.355 1.611a2.77 2.77 0 0 1-.941 1.025 3.81 3.81 0 0 1-1.381.523 7.84 7.84 0 0 1-1.652.167ZM135.674 241.001v-10.876h1.422v9.537l-.355-.083 6.023-9.454h1.611v10.876h-1.423v-9.517l.356.105-6.003 9.412h-1.631ZM123.623 241.001v-10.876h1.422v9.537l-.355-.083 6.023-9.454h1.611v10.876h-1.422v-9.517l.355.105-6.003 9.412h-1.631ZM111.266 244.765v-14.641h1.422v1.757h.021c.181-.363.397-.669.648-.92s.53-.454.837-.607c.32-.167.662-.286 1.025-.355a5.178 5.178 0 0 1 1.171-.126c.795 0 1.478.146 2.05.439.585.279 1.059.67 1.422 1.172.376.501.648 1.087.815 1.756.182.67.272 1.388.272 2.155v.125c0 .865-.097 1.652-.292 2.364-.196.697-.488 1.296-.879 1.798a3.87 3.87 0 0 1-1.422 1.172c-.558.264-1.199.397-1.924.397-.405 0-.795-.035-1.172-.105a4.18 4.18 0 0 1-1.024-.334 3.919 3.919 0 0 1-.858-.586 3.811 3.811 0 0 1-.669-.857h-.021v5.396h-1.422Zm4.936-4.769c.627 0 1.15-.132 1.568-.397a3.064 3.064 0 0 0 1.004-1.025 4.47 4.47 0 0 0 .523-1.443c.098-.53.146-1.053.146-1.569v-.125c0-.558-.055-1.095-.167-1.611a3.821 3.821 0 0 0-.565-1.359 2.88 2.88 0 0 0-1.045-.963c-.433-.251-.969-.376-1.611-.376-.655 0-1.199.132-1.631.397a3.133 3.133 0 0 0-1.046 1.046 4.57 4.57 0 0 0-.544 1.443 9.399 9.399 0 0 0-.146 1.653v.125c0 .558.063 1.095.188 1.611.126.502.328.948.607 1.338.279.391.641.697 1.087.92.446.223.99.335 1.632.335ZM103.607 241.251c-.809 0-1.527-.133-2.155-.397a4.58 4.58 0 0 1-1.59-1.151 5.318 5.318 0 0 1-.961-1.778 7.978 7.978 0 0 1-.314-2.3v-.126c0-.822.105-1.575.314-2.259.223-.697.543-1.289.962-1.777a4.509 4.509 0 0 1 1.568-1.172c.628-.279 1.346-.418 2.155-.418.808 0 1.52.139 2.133.418.627.279 1.15.67 1.569 1.172.432.488.753 1.08.962 1.777.223.684.334 1.437.334 2.259v.126c0 .808-.097 1.561-.292 2.259a4.978 4.978 0 0 1-.9 1.777c-.404.502-.92.893-1.547 1.172-.628.279-1.374.418-2.238.418Zm.062-1.255c.586 0 1.088-.105 1.506-.314.432-.223.788-.53 1.067-.92a4.17 4.17 0 0 0 .627-1.38c.14-.544.21-1.137.21-1.778v-.126c0-.585-.07-1.143-.21-1.673a3.929 3.929 0 0 0-.648-1.38 2.833 2.833 0 0 0-1.088-.941c-.432-.238-.948-.356-1.547-.356-.628 0-1.165.118-1.611.356a3.132 3.132 0 0 0-1.087.92 3.89 3.89 0 0 0-.607 1.38 7.365 7.365 0 0 0-.188 1.694v.126c0 .613.07 1.192.209 1.736.139.53.356.997.648 1.401.293.391.663.697 1.109.92.446.223.983.335 1.61.335ZM92.593 241.001v-9.537h-3.68v-1.339h8.784v1.339h-3.682v9.537h-1.422ZM83.386 241.251c-.878 0-1.638-.133-2.28-.397a4.263 4.263 0 0 1-1.568-1.172c-.404-.502-.704-1.101-.9-1.798-.195-.698-.292-1.471-.292-2.322v-.125c0-.809.097-1.555.292-2.238.21-.684.516-1.269.92-1.757a4.416 4.416 0 0 1 1.548-1.151c.628-.279 1.36-.418 2.197-.418.71 0 1.338.105 1.882.314a3.797 3.797 0 0 1 1.401.836c.377.349.663.76.858 1.234.195.474.293.983.293 1.527v.126h-1.38v-.126c0-.362-.077-.704-.23-1.025a2.394 2.394 0 0 0-.607-.836 2.966 2.966 0 0 0-.962-.565 3.304 3.304 0 0 0-1.255-.23c-.628 0-1.165.112-1.61.335a2.95 2.95 0 0 0-1.067.92c-.266.376-.46.83-.586 1.359a6.978 6.978 0 0 0-.188 1.653v.125c0 .572.062 1.13.188 1.673.125.53.328 1.004.606 1.423.28.418.642.753 1.088 1.004.46.251 1.025.376 1.694.376.446 0 .85-.063 1.213-.188.377-.14.697-.328.962-.565a2.82 2.82 0 0 0 .628-.878c.153-.349.23-.732.23-1.151v-.125h1.38v.125c0 .628-.111 1.192-.334 1.694-.21.502-.51.928-.9 1.276-.39.349-.864.614-1.422.795a5.669 5.669 0 0 1-1.799.272ZM66.964 241.001v-10.876h1.422v9.537l-.355-.083 6.023-9.454h1.61v10.876h-1.422v-9.517l.356.105-6.003 9.412h-1.631ZM54.711 241.251c-.878 0-1.638-.133-2.28-.397a4.415 4.415 0 0 1-1.61-1.172 5.028 5.028 0 0 1-.941-1.798c-.196-.698-.293-1.471-.293-2.322v-.125c0-.809.097-1.555.293-2.238.209-.684.516-1.269.92-1.757a4.416 4.416 0 0 1 1.548-1.151c.627-.279 1.36-.418 2.196-.418.71 0 1.36.126 1.945.377.586.237 1.08.571 1.485 1.003.418.433.739.949.962 1.548.223.6.335 1.262.335 1.987v1.171h-8.743v-1.255h7.279v-.125c0-.544-.084-1.025-.251-1.443a3.098 3.098 0 0 0-.69-1.088 2.919 2.919 0 0 0-1.046-.669 3.21 3.21 0 0 0-1.276-.251c-.628 0-1.164.105-1.61.314a2.937 2.937 0 0 0-1.067.857c-.265.363-.46.788-.586 1.276a6.376 6.376 0 0 0-.188 1.59v.522c0 .558.063 1.102.188 1.632.14.516.349.976.627 1.38.293.391.67.704 1.13.941.46.238 1.025.356 1.694.356.488 0 .913-.056 1.276-.167.376-.126.69-.286.941-.481.251-.196.44-.412.565-.649a1.67 1.67 0 0 0 .188-.753v-.125h1.38v.125c0 .474-.104.914-.313 1.318-.21.404-.51.753-.9 1.046-.376.293-.836.523-1.38.69a5.898 5.898 0 0 1-1.778.251ZM45.477 241.001v-10.876H46.9v10.876h-1.422Zm-9.62 0v-10.876h1.422v3.953h2.677c.585 0 1.13.056 1.631.167.502.098.927.272 1.276.523.363.251.642.593.837 1.025.209.432.313.976.313 1.631v.126c0 .558-.09 1.053-.271 1.485a2.722 2.722 0 0 1-.753 1.087c-.321.293-.705.516-1.15.67a4.977 4.977 0 0 1-1.486.209h-4.497Zm1.422-1.339h2.593c.419 0 .788-.028 1.109-.083.32-.07.592-.182.815-.335.237-.167.412-.383.523-.648.126-.265.188-.607.188-1.025v-.126c0-.404-.055-.732-.167-.983a1.456 1.456 0 0 0-.48-.627 1.843 1.843 0 0 0-.775-.314 4.834 4.834 0 0 0-1.066-.104h-2.74v4.245ZM24.868 241.001v-10.876h4.643c.433 0 .85.042 1.255.125.405.084.76.231 1.067.44.307.209.55.488.732.836.181.335.272.753.272 1.255v.126c0 .306-.042.592-.126.857a2.211 2.211 0 0 1-.355.67 2.272 2.272 0 0 1-.586.481 3.394 3.394 0 0 1-.795.334v.042c.377.098.705.223.983.377.293.139.53.32.712.543.195.209.334.454.418.732.097.265.146.572.146.921v.125c0 .6-.104 1.095-.314 1.485-.209.391-.488.704-.836.941a3.124 3.124 0 0 1-1.192.46c-.46.084-.941.126-1.443.126h-4.58Zm1.422-1.255h2.887c.348 0 .676-.021.983-.063a2.24 2.24 0 0 0 .815-.251c.237-.125.426-.306.565-.544.14-.237.21-.55.21-.941v-.125c0-.405-.07-.725-.21-.962a1.525 1.525 0 0 0-.565-.586 2 2 0 0 0-.836-.293 5.96 5.96 0 0 0-1.025-.083H26.29v3.848Zm0-5.02h2.782c.32 0 .62-.021.9-.062.278-.042.522-.119.731-.23.21-.126.37-.3.482-.523.125-.223.188-.509.188-.858v-.125c0-.321-.063-.579-.188-.774a1.276 1.276 0 0 0-.502-.481 1.986 1.986 0 0 0-.69-.23 5.202 5.202 0 0 0-.816-.063H26.29v3.346ZM17.208 241.251c-.809 0-1.527-.133-2.154-.397a4.577 4.577 0 0 1-1.59-1.151 5.32 5.32 0 0 1-.962-1.778 7.981 7.981 0 0 1-.314-2.3v-.126c0-.822.105-1.575.314-2.259.223-.697.544-1.289.962-1.777a4.505 4.505 0 0 1 1.569-1.172c.627-.279 1.345-.418 2.154-.418.809 0 1.52.139 2.134.418.627.279 1.15.67 1.568 1.172.433.488.753 1.08.962 1.777.223.684.335 1.437.335 2.259v.126a8.36 8.36 0 0 1-.293 2.259 4.975 4.975 0 0 1-.9 1.777c-.404.502-.92.893-1.547 1.172-.627.279-1.373.418-2.238.418Zm.063-1.255c.585 0 1.087-.105 1.506-.314.432-.223.788-.53 1.066-.92.28-.39.488-.851.628-1.38.14-.544.21-1.137.21-1.778v-.126a6.55 6.55 0 0 0-.21-1.673c-.14-.53-.356-.99-.648-1.38a2.836 2.836 0 0 0-1.088-.941c-.432-.238-.948-.356-1.548-.356-.627 0-1.164.118-1.61.356a3.14 3.14 0 0 0-1.088.92c-.279.39-.48.85-.606 1.38a7.337 7.337 0 0 0-.189 1.694v.126c0 .613.07 1.192.21 1.736.139.53.355.997.648 1.401.293.391.662.697 1.108.92.447.223.983.335 1.61.335ZM.93 241.001v-10.876h1.422v4.497h5.73v-4.497h1.423v10.876H8.083v-5.041H2.352v5.041H.93Z"/>
  <defs>
    <clipPath id="a">
      <path fill="#fff" d="M43 0h156v156H43z"/>
    </clipPath>
  </defs>
</svg>