<svg xmlns="http://www.w3.org/2000/svg" fill="none" viewBox="0 0 98 34"><path fill="url(#a)" d="M86.958 28.48c-1.92 0-3.694-.387-5.32-1.16-1.6-.8-2.88-2.013-3.84-3.64-.96-1.627-1.44-3.653-1.44-6.08v-.8c0-2.293.48-4.213 1.44-5.76.96-1.573 2.24-2.747 3.84-3.52 1.626-.8 3.4-1.2 5.32-1.2 1.946 0 3.72.4 5.32 1.2 1.6.773 2.88 1.947 3.84 3.52.96 1.547 1.44 3.467 1.44 5.76v.8c0 2.373-.48 4.373-1.44 6-.96 1.627-2.24 2.853-3.84 3.68-1.6.8-3.374 1.2-5.32 1.2Zm0-4.48c1.013 0 1.906-.227 2.68-.68.8-.48 1.426-1.2 1.88-2.16.453-.96.68-2.147.68-3.56v-.8c0-1.307-.227-2.4-.68-3.28-.454-.88-1.08-1.547-1.88-2-.774-.48-1.667-.72-2.68-.72-1.014 0-1.92.24-2.72.72-.774.453-1.387 1.12-1.84 2-.454.88-.68 1.973-.68 3.28v.8c0 1.44.226 2.64.68 3.6.453.933 1.066 1.64 1.84 2.12.8.453 1.706.68 2.72.68Z"/><path fill="url(#b)" d="M50.609 28V6.8h6.2l5.88 11.44 5.88-11.44h5.96V28h-5V14.2l-5.16 9.6h-3.6l-5.16-9.6V28h-5Z"/><path fill="url(#c)" d="M38.965 28.48c-1.92 0-3.693-.387-5.32-1.16-1.6-.8-2.88-2-3.84-3.6-.96-1.627-1.44-3.667-1.44-6.12v-.8c0-2.347.454-4.293 1.36-5.84.934-1.547 2.174-2.707 3.72-3.48 1.547-.773 3.254-1.16 5.12-1.16 3.334 0 5.867.88 7.6 2.64 1.734 1.76 2.6 4.307 2.6 7.64v2.24h-15c.054 1.253.32 2.28.8 3.08.507.773 1.147 1.347 1.92 1.72.774.347 1.6.52 2.48.52 1.36 0 2.387-.2 3.08-.6.694-.4 1.187-.987 1.48-1.76h4.84c-.426 2.213-1.48 3.88-3.16 5-1.68 1.12-3.76 1.68-6.24 1.68Zm-.2-17.84a7.31 7.31 0 0 0-2.4.4 3.513 3.513 0 0 0-1.84 1.44c-.453.667-.706 1.56-.76 2.68h9.88c-.026-1.2-.266-2.12-.72-2.76-.426-.667-1-1.12-1.72-1.36-.72-.267-1.533-.4-2.44-.4Z"/><path fill="url(#d)" d="M0 33.2V23.04h3.12c.4-.933.733-2.053 1-3.36.293-1.307.52-2.707.68-4.2.16-1.493.267-3.013.32-4.56.08-1.573.12-3.093.12-4.56V0h19.68v23.04h3.04V33.2h-5.28V28H5.36v5.2H0Zm8.92-10.16h10.04V4.96h-8.04v2.2c0 3.68-.187 6.787-.56 9.32-.347 2.507-.827 4.693-1.44 6.56Z"/><defs><linearGradient id="a" x1="-.8" x2="99.2" y1="14" y2="14" gradientUnits="userSpaceOnUse"><stop offset=".332" stop-color="#2D3F80"/><stop offset="1" stop-color="#090D1A"/></linearGradient><linearGradient id="b" x1="-.8" x2="99.2" y1="14" y2="14" gradientUnits="userSpaceOnUse"><stop offset=".332" stop-color="#2D3F80"/><stop offset="1" stop-color="#090D1A"/></linearGradient><linearGradient id="c" x1="-.8" x2="99.2" y1="14" y2="14" gradientUnits="userSpaceOnUse"><stop offset=".332" stop-color="#2D3F80"/><stop offset="1" stop-color="#090D1A"/></linearGradient><linearGradient id="d" x1="-.8" x2="99.2" y1="14" y2="14" gradientUnits="userSpaceOnUse"><stop offset=".332" stop-color="#2D3F80"/><stop offset="1" stop-color="#090D1A"/></linearGradient></defs></svg>