<svg xmlns="http://www.w3.org/2000/svg" fill="none" viewBox="0 0 88 88"><rect width="88" height="88" fill="#fff" rx="9.764"/><mask id="a" width="56" height="56" x="16" y="16" maskUnits="userSpaceOnUse" style="mask-type:alpha"><path fill="#D9D9D9" d="M16.5 16.494h55v55h-55z"/></mask><g mask="url(#a)"><path fill="#7C5EF4" d="M16.5 71.412V16.48h19.12v17.168h16.694V16.48h19.119v54.932H16.5Z"/><path fill="#fff" d="M36.64 46.373h14.849l4.054 26.893c.561 3.724-2.323 7.075-6.089 7.075h-10.78c-3.766 0-6.65-3.35-6.088-7.075l4.054-26.893Z"/><path fill="#fff" d="m56.434 48.567-6.297 6.826c-.71.77-1.997.268-1.997-.78v-8.89a1.15 1.15 0 0 1 1.51-1.094l6.297 2.064a1.15 1.15 0 0 1 .487 1.874ZM31.779 48.567l6.297 6.826c.71.77 1.997.268 1.997-.78v-8.89a1.15 1.15 0 0 0-1.51-1.094l-6.297 2.064a1.15 1.15 0 0 0-.487 1.874Z"/><path fill="#001A33" d="M40.419 56.317c.599 0 1.086-.464 1.086-1.036 0-.571-.487-1.036-1.086-1.036-.6 0-1.087.465-1.087 1.036 0 .572.488 1.036 1.087 1.036ZM51.226 61.255c-.495-.281-.546-.311-.82.195-.178.331-.306.697-.457 1.032-.253.56-.406 1.079-.874 1.51-.538.496-1.143.567-1.674.1-.432-.383-.891-.703-1.477-.866-.316-.088-.907-.115-1.054-.41-.083-.405-.108-1.005 0-1.41.347-.372.848-.747 1.241-1.05.21-.163.318-.362.08-.55-.526-.422-.732-.49-1.877-.486-1.145-.004-1.352.066-1.878.485-.238.19-.128.388.08.55.393.304.894.679 1.242 1.052.108.404.082 1.004 0 1.408-.148.296-.739.325-1.055.41-.585.162-1.045.484-1.477.866-.528.468-1.135.395-1.674-.1-.467-.43-.62-.949-.874-1.509-.15-.335-.277-.7-.457-1.032-.273-.504-.326-.476-.82-.195-.331.19-.335.54-.135.946.306.624.538 1.191.835 1.898.446 1.065 1.314 1.792 2.48 1.575.319-.06.712-.202.955-.303.008.303.04.659.142.947.36.997.976 1.718 1.807 2.005.257.088.54.127.827.123.287.004.57-.035.827-.123.83-.287 1.447-1.006 1.807-2.005.104-.288.133-.642.141-.947.246.1.639.243.955.303 1.167.217 2.035-.51 2.48-1.575.295-.707.53-1.274.836-1.898.198-.407.194-.757-.136-.946h.004Zm-6.018 5.726c-.232.173-.529.375-.892.343-.364.03-.662-.17-.892-.343-.636-.475-1.09-1.951-.585-2.51.222-.245.703-.301.907-.301.014.121 0 .236.006.403.006.211.022.43.035.648.022.314.148.453.523.445h.016c.375.008.5-.13.522-.445.014-.218.03-.437.035-.648.006-.167-.008-.281.006-.403.203 0 .686.056.908.301.505.559.05 2.036-.586 2.51h-.003ZM48.213 56.317c.599 0 1.086-.464 1.086-1.036 0-.571-.487-1.036-1.086-1.036-.6 0-1.087.465-1.087 1.036 0 .572.488 1.036 1.087 1.036Z"/></g></svg>