<svg xmlns="http://www.w3.org/2000/svg" viewBox="0 0 318 70"><g fill="#8965FD"><path d="M77.638 40.29V9.554H88.12V20.59h6.049v8.35h-6.049V40.29H77.64Zm30.205.85c-2.715 0-5.131-.376-7.207-1.146-2.056-.81-3.773-1.895-5.17-3.277-1.358-1.421-2.396-3.099-3.095-5.073-.698-1.994-1.038-4.185-1.038-6.554v-.335c0-2.37.34-4.54 1.038-6.495.699-1.955 1.717-3.652 3.035-5.074 1.357-1.42 3.054-2.506 5.071-3.276 2.056-.77 4.431-1.145 7.107-1.145 2.675 0 5.25.394 7.386 1.204 2.136.81 3.893 1.915 5.29 3.336 1.438 1.382 2.516 3.06 3.255 5.073.738 1.955 1.098 4.087 1.098 6.396v.336c0 2.31-.34 4.422-1.039 6.396-.658 1.954-1.697 3.672-3.134 5.113-1.397 1.42-3.134 2.526-5.23 3.336-2.057.81-4.492 1.204-7.327 1.204l-.04-.02Zm.08-7.877c.878 0 1.697-.158 2.416-.474a5.086 5.086 0 0 0 1.936-1.56c.559-.71.978-1.579 1.258-2.566.279-1.026.419-2.25.419-3.632v-.355c0-1.264-.14-2.409-.419-3.396-.28-.987-.699-1.856-1.258-2.566a5.09 5.09 0 0 0-1.936-1.619c-.779-.375-1.657-.533-2.656-.533-.998 0-1.916.178-2.715.533a5.358 5.358 0 0 0-1.996 1.619c-.519.671-.918 1.52-1.198 2.507-.279.987-.419 2.152-.419 3.454v.356c0 1.362.14 2.546.419 3.573.32 1.026.759 1.895 1.318 2.566a5.72 5.72 0 0 0 2.056 1.56c.838.355 1.777.533 2.775.533ZM44.419 40.29V9.554h10.48v8.567h4.972c2.715 0 4.95.316 6.688.928 1.736.612 3.114 1.421 4.132 2.408a8.098 8.098 0 0 1 2.096 3.455c.42 1.303.639 2.665.639 4.086v.296c0 1.422-.26 2.803-.759 4.146-.499 1.342-1.277 2.527-2.335 3.573-1.038 1.007-2.396 1.796-4.073 2.408-1.637.573-3.593.869-5.87.869H44.42ZM54.6 33.203h3.734c.898 0 1.637-.06 2.215-.178.62-.158 1.118-.375 1.518-.69.38-.316 1.297-1.225 1.297-3.179 0-1.954-.918-2.744-1.297-3.04-.38-.296-.839-.533-1.458-.69-.578-.159-1.277-.238-2.096-.238H54.6v8.015ZM0 40.29V0h11.42v15.121h14.612V0h11.42v40.29h-11.42V24.38H11.42v15.91H0Z"/></g><g fill="#18222C"><path d="m284.661 40.29 9.183-15.674-8.624-15.062h8.904l6.188 12.08h1.937l6.189-12.08h8.903l-8.624 15.062L317.9 40.29h-8.903l-6.728-12.753h-1.937l-6.727 12.753H284.661ZM237.686 40.29V7.127H224.59V0h34.637v7.126h-13.156v33.145h-8.385v.02Z"/><path d="M209.717 40.29V16.325h-10.121V9.89h28.348v6.435h-10.081V40.29h-8.146ZM183.425 41.08c-2.715 0-4.891-.375-6.947-1.145s-3.773-1.836-5.171-3.217c-1.357-1.422-2.395-3.1-3.094-5.074-.659-1.954-.998-4.125-.998-6.494v-.336c0-2.31.339-4.402.998-6.337.699-1.915 1.717-3.573 3.034-4.954 1.358-1.382 3.015-2.448 4.951-3.218 1.977-.81 4.253-1.204 6.808-1.204 2.296 0 4.372.335 6.229 1.026 1.896.691 3.533 1.678 4.891 2.941 1.357 1.264 2.395 2.823 3.134 4.66.739 1.796 1.098 3.849 1.098 6.158 0 0 .04 1.737-.2 3.1h-24.954v-4.6h17.408v-.296c0-1.066-.199-2.033-.579-2.882a5.926 5.926 0 0 0-1.517-2.25c-.659-.652-1.457-1.146-2.396-1.501-.938-.336-1.956-.513-3.094-.513-1.397 0-2.595.237-3.613.69a6.676 6.676 0 0 0-2.436 1.777c-.619.73-1.078 1.62-1.397 2.646-.32 1.006-.46 2.072-.46 3.217v2.882c0 1.185.16 2.35.46 3.455a8.643 8.643 0 0 0 1.577 2.882c.698.81 1.577 1.46 2.615 1.954 1.078.494 2.216.75 3.733.75 2.036 0 3.653-.572 4.911-1.658.719-.631 1.717-2.053 1.917-3.198h7.266c0 1.698-2.775 10.74-14.174 10.74ZM268.85 41.08c-2.715 0-4.891-.375-6.948-1.145-2.056-.77-3.773-1.836-5.17-3.217-1.358-1.422-2.396-3.1-3.095-5.074-.658-1.954-.998-4.125-.998-6.494v-.336c0-2.31.34-4.402.998-6.337.699-1.915 1.717-3.573 3.035-4.954 1.357-1.382 3.014-2.448 4.951-3.218 1.976-.81 4.252-1.204 6.807-1.204 2.296 0 4.372.335 6.229 1.026 1.897.691 3.534 1.678 4.891 2.941 1.358 1.264 2.396 2.823 3.134 4.66.739 1.796 1.098 3.849 1.098 6.158 0 0 .04 1.737-.199 3.1h-24.955v-4.6h17.408v-.296c0-1.066-.199-2.033-.578-2.882a5.94 5.94 0 0 0-1.518-2.25c-.658-.652-1.457-1.146-2.395-1.501-.939-.336-1.957-.513-3.095-.513-1.397 0-2.595.237-3.613.69a6.685 6.685 0 0 0-2.436 1.777c-.619.73-1.078 1.62-1.397 2.646-.32 1.006-.459 2.072-.459 3.217v2.882c0 1.185.159 2.35.459 3.455a8.643 8.643 0 0 0 1.577 2.882c.699.81 1.577 1.46 2.615 1.954 1.078.494 2.216.75 3.733.75 2.037 0 3.654-.572 4.911-1.658.719-.631 1.717-2.053 1.917-3.198h7.267c0 1.698-2.775 10.74-14.174 10.74ZM129.663 40.29V0h19.505c1.976 0 3.773.197 5.41.572 1.637.376 3.034.988 4.192 1.777a7.618 7.618 0 0 1 2.675 3.04c.619 1.264.938 2.784.938 4.54v.297c0 1.145-.179 2.21-.519 3.158a7.664 7.664 0 0 1-1.457 2.527 8.895 8.895 0 0 1-2.276 1.895c-.898.493-1.876.869-2.974 1.086v.177c1.477.198 2.775.573 3.892 1.145 1.118.533 2.057 1.224 2.795 2.073a8.416 8.416 0 0 1 1.697 2.823c.38 1.066.579 2.23.579 3.455v.335c0 1.955-.359 3.652-1.098 5.074-.698 1.42-1.717 2.605-3.034 3.573-1.318.927-2.935 1.618-4.831 2.072-1.897.415-4.033.632-6.409.632h-19.085v.04Zm8.325-6.632h9.143c1.238 0 2.376-.08 3.374-.237 1.018-.158 1.877-.415 2.615-.81a4.403 4.403 0 0 0 1.697-1.717c.419-.73.639-1.599.639-2.764 0-1.164-.22-2.151-.639-2.882-.379-.73-.958-1.283-1.697-1.678-.738-.375-1.637-.651-2.675-.81a21.59 21.59 0 0 0-3.314-.236h-9.143v11.134Zm0-17.135h8.744c1.118 0 2.136-.08 3.034-.237.899-.197 1.657-.474 2.276-.869A4.573 4.573 0 0 0 153.5 13.8c.339-.652.519-1.5.519-2.428 0-.928-.18-1.678-.519-2.31a3.49 3.49 0 0 0-1.398-1.441c-.579-.375-1.317-.652-2.216-.81-.858-.157-1.816-.236-2.914-.236h-8.964v9.91l-.02.039Z"/></g><g fill="#18222C"><path visibility="var(--path-slogan-visibility, visible)" d="M.18 52.688h1.277v5.941h8.225v-5.941h1.298v13.778H9.682v-6.692H1.457v6.692H.18V52.688ZM16.63 66.288a4.12 4.12 0 0 1-1.498-1.066 4.476 4.476 0 0 1-.918-1.658c-.2-.651-.3-1.362-.3-2.151v-.119c0-.77.1-1.48.3-2.132.2-.651.499-1.204.918-1.678.42-.474.898-.829 1.497-1.086.58-.256 1.258-.375 2.037-.375.778 0 1.457.139 2.036.395a4.267 4.267 0 0 1 1.477 1.086c.4.454.699 1.007.919 1.658.22.652.319 1.362.319 2.132v.119c0 .77-.1 1.46-.28 2.112a4.624 4.624 0 0 1-.858 1.678c-.38.474-.858.829-1.477 1.085-.6.257-1.298.395-2.116.395-.819 0-1.458-.118-2.057-.375v-.02Zm3.613-.947c.419-.217.778-.493 1.058-.869.28-.375.479-.829.619-1.342.14-.533.22-1.105.22-1.737v-.119c0-.572-.08-1.125-.22-1.638a4.296 4.296 0 0 0-.64-1.362 2.818 2.818 0 0 0-1.077-.908c-.44-.217-.958-.316-1.557-.316-.6 0-1.158.118-1.597.316-.44.217-.799.513-1.078.888-.28.375-.5.83-.62 1.343a7.26 7.26 0 0 0-.199 1.658v.118c0 .612.08 1.165.22 1.698.14.533.359.987.658 1.362.3.395.66.69 1.098.888.44.217.979.316 1.598.316.579 0 1.078-.099 1.517-.316v.02ZM26.212 56.221h4.412c.399 0 .798.04 1.178.119.379.079.718.217 1.018.414.3.198.539.455.698.77.16.316.26.711.26 1.185v.118c0 .296-.04.553-.12.79-.08.237-.2.454-.34.632a1.81 1.81 0 0 1-.558.454c-.24.118-.5.217-.799.296v.04c.38.078.699.177.978.315.28.138.5.316.7.513.179.218.319.435.398.691.08.257.14.553.14.869v.118c0 .573-.1 1.027-.3 1.402-.199.375-.459.651-.798.868-.32.218-.699.356-1.138.435a7.77 7.77 0 0 1-1.377.118h-4.352V56.143v.078Zm4.032 4.383c.32 0 .6-.02.899-.06.28-.039.519-.118.738-.236.2-.119.38-.276.5-.494.12-.217.2-.493.2-.849v-.138c0-.316-.06-.572-.2-.79-.12-.216-.3-.374-.5-.473-.2-.118-.439-.197-.718-.237a5.58 5.58 0 0 0-.839-.06H27.37v3.357h2.854l.02-.02Zm.1 4.836c.34 0 .659-.02.978-.079.32-.04.6-.138.839-.256.24-.119.42-.316.559-.553.14-.237.22-.553.22-.948v-.118c0-.414-.08-.73-.22-.967-.16-.237-.34-.434-.58-.573a2.194 2.194 0 0 0-.858-.276c-.319-.04-.658-.06-.998-.06H27.39v3.85h2.954v-.02ZM36.952 56.221h1.178v3.77h2.715c.56 0 1.078.04 1.558.139.479.099.878.257 1.217.493.34.237.6.553.799.948.2.395.3.908.3 1.5v.119c0 .533-.08.987-.26 1.382-.18.394-.4.73-.719 1.006-.32.277-.679.474-1.098.612-.42.139-.898.198-1.417.198h-4.273V56.162v.06Zm3.893 9.16c.42 0 .799-.04 1.118-.118.32-.08.6-.198.819-.356.22-.158.399-.375.499-.651.1-.277.18-.593.18-.968v-.118c0-.375-.06-.69-.16-.967a1.38 1.38 0 0 0-.48-.632 1.95 1.95 0 0 0-.798-.336c-.32-.078-.699-.098-1.118-.098H38.13V65.4h2.715v-.02Zm5.43-9.16h1.198v10.226h-1.198V56.22ZM52.983 66.288c-.599-.256-1.118-.611-1.517-1.085a4.622 4.622 0 0 1-.898-1.698c-.2-.671-.28-1.382-.28-2.191v-.118c0-.77.1-1.461.3-2.093.2-.632.499-1.184.878-1.639.4-.453.878-.809 1.477-1.066.6-.256 1.278-.375 2.077-.375.678 0 1.297.119 1.836.336a3.88 3.88 0 0 1 1.417.948c.4.414.7.888.919 1.46.22.573.32 1.185.32 1.895v1.007h-8.445v-1.006h7.227v-.178c0-.553-.08-1.046-.26-1.461-.18-.415-.42-.79-.719-1.066a2.716 2.716 0 0 0-1.038-.651 3.374 3.374 0 0 0-1.258-.218c-.599 0-1.137.1-1.557.277-.439.197-.798.454-1.078.81-.28.355-.499.769-.619 1.243-.14.474-.2 1.007-.2 1.599v.434c0 .573.06 1.106.2 1.619.14.513.34.967.62 1.362.279.395.658.69 1.117.908.46.217 1.018.336 1.677.336.48 0 .918-.06 1.278-.158.36-.1.679-.257.938-.454.26-.198.46-.415.58-.652.139-.237.199-.493.199-.77v-.118h1.158v.118c0 .435-.1.85-.3 1.224-.2.375-.479.71-.838.987-.36.277-.799.494-1.318.652a5.817 5.817 0 0 1-1.717.237c-.838 0-1.557-.119-2.176-.375v-.08ZM67.257 52.688h5.77c.578 0 1.137.059 1.636.177.52.119.959.316 1.338.573.38.256.659.612.878 1.046.22.434.32.967.32 1.6v.098c0 .375-.06.73-.18 1.046-.12.316-.28.612-.48.869-.219.256-.458.493-.758.67-.3.178-.619.317-.978.396v.04c.48.058.898.197 1.258.374.36.178.678.415.938.71.26.297.46.633.579 1.008.14.375.2.809.2 1.263v.118c0 .73-.14 1.343-.4 1.817-.26.473-.618.868-1.078 1.164-.459.296-.978.494-1.577.612a9.6 9.6 0 0 1-1.876.178h-5.59V52.668v.02Zm5.55 6.06c.439 0 .838-.04 1.197-.118.38-.08.7-.218.979-.415.28-.197.499-.434.658-.75.16-.316.24-.71.24-1.165v-.118c0-.454-.08-.83-.24-1.125a1.84 1.84 0 0 0-.638-.711 2.56 2.56 0 0 0-.959-.375 5.891 5.891 0 0 0-1.197-.099h-4.292v4.896h4.272l-.02-.02Zm-.02 6.554c.519 0 1.018-.04 1.457-.099a2.97 2.97 0 0 0 1.158-.395c.32-.197.579-.473.779-.829.18-.355.28-.81.28-1.342v-.118c0-.573-.1-1.007-.3-1.343-.2-.335-.46-.592-.779-.79-.32-.197-.699-.315-1.118-.375a9.799 9.799 0 0 0-1.377-.098h-4.353v5.409h4.253v-.02ZM82.73 66.288c-.6-.256-1.119-.611-1.518-1.085a4.622 4.622 0 0 1-.898-1.698c-.2-.671-.28-1.382-.28-2.191v-.118c0-.77.1-1.461.3-2.093.2-.632.499-1.184.878-1.639.4-.453.878-.809 1.477-1.066.6-.256 1.278-.375 2.077-.375.678 0 1.297.119 1.836.336a3.88 3.88 0 0 1 1.418.948c.399.414.698.888.918 1.46.22.573.32 1.185.32 1.895v1.007h-8.445v-1.006h7.227v-.178c0-.553-.08-1.046-.26-1.461-.18-.415-.42-.79-.719-1.066a2.716 2.716 0 0 0-1.038-.651 3.375 3.375 0 0 0-1.257-.218c-.6 0-1.138.1-1.558.277-.439.197-.798.454-1.078.81-.28.355-.499.769-.618 1.243-.14.474-.2 1.007-.2 1.599v.434c0 .573.06 1.106.2 1.619.14.513.339.967.618 1.362.28.395.66.69 1.118.908.46.217 1.018.336 1.677.336.48 0 .919-.06 1.278-.158.36-.1.679-.257.938-.454.26-.198.46-.415.58-.652.139-.237.199-.493.199-.77v-.118h1.158v.118c0 .435-.1.85-.3 1.224-.2.375-.479.71-.838.987-.36.277-.799.494-1.318.652a5.817 5.817 0 0 1-1.717.237c-.838 0-1.557-.119-2.176-.375v-.08ZM94.328 57.307h-3.574v-1.085h8.365v1.085h-3.613v9.14h-1.198v-9.14h.02ZM103.251 66.288c-.599-.256-1.118-.611-1.517-1.085a4.615 4.615 0 0 1-.898-1.698c-.2-.671-.28-1.382-.28-2.191v-.118c0-.77.1-1.461.3-2.093a4.79 4.79 0 0 1 .878-1.639c.399-.453.878-.809 1.477-1.066.599-.256 1.278-.375 2.077-.375.678 0 1.297.119 1.836.336a3.887 3.887 0 0 1 1.418.948c.399.414.698.888.918 1.46.22.573.319 1.185.319 1.895v1.007h-8.444v-1.006h7.227v-.178c0-.553-.08-1.046-.26-1.461-.18-.415-.419-.79-.719-1.066a2.706 2.706 0 0 0-1.038-.651 3.37 3.37 0 0 0-1.257-.218c-.599 0-1.138.1-1.558.277-.439.197-.798.454-1.078.81-.279.355-.499.769-.619 1.243-.139.474-.199 1.007-.199 1.599v.434c0 .573.06 1.106.199 1.619.14.513.34.967.619 1.362.28.395.659.69 1.118.908.459.217 1.018.336 1.677.336.479 0 .919-.06 1.278-.158.359-.1.679-.257.938-.454.26-.198.459-.415.579-.652.14-.237.2-.493.2-.77v-.118h1.158v.118c0 .435-.1.85-.3 1.224a3.04 3.04 0 0 1-.838.987c-.36.277-.799.494-1.318.652a5.817 5.817 0 0 1-1.717.237c-.838 0-1.557-.119-2.176-.375v-.08ZM112.595 56.22h1.178v1.935c.179-.414.419-.77.658-1.026.26-.276.539-.494.859-.651a4.432 4.432 0 0 1 1.018-.356 5.055 5.055 0 0 1 1.098-.099c.779 0 1.437.139 1.996.395.559.277 1.018.632 1.378 1.106a4.46 4.46 0 0 1 .778 1.638c.16.632.24 1.303.24 2.034v.118c0 .81-.1 1.56-.28 2.21a5.016 5.016 0 0 1-.838 1.698c-.379.474-.838.83-1.378 1.086-.539.257-1.157.375-1.856.375-.379 0-.759-.04-1.118-.098a3.62 3.62 0 0 1-1.018-.336 3.24 3.24 0 0 1-.859-.612 3.35 3.35 0 0 1-.658-.948v5.33h-1.178V56.241l-.02-.02Zm6.268 9.042a3.13 3.13 0 0 0 1.018-1.026c.26-.415.44-.889.519-1.402.1-.513.14-1.007.14-1.5v-.119c0-.533-.06-1.046-.159-1.54-.1-.513-.3-.947-.559-1.342a2.978 2.978 0 0 0-1.039-.947c-.439-.237-.978-.356-1.617-.356-.638 0-1.237.138-1.657.395a3.212 3.212 0 0 0-1.038 1.027 4.073 4.073 0 0 0-.539 1.42 8.42 8.42 0 0 0-.159 1.56v.119c0 .533.059 1.026.179 1.54.12.493.32.947.579 1.322.28.375.639.691 1.078.908.459.217.998.336 1.657.336s1.158-.138 1.597-.395ZM124.652 56.222h1.178v9.16l-.299-.08 6.089-9.08h1.337v10.225h-1.198v-9.14l.32.08-6.069 9.06h-1.358V56.222ZM136.311 56.222h1.178v4.303h5.79v-4.303h1.197v10.225h-1.197v-4.816h-5.79v4.816h-1.178V56.222ZM149.348 66.506c-.42-.119-.779-.277-1.078-.514a2.738 2.738 0 0 1-.759-.888c-.2-.355-.28-.79-.28-1.283v-.118c0-.573.1-1.007.3-1.363.2-.335.479-.612.818-.829.34-.217.739-.355 1.158-.454.42-.098.859-.158 1.298-.197.439-.04.878-.099 1.318-.138a8.17 8.17 0 0 0 1.137-.237c.34-.119.599-.277.819-.474.2-.197.299-.494.299-.849v-.118c0-.375-.059-.671-.179-.928s-.3-.454-.519-.612a2.229 2.229 0 0 0-.859-.336 6.53 6.53 0 0 0-1.118-.098c-.399 0-.778.04-1.138.098-.359.06-.658.178-.918.356a1.906 1.906 0 0 0-.619.69c-.16.297-.239.672-.239 1.146v.118h-1.158v-.118c0-.612.12-1.126.339-1.56.22-.434.539-.77.918-1.026a4.09 4.09 0 0 1 1.338-.573 6.722 6.722 0 0 1 1.557-.178c.539 0 1.078.06 1.537.178.46.118.859.316 1.178.573.32.256.579.611.759 1.026.179.415.259.928.259 1.52V64.73c0 .178.06.336.12.454s.14.197.22.257c.08.059.199.079.359.079.06 0 .14 0 .2-.02.06 0 .159-.04.239-.06v1.027s-.1.02-.159.04c-.06.02-.12 0-.18 0h-.379c-.24 0-.44-.04-.599-.08-.16-.039-.34-.157-.459-.276a1.516 1.516 0 0 1-.32-.493c-.08-.198-.12-.454-.14-.75v-.296h-.04a3.384 3.384 0 0 1-.678.908c-.26.256-.579.473-.899.651a3.959 3.959 0 0 1-1.058.375 5.687 5.687 0 0 1-2.475-.04h.08Zm2.994-1.086c.419-.158.799-.375 1.098-.671.3-.296.539-.652.699-1.066.16-.415.239-.869.239-1.382v-2.014h.4c-.1.297-.26.533-.479.711-.24.178-.5.296-.819.395a5.463 5.463 0 0 1-1.018.197c-.359.04-.739.08-1.118.119-.379.04-.739.098-1.078.158-.339.059-.639.158-.918.296-.28.138-.499.316-.659.553-.16.236-.24.552-.24.927v.08c0 .295.06.552.16.789s.259.434.459.612.459.296.759.375a4.05 4.05 0 0 0 1.038.118c.539 0 1.018-.079 1.457-.237l.02.04ZM159.13 56.22h1.178v1.935c.179-.414.419-.77.659-1.026.259-.276.539-.494.858-.651a4.432 4.432 0 0 1 1.018-.356 5.055 5.055 0 0 1 1.098-.099c.779 0 1.437.139 1.996.395.559.277 1.019.632 1.378 1.106.359.474.619 1.007.779 1.638a8.27 8.27 0 0 1 .239 2.034v.118c0 .81-.1 1.56-.279 2.21a5.036 5.036 0 0 1-.839 1.698c-.379.474-.838.83-1.377 1.086-.539.257-1.158.375-1.857.375-.379 0-.759-.04-1.118-.098a3.62 3.62 0 0 1-1.018-.336 3.256 3.256 0 0 1-.859-.612 3.35 3.35 0 0 1-.658-.948v5.33h-1.178V56.241l-.02-.02Zm6.268 9.042c.42-.257.759-.612 1.019-1.026a3.72 3.72 0 0 0 .519-1.402 7.837 7.837 0 0 0 .139-1.5v-.119c0-.533-.059-1.046-.159-1.54-.1-.513-.3-.947-.559-1.342a2.984 2.984 0 0 0-1.038-.947c-.44-.237-.979-.356-1.617-.356-.639 0-1.238.138-1.657.395-.42.257-.779.612-1.039 1.027a4.073 4.073 0 0 0-.539 1.42 8.506 8.506 0 0 0-.159 1.56v.119c0 .533.06 1.026.179 1.54.12.493.32.947.579 1.322.28.375.639.691 1.078.908.46.217.999.336 1.657.336.659 0 1.158-.138 1.597-.395ZM171.188 56.222h1.177v4.303h5.79v-4.303h1.198v10.225h-1.198v-4.816h-5.79v4.816h-1.177V56.222ZM182.706 56.221h1.178v3.77h2.715c.559 0 1.078.04 1.557.139.479.099.879.257 1.218.493.339.237.599.553.798.948.2.395.3.908.3 1.5v.119c0 .533-.08.987-.26 1.382-.179.394-.399.73-.718 1.006a3.15 3.15 0 0 1-1.098.612c-.42.139-.899.198-1.418.198h-4.272V56.162v.06Zm3.893 9.16c.419 0 .799-.04 1.118-.118.319-.08.599-.198.818-.356.22-.158.4-.375.5-.651.099-.277.179-.593.179-.968v-.118c0-.375-.06-.69-.16-.967a1.372 1.372 0 0 0-.479-.632 1.947 1.947 0 0 0-.798-.336c-.32-.078-.699-.098-1.118-.098h-2.775V65.4h2.715v-.02Zm5.43-9.16h1.198v10.226h-1.198V56.22ZM198.737 66.288c-.599-.256-1.118-.611-1.517-1.085a4.615 4.615 0 0 1-.898-1.698c-.2-.671-.28-1.382-.28-2.191v-.118c0-.77.1-1.461.3-2.093a4.79 4.79 0 0 1 .878-1.639c.399-.453.878-.809 1.477-1.066.599-.256 1.278-.375 2.077-.375.678 0 1.297.119 1.836.336a3.887 3.887 0 0 1 1.418.948c.399.414.698.888.918 1.46.22.573.319 1.185.319 1.895v1.007h-8.444v-1.006h7.227v-.178c0-.553-.08-1.046-.26-1.461-.18-.415-.419-.79-.719-1.066a2.706 2.706 0 0 0-1.038-.651 3.37 3.37 0 0 0-1.257-.218c-.599 0-1.138.1-1.558.277-.439.197-.798.454-1.078.81-.279.355-.499.769-.618 1.243-.14.474-.2 1.007-.2 1.599v.434c0 .573.06 1.106.2 1.619.139.513.339.967.618 1.362.28.395.659.69 1.118.908.46.217 1.019.336 1.677.336.479 0 .919-.06 1.278-.158.359-.1.679-.257.938-.454.26-.198.459-.415.579-.652.14-.237.2-.493.2-.77v-.118h1.158v.118c0 .435-.1.85-.3 1.224a3.04 3.04 0 0 1-.838.987c-.36.277-.799.494-1.318.652a5.817 5.817 0 0 1-1.717.237c-.838 0-1.557-.119-2.176-.375v-.08ZM215.946 53.852h-4.691v-1.164h10.66v1.164h-4.691v12.614h-1.298V53.852h.02ZM224.331 66.288c-.599-.256-1.118-.611-1.518-1.085a4.63 4.63 0 0 1-.898-1.698c-.2-.671-.28-1.382-.28-2.191v-.118c0-.77.1-1.461.3-2.093.2-.632.499-1.184.878-1.639.4-.453.879-.809 1.478-1.066.599-.256 1.277-.375 2.076-.375.679 0 1.298.119 1.837.336a3.875 3.875 0 0 1 1.417.948c.399.414.699.888.918 1.46.22.573.32 1.185.32 1.895v1.007h-8.445v-1.006h7.227v-.178c0-.553-.08-1.046-.26-1.461-.179-.415-.419-.79-.718-1.066a2.721 2.721 0 0 0-1.038-.651 3.379 3.379 0 0 0-1.258-.218c-.599 0-1.138.1-1.557.277-.439.197-.799.454-1.078.81-.28.355-.499.769-.619 1.243-.14.474-.2 1.007-.2 1.599v.434c0 .573.06 1.106.2 1.619.14.513.339.967.619 1.362.279.395.658.69 1.118.908.459.217 1.018.336 1.677.336a4.9 4.9 0 0 0 1.277-.158 2.76 2.76 0 0 0 .939-.454c.259-.198.459-.415.578-.652.14-.237.2-.493.2-.77v-.118h1.158v.118c0 .435-.1.85-.299 1.224-.2.375-.48.71-.839.987a4.084 4.084 0 0 1-1.318.652 5.815 5.815 0 0 1-1.716.237c-.839 0-1.558-.119-2.176-.375v-.08ZM235.93 61.117l-3.614-4.895h1.398l3.194 4.441h-.619l3.194-4.441h1.398l-3.594 4.895 3.913 5.33h-1.437l-3.514-4.856h.639l-3.494 4.856h-1.437l3.933-5.33h.04ZM243.376 56.222h1.178v4.303h5.789v-4.303h1.198v10.225h-1.198v-4.816h-5.789v4.816h-1.178V56.222ZM257.051 66.288a4.116 4.116 0 0 1-1.497-1.066 4.473 4.473 0 0 1-.919-1.658 7.309 7.309 0 0 1-.299-2.151v-.119c0-.77.1-1.48.299-2.132.2-.651.499-1.204.919-1.678.419-.474.898-.829 1.497-1.086.579-.256 1.258-.375 2.036-.375.779 0 1.458.139 2.037.395a4.264 4.264 0 0 1 1.477 1.086c.399.454.699 1.007.918 1.658.22.652.32 1.362.32 2.132v.119c0 .77-.1 1.46-.28 2.112a4.633 4.633 0 0 1-.858 1.678c-.38.474-.859.829-1.478 1.085-.599.257-1.297.395-2.116.395-.818 0-1.457-.118-2.056-.375v-.02Zm3.633-.947c.42-.217.779-.493 1.058-.869.28-.375.48-.829.619-1.342.14-.533.22-1.105.22-1.737v-.119c0-.572-.08-1.125-.22-1.638a4.27 4.27 0 0 0-.639-1.362 2.808 2.808 0 0 0-1.078-.908c-.439-.217-.958-.316-1.557-.316s-1.158.118-1.597.316a2.958 2.958 0 0 0-1.078.888c-.279.375-.499.83-.619 1.343a7.306 7.306 0 0 0-.199 1.658v.118c0 .612.079 1.165.219 1.698.14.533.36.987.659 1.362.299.395.659.69 1.098.888.439.217.978.316 1.597.316.579 0 1.078-.099 1.517-.316v.02ZM265.496 66.487s-.18 0-.26-.02v-1.145s.12.02.18.02h.18c.359 0 .658-.099.898-.277.22-.197.419-.513.539-.987.14-.473.22-1.105.28-1.895.039-.809.079-1.816.079-3.02v-2.941h6.748v10.225h-1.178v-9.14h-4.432v1.836c0 1.283-.04 2.389-.099 3.317-.06.928-.2 1.678-.38 2.29-.179.592-.459 1.046-.818 1.322-.36.296-.839.434-1.418.434h-.299l-.02-.02ZM279.67 66.288a4.116 4.116 0 0 1-1.497-1.066 4.473 4.473 0 0 1-.919-1.658 7.309 7.309 0 0 1-.299-2.151v-.119c0-.77.1-1.48.299-2.132.2-.651.499-1.204.919-1.678.419-.474.898-.829 1.497-1.086.579-.256 1.258-.375 2.036-.375.779 0 1.458.139 2.036.395a4.277 4.277 0 0 1 1.478 1.086c.399.454.698 1.007.918 1.658.22.652.32 1.362.32 2.132v.119c0 .77-.1 1.46-.28 2.112a4.633 4.633 0 0 1-.858 1.678c-.38.474-.859.829-1.478 1.085-.599.257-1.297.395-2.116.395-.818 0-1.457-.118-2.056-.375v-.02Zm3.613-.947c.42-.217.779-.493 1.058-.869.28-.375.48-.829.619-1.342.14-.533.22-1.105.22-1.737v-.119c0-.572-.08-1.125-.22-1.638a4.27 4.27 0 0 0-.639-1.362 2.808 2.808 0 0 0-1.078-.908c-.439-.217-.958-.316-1.557-.316s-1.158.118-1.597.316a2.958 2.958 0 0 0-1.078.888c-.279.375-.499.83-.619 1.343a7.25 7.25 0 0 0-.199 1.658v.118c0 .612.079 1.165.219 1.698.14.533.36.987.659 1.362.299.395.659.69 1.098.888.439.217.978.316 1.597.316.579 0 1.078-.099 1.517-.316v.02ZM289.252 56.222h6.608v1.085h-5.43v9.14h-1.178V56.222ZM298.056 56.222h1.178v9.16l-.299-.08 6.089-9.08h1.337v10.225h-1.198v-9.14l.32.08-6.069 9.06h-1.358V56.222ZM309.695 56.222h1.178v9.16l-.3-.08 6.089-9.08H318v10.225h-1.198v-9.14l.319.08-6.069 9.06h-1.357V56.222Z"/></g></svg>