<svg xmlns="http://www.w3.org/2000/svg" fill="none" viewBox="0 0 246 78">
  <path fill="#18222C" d="m177.082 64-3.344-4.177 3.184-3.952h1.568l-3.584 4.416.064-.88L178.682 64h-1.6Zm-4.704-3.617V59.2h2.32v1.184h-2.32ZM171.69 64v-8.128h1.28V64h-1.28ZM161.284 64V55.87h1.28v6.896l-.368-.304 5.376-6.592h1.2V64h-1.28v-6.912l.368.304L162.468 64h-1.184ZM157.067 64V55.87h1.296V64h-1.296Zm-6.064 0V55.87h1.28V64h-1.28Zm.48-3.6v-1.217h6.256V60.4h-6.256ZM147.908 66.4v-2.833l.608.432H135.14v-1.2h13.984v3.6h-1.216ZM134.612 64V55.87h1.28V64h-1.28Zm5.856-.497v-7.632h1.264v7.632h-1.264Zm5.824 0v-7.632h1.296v7.632h-1.296ZM128.103 64.192c-.822 0-1.558-.182-2.208-.544a3.914 3.914 0 0 1-1.504-1.504c-.363-.64-.544-1.376-.544-2.208 0-.832.181-1.568.544-2.208a3.914 3.914 0 0 1 1.504-1.504c.65-.363 1.386-.544 2.208-.544.832 0 1.568.181 2.208.544.65.362 1.157.864 1.52 1.504.362.64.544 1.376.544 2.208 0 .832-.182 1.568-.544 2.208a3.895 3.895 0 0 1-1.52 1.504c-.64.362-1.376.544-2.208.544Zm0-1.216c.576 0 1.088-.128 1.536-.384.448-.256.8-.614 1.056-1.072.256-.459.384-.987.384-1.584 0-.598-.128-1.126-.384-1.584a2.757 2.757 0 0 0-1.056-1.072c-.448-.256-.96-.384-1.536-.384-.566 0-1.078.128-1.536.384-.448.256-.8.613-1.056 1.072-.246.458-.368.986-.368 1.584 0 .597.122 1.125.368 1.584.256.458.608.816 1.056 1.072.458.256.97.384 1.536.384ZM116.895 61.535l-3.104-4.08.304-.224V64h-1.28v-8.128h1.184l3.344 4.4h-.256l3.344-4.4h1.184V64h-1.28v-6.768l.304.224-3.088 4.08h-.656ZM106.306 64.192c-.822 0-1.558-.182-2.208-.544a3.914 3.914 0 0 1-1.504-1.504c-.363-.64-.544-1.376-.544-2.208 0-.832.181-1.568.544-2.208a3.914 3.914 0 0 1 1.504-1.504c.65-.363 1.386-.544 2.208-.544.832 0 1.568.181 2.208.544.65.362 1.157.864 1.52 1.504.362.64.544 1.376.544 2.208 0 .832-.182 1.568-.544 2.208a3.895 3.895 0 0 1-1.52 1.504c-.64.362-1.376.544-2.208.544Zm0-1.216c.576 0 1.088-.128 1.536-.384.448-.256.8-.614 1.056-1.072.256-.459.384-.987.384-1.584 0-.598-.128-1.126-.384-1.584a2.757 2.757 0 0 0-1.056-1.072c-.448-.256-.96-.384-1.536-.384-.566 0-1.078.128-1.536.384-.448.256-.8.613-1.056 1.072-.246.458-.368.986-.368 1.584 0 .597.122 1.125.368 1.584.256.458.608.816 1.056 1.072.458.256.97.384 1.536.384ZM98.52 64V55.87h1.296V64H98.52Zm-6.064 0V55.87h1.28V64h-1.28Zm.48-6.929v-1.2h6.256v1.2h-6.256ZM202.05 45V36.87h1.28v6.896l-.368-.304 5.376-6.592h1.2V45h-1.28v-6.912l.368.304L203.234 45h-1.184Zm3.744-9.425c-.726 0-1.28-.181-1.664-.544-.374-.373-.603-.949-.688-1.728l.992-.192c.053.534.186.923.4 1.168.224.235.544.352.96.352.426 0 .746-.117.96-.352.224-.245.357-.634.4-1.168l.992.192c-.075.779-.304 1.355-.688 1.728-.384.363-.939.544-1.664.544ZM189.3 45V36.87h1.28V44.343l-.512-.528h2.784c.576 0 1.018-.139 1.328-.416.32-.288.48-.688.48-1.2 0-.501-.16-.89-.48-1.168-.31-.288-.752-.432-1.328-.432h-2.992l-.032-1.168h3.04c.97 0 1.728.25 2.272.752.544.49.816 1.168.816 2.032 0 .864-.272 1.547-.816 2.048-.544.49-1.302.736-2.272.736H189.3Zm8.544 0V36.87h1.28V45h-1.28ZM185.083 45V36.87h1.296V45h-1.296Zm-6.064 0V36.87h1.28V45h-1.28Zm.48-3.6v-1.217h6.256V41.4h-6.256ZM172.747 45.192c-.768 0-1.456-.182-2.064-.544a3.797 3.797 0 0 1-1.424-1.504c-.341-.651-.512-1.387-.512-2.208 0-.811.171-1.542.512-2.192a3.919 3.919 0 0 1 1.424-1.52c.608-.363 1.296-.544 2.064-.544.779 0 1.472.181 2.08.544a3.73 3.73 0 0 1 1.44 1.52c.352.64.528 1.37.528 2.192 0 .821-.176 1.557-.528 2.208a3.755 3.755 0 0 1-1.44 1.504c-.608.362-1.301.544-2.08.544Zm-4.432 3.488V36.872h1.264v2.144l-.416 1.92.432 1.984v5.76h-1.28Zm4.224-4.704c.576 0 1.088-.128 1.536-.384a2.646 2.646 0 0 0 1.04-1.072c.256-.47.384-.998.384-1.584 0-.587-.128-1.11-.384-1.568a2.622 2.622 0 0 0-1.04-1.088c-.448-.256-.96-.384-1.536-.384-.565 0-1.072.133-1.52.4-.448.256-.8.613-1.056 1.072-.256.458-.384.981-.384 1.568 0 .586.128 1.109.384 1.568.256.458.608.821 1.056 1.088a3.01 3.01 0 0 0 1.52.384ZM161.227 45.112c-.874 0-1.578-.23-2.112-.688-.533-.47-.8-1.077-.8-1.824 0-.821.304-1.477.912-1.968.608-.49 1.419-.736 2.432-.736.47 0 .939.048 1.408.144.48.096.955.235 1.424.416v1.072c-1.013-.352-1.909-.528-2.688-.528-.693 0-1.232.139-1.616.416-.384.267-.576.64-.576 1.12 0 .448.16.8.48 1.056.331.256.79.384 1.376.384.544 0 1.03-.106 1.456-.32.427-.213.758-.501.992-.864.246-.373.368-.784.368-1.232v-.464l-.016-.192v-1.12c0-.618-.186-1.077-.56-1.376-.373-.31-.954-.464-1.744-.464-.426 0-.858.059-1.296.176a7.389 7.389 0 0 0-1.376.512l-.384-1.072a8.736 8.736 0 0 1 1.616-.624 6.065 6.065 0 0 1 1.536-.192c1.12 0 1.979.261 2.576.784.608.523.912 1.27.912 2.24V45h-1.248l-.016-1.824.32.032a2.82 2.82 0 0 1-.768.992 3.56 3.56 0 0 1-1.184.672 4.2 4.2 0 0 1-1.424.24ZM154.786 45V36.87h1.296V45h-1.296Zm-6.064 0V36.87h1.28V45h-1.28Zm.48-3.6v-1.217h6.256V41.4h-6.256ZM138.315 45V36.87h1.28v6.896l-.368-.304 5.376-6.592h1.2V45h-1.28v-6.912l.368.304L139.499 45h-1.184ZM132.044 45.192c-.768 0-1.456-.182-2.064-.544a3.797 3.797 0 0 1-1.424-1.504c-.341-.651-.512-1.387-.512-2.208 0-.811.171-1.542.512-2.192a3.919 3.919 0 0 1 1.424-1.52c.608-.363 1.296-.544 2.064-.544.779 0 1.472.181 2.08.544a3.73 3.73 0 0 1 1.44 1.52c.352.64.528 1.37.528 2.192 0 .821-.176 1.557-.528 2.208a3.755 3.755 0 0 1-1.44 1.504c-.608.362-1.301.544-2.08.544Zm-4.432 3.488V36.872h1.264v2.144l-.416 1.92.432 1.984v5.76h-1.28Zm4.224-4.704c.576 0 1.088-.128 1.536-.384a2.646 2.646 0 0 0 1.04-1.072c.256-.47.384-.998.384-1.584 0-.587-.128-1.11-.384-1.568a2.622 2.622 0 0 0-1.04-1.088c-.448-.256-.96-.384-1.536-.384-.565 0-1.072.133-1.52.4-.448.256-.8.613-1.056 1.072-.256.458-.384.981-.384 1.568 0 .586.128 1.109.384 1.568.256.458.608.821 1.056 1.088a3.01 3.01 0 0 0 1.52.384ZM121.554 45.192c-.821 0-1.552-.176-2.192-.528a3.84 3.84 0 0 1-1.472-1.504c-.341-.651-.512-1.392-.512-2.224 0-.822.171-1.552.512-2.192a3.84 3.84 0 0 1 1.456-1.52c.619-.363 1.323-.544 2.112-.544.853 0 1.605.218 2.256.656a3.83 3.83 0 0 1 1.456 1.792c.32.746.416 1.562.288 2.448h-1.248c.128-.672.091-1.291-.112-1.856a2.722 2.722 0 0 0-1.008-1.36c-.459-.331-1.003-.496-1.632-.496a2.77 2.77 0 0 0-1.472.4 2.685 2.685 0 0 0-1.008 1.088c-.235.458-.352.981-.352 1.568v.192c0 .544.123 1.04.368 1.488.256.437.608.784 1.056 1.04.459.245.965.368 1.52.368a3.68 3.68 0 0 0 1.504-.304c.469-.214.88-.512 1.232-.896l.784.848a4.28 4.28 0 0 1-1.52 1.136c-.597.266-1.269.4-2.016.4Zm-3.296-3.616v-1.12h6.176v1.12h-6.176ZM112.423 45v-7.793h1.296V45h-1.296Zm-2.96-6.929v-1.2h7.2v1.2h-7.2ZM104.851 45.192c-.822 0-1.552-.176-2.192-.528a3.833 3.833 0 0 1-1.472-1.504c-.342-.651-.512-1.392-.512-2.224 0-.822.17-1.552.512-2.192a3.84 3.84 0 0 1 1.456-1.52c.618-.363 1.322-.544 2.112-.544.853 0 1.605.218 2.256.656a3.836 3.836 0 0 1 1.456 1.792c.32.746.416 1.562.288 2.448h-1.248c.128-.672.09-1.291-.112-1.856a2.722 2.722 0 0 0-1.008-1.36c-.459-.331-1.003-.496-1.632-.496a2.77 2.77 0 0 0-1.472.4 2.685 2.685 0 0 0-1.008 1.088c-.235.458-.352.981-.352 1.568v.192c0 .544.122 1.04.368 1.488.256.437.608.784 1.056 1.04.458.245.965.368 1.52.368a3.68 3.68 0 0 0 1.504-.304c.469-.214.88-.512 1.232-.896l.784.848c-.406.48-.912.858-1.52 1.136-.598.266-1.27.4-2.016.4Zm-3.296-3.616v-1.12h6.176v1.12h-6.176ZM92.456 45V36.87h3.888c.79 0 1.419.192 1.888.576.48.384.72.896.72 1.536 0 .459-.128.87-.384 1.232a2.168 2.168 0 0 1-1.056.768l-.016-.32c.512.107.928.352 1.248.736.32.373.48.821.48 1.344 0 .672-.256 1.216-.768 1.632-.512.416-1.179.624-2 .624h-4Zm1.28-.56-.528-.497h3.216c.48 0 .853-.112 1.12-.336.267-.235.4-.555.4-.96 0-.405-.133-.72-.4-.944-.267-.224-.64-.336-1.12-.336h-3.056v-1.024h2.944c.437 0 .773-.107 1.008-.32.235-.213.352-.512.352-.896 0-.373-.117-.667-.352-.88-.235-.213-.57-.32-1.008-.32h-3.104l.528-.496v7.008ZM237.564 26V17.87h1.28v6.896l-.368-.304 5.376-6.592h1.2V26h-1.28v-6.912l.368.304L238.748 26h-1.184Zm3.744-9.425c-.725 0-1.28-.181-1.664-.544-.373-.373-.602-.949-.688-1.728l.992-.192c.054.534.187.923.4 1.168.224.235.544.352.96.352.427 0 .747-.117.96-.352.224-.245.358-.634.4-1.168l.992.192c-.074.779-.304 1.355-.688 1.728-.384.363-.938.544-1.664.544ZM224.814 26V17.87h1.28V25.343l-.512-.528h2.784c.576 0 1.019-.139 1.328-.416.32-.288.48-.688.48-1.2 0-.501-.16-.89-.48-1.168-.309-.288-.752-.432-1.328-.432h-2.992l-.032-1.168h3.04c.971 0 1.728.25 2.272.752.544.49.816 1.168.816 2.032 0 .864-.272 1.547-.816 2.048-.544.49-1.301.736-2.272.736h-3.568Zm8.544 0V17.87h1.28V26h-1.28ZM220.598 26V17.87h1.296V26h-1.296Zm-6.064 0V17.87h1.28V26h-1.28Zm.48-3.6v-1.217h6.256V22.4h-6.256ZM205.987 26V17.87h1.28V25.343l-.512-.528h2.784c.576 0 1.019-.139 1.328-.416.32-.288.48-.688.48-1.2 0-.501-.16-.89-.48-1.168-.309-.288-.752-.432-1.328-.432h-2.992l-.032-1.168h3.04c.971 0 1.728.25 2.272.752.544.49.816 1.168.816 2.032 0 .864-.272 1.547-.816 2.048-.544.49-1.301.736-2.272.736h-3.568ZM194.676 24.991c.501-.128.88-.277 1.136-.448.256-.17.442-.41.56-.72.128-.31.218-.752.272-1.328l.368-4.624h6.064V26h-1.296v-7.424l.528.496H197.7l.544-.496-.304 4.032c-.064.757-.198 1.365-.4 1.824a2.365 2.365 0 0 1-.896 1.088c-.406.267-.955.47-1.648.608l-.32-1.136ZM188.868 26.112c-.875 0-1.579-.23-2.112-.688-.533-.47-.8-1.077-.8-1.824 0-.821.304-1.477.912-1.968.608-.49 1.419-.736 2.432-.736.469 0 .939.048 1.408.144.48.096.955.235 1.424.416v1.072c-1.013-.352-1.909-.528-2.688-.528-.693 0-1.232.139-1.616.416-.384.267-.576.64-.576 1.12 0 .448.16.8.48 1.056.331.256.789.384 1.376.384.544 0 1.029-.107 1.456-.32a2.46 2.46 0 0 0 .992-.864 2.2 2.2 0 0 0 .368-1.232v-.464l-.016-.192v-1.12c0-.618-.187-1.077-.56-1.376-.373-.31-.955-.464-1.744-.464-.427 0-.859.059-1.296.176a7.363 7.363 0 0 0-1.376.512l-.384-1.072a8.709 8.709 0 0 1 1.616-.624 6.065 6.065 0 0 1 1.536-.192c1.12 0 1.979.262 2.576.784.608.523.912 1.27.912 2.24V26h-1.248l-.016-1.824.32.032a2.844 2.844 0 0 1-.768.992 3.57 3.57 0 0 1-1.184.672c-.448.16-.923.24-1.424.24ZM178.833 29.76c-.491 0-.96-.097-1.408-.289l.352-1.12c.299.117.624.176.976.176.395 0 .709-.096.944-.288.235-.181.453-.528.656-1.04l.88-2.256.928-2.48 1.744-4.592h1.376l-3.744 9.76c-.277.725-.64 1.259-1.088 1.6-.437.352-.976.528-1.616.528Zm2.016-3.025-3.936-8.864h1.408l2.016 4.576 1.216 2.752-.704 1.536ZM171.97 26v-7.793h1.296V26h-1.296Zm-2.96-6.929v-1.2h7.2v1.2h-7.2ZM166.926 26l-3.344-4.177 3.184-3.952h1.568l-3.584 4.416.064-.88L168.526 26h-1.6Zm-4.704-3.617V21.2h2.32v1.184h-2.32ZM161.534 26v-8.128h1.28V26h-1.28ZM155.476 26.192c-.822 0-1.552-.176-2.192-.528a3.833 3.833 0 0 1-1.472-1.504c-.342-.651-.512-1.392-.512-2.224 0-.822.17-1.552.512-2.192a3.84 3.84 0 0 1 1.456-1.52c.618-.363 1.322-.544 2.112-.544.853 0 1.605.218 2.256.656a3.836 3.836 0 0 1 1.456 1.792c.32.746.416 1.562.288 2.448h-1.248c.128-.672.09-1.291-.112-1.856a2.722 2.722 0 0 0-1.008-1.36c-.459-.331-1.003-.496-1.632-.496a2.77 2.77 0 0 0-1.472.4 2.685 2.685 0 0 0-1.008 1.088c-.235.458-.352.981-.352 1.568v.192c0 .544.122 1.04.368 1.488.256.437.608.784 1.056 1.04.458.245.965.368 1.52.368a3.68 3.68 0 0 0 1.504-.304c.469-.214.88-.512 1.232-.896l.784.848c-.406.48-.912.858-1.52 1.136-.598.266-1.27.4-2.016.4Zm-3.296-3.616v-1.12h6.176v1.12h-6.176ZM140.676 24.991c.501-.128.88-.277 1.136-.448.256-.17.442-.41.56-.72.128-.31.218-.752.272-1.328l.368-4.624h6.064V26h-1.296v-7.424l.528.496H143.7l.544-.496-.304 4.032c-.064.757-.198 1.365-.4 1.824a2.365 2.365 0 0 1-.896 1.088c-.406.267-.955.47-1.648.608l-.32-1.136ZM130.66 24.991c.501-.128.88-.277 1.136-.448.256-.17.443-.41.56-.72.128-.31.219-.752.272-1.328l.368-4.624h6.064V26h-1.296v-7.424l.528.496h-4.608l.544-.496-.304 4.032c-.064.757-.197 1.365-.4 1.824a2.365 2.365 0 0 1-.896 1.088c-.405.267-.955.47-1.648.608l-.32-1.136ZM126.085 26.192c-.821 0-1.552-.176-2.192-.528a3.84 3.84 0 0 1-1.472-1.504c-.341-.651-.512-1.392-.512-2.224 0-.822.171-1.552.512-2.192a3.847 3.847 0 0 1 1.456-1.52c.619-.363 1.323-.544 2.112-.544.854 0 1.606.218 2.256.656a3.824 3.824 0 0 1 1.456 1.792c.32.746.416 1.562.288 2.448h-1.248c.128-.672.091-1.291-.112-1.856a2.71 2.71 0 0 0-1.008-1.36c-.458-.331-1.002-.496-1.632-.496-.544 0-1.034.133-1.472.4a2.698 2.698 0 0 0-1.008 1.088c-.234.458-.352.981-.352 1.568v.192c0 .544.123 1.04.368 1.488.256.437.608.784 1.056 1.04.459.245.966.368 1.52.368.544 0 1.046-.102 1.504-.304.47-.214.88-.512 1.232-.896l.784.848a4.28 4.28 0 0 1-1.52 1.136c-.597.266-1.269.4-2.016.4Zm-3.296-3.616v-1.12h6.176v1.12h-6.176ZM116.954 26v-7.793h1.296V26h-1.296Zm-2.96-6.929v-1.2h7.2v1.2h-7.2ZM110.848 26V17.87h1.296V26h-1.296Zm-6.064 0V17.87h1.28V26h-1.28Zm.48-3.6v-1.217h6.256V22.4h-6.256ZM92.6 26V14.8h1.328V25.25l-.528-.784 7.104-9.664h1.232V26h-1.344V15.505l.56.8L93.816 26H92.6Z"/>
  <rect width="76" height="78" fill="var(--color-square)" rx="10.505"/>
  <path fill="var(--color-text)" d="M18.302 58.178c-.753 0-1.206.361-1.417 1.115l-.874 3.044s-.06.12-.151.12c-.09 0-.12 0-.151-.12l-.874-3.014c-.181-.754-.664-1.145-1.418-1.145-.874 0-1.417.512-1.417 1.326v4.129h1.327v-4.1s0-.09.18-.09c.121 0 .152.03.182.121l.904 3.044c.242.784.603 1.115 1.267 1.115.663 0 1.025-.331 1.266-1.115l.905-3.044s.03-.12.18-.12c.182 0 .182.06.182.09v4.099h1.357v-4.13c0-.813-.543-1.325-1.418-1.325h-.03ZM24.394 61.615c1.267 0 1.87-.543 1.87-1.628 0-.783-.332-1.718-1.87-1.718h-1.628c-1.236 0-1.93.664-1.93 1.839v1.688c0 1.175.694 1.838 1.93 1.838h3.257v-1.356h-3.257c-.392 0-.573-.15-.573-.513v-.18h2.171l.03.03Zm-1.628-2.02h1.598c.452 0 .513.242.513.422 0 .181-.03.392-.543.392h-2.171v-.331c0-.332.18-.513.573-.513l.03.03ZM26.956 59.596h1.93v4.038h1.387v-4.038h1.9V58.27h-5.217v1.326ZM36.396 58.27H33.2v1.356h3.166c.392 0 .573.15.573.512v.18h-2.171c-1.267 0-1.87.543-1.87 1.628 0 .784.332 1.718 1.87 1.718h2.322c.905 0 1.206-.301 1.206-1.205v-2.351c0-1.175-.693-1.838-1.93-1.838h.03Zm.573 3.947v.06h-2.201c-.452 0-.513-.21-.513-.421s.03-.392.543-.392h2.171v.754ZM44.386 58.27h-4.161c-.453 0-.724.24-.724.723v4.671h1.387v-4.038h2.835v4.038h1.387v-4.671c0-.452-.272-.724-.724-.724ZM49.935 61.615c1.267 0 1.87-.543 1.87-1.628 0-.783-.332-1.718-1.87-1.718h-1.628c-1.236 0-1.93.664-1.93 1.839v1.688c0 1.175.694 1.838 1.93 1.838h3.257v-1.356h-3.257c-.392 0-.573-.15-.573-.513v-.18h2.171l.03.03Zm-1.598-2.02h1.598c.453 0 .513.242.513.422 0 .181-.03.392-.543.392h-2.171v-.331c0-.332.18-.513.573-.513l.03.03ZM52.35 59.596h1.9v4.038h1.386v-4.038h1.9V58.27H52.35v1.326ZM60.7 59.594h2.653v-1.356h-2.774c-1.508 0-2.352.965-2.352 2.682 0 1.718.844 2.683 2.352 2.683h2.774v-1.357h-2.654c-.663 0-1.055-.21-1.055-1.326 0-1.115.422-1.356 1.055-1.356v.03Z"/>
  <path fill="var(--color-figure)" d="M59.435 29.98s-.073-.364-.073-.437l-3.164-14.578c-.473-2.29-2.401-3.926-4.62-3.926-1.782 0-3.383 1.054-4.183 2.727l-3.529 7.27h-9.784l-3.529-7.27c-.8-1.673-2.437-2.727-4.183-2.727-2.219 0-4.11 1.636-4.62 3.926l-3.128 14.542s-.036.218-.073.327v.146c0 .109-.036.254-.072.363-5.166.546-9.24 4.872-9.24 10.107 0 5.598 4.656 10.179 10.367 10.179h18.26v-3.236H19.569c-3.929 0-7.093-3.09-7.093-6.907 0-3.454 2.619-6.326 6.002-6.835.836 5.199 5.383 9.198 10.912 9.198h19.243c6.074 0 11.021-4.871 11.021-10.87 0-.654-.072-1.272-.181-1.927l-.037-.072Z"/>
  <path fill="#fff" d="M54.415 31.868c0-3.127-2.62-5.708-5.82-5.708H29.352c-3.2 0-5.82 2.545-5.82 5.708 0 3.163 2.62 5.707 5.82 5.707h9.64v6.253l12.586-7.089c1.71-.981 2.837-2.799 2.837-4.871Z"/>
  <path fill="#18222C" d="M29.208 34.884a3.018 3.018 0 1 0-3.02-3.017 3.018 3.018 0 0 0 3.02 3.017ZM48.739 34.884a3.018 3.018 0 1 0-3.02-3.017 3.018 3.018 0 0 0 3.02 3.017ZM38.993 51.972a3.018 3.018 0 1 0-3.02-3.017 3.018 3.018 0 0 0 3.02 3.017Z"/>
</svg>