<svg xmlns="http://www.w3.org/2000/svg" fill="none" viewBox="0 0 93 76"><path fill="#8965FD" d="M92.681 34.798s-.13-.656-.16-.8L86.713 7.222C85.807 3 82.276 0 78.201 0c-3.256 0-6.243 1.925-7.744 4.996l-6.54 13.336H45.898l-6.54-13.336C37.857 1.925 34.87 0 31.614 0 27.539 0 24 2.999 23.1 7.223L17.315 33.89l-.13.599s-.051.26-.051.288l-.109.656C7.461 36.449 0 44.378 0 53.973c0 10.288 8.57 18.65 19.099 18.65h33.673v-5.947H19.099c-7.23 0-13.117-5.695-13.117-12.703 0-6.329 4.807-11.591 11.072-12.55 1.53 9.537 9.963 16.847 20.1 16.847h35.493C83.87 58.27 93 49.31 93 38.301a19.93 19.93 0 0 0-.319-3.503Z"/><path fill="#fff" d="M83.422 38.301c0-5.76-4.83-10.446-10.768-10.446H37.161c-5.939 0-10.768 4.686-10.768 10.446s4.83 10.446 10.768 10.446h17.801v11.505l23.217-12.99c3.14-1.824 5.25-5.162 5.25-8.96h-.007Z"/><path fill="#18222C" d="M36.885 43.839c3.076 0 5.569-2.48 5.569-5.537 0-3.058-2.493-5.536-5.569-5.536-3.075 0-5.568 2.478-5.568 5.536 0 3.058 2.493 5.537 5.568 5.537ZM72.936 43.839c3.076 0 5.569-2.48 5.569-5.537 0-3.058-2.493-5.536-5.569-5.536-3.075 0-5.568 2.478-5.568 5.536 0 3.058 2.493 5.537 5.568 5.537ZM54.955 75.19c3.075 0 5.569-2.479 5.569-5.536 0-3.058-2.494-5.537-5.57-5.537-3.075 0-5.568 2.479-5.568 5.537 0 3.057 2.493 5.536 5.569 5.536Z"/></svg>