<svg xmlns="http://www.w3.org/2000/svg" fill="none" viewBox="0 0 244 54"><path fill="#18222C" d="M96.275 18.468c-2.472 0-3.992 1.216-4.643 3.702l-2.831 9.93c-.115.388-.203.424-.526.424s-.406-.041-.52-.419l-2.858-9.92c-.64-2.5-2.15-3.717-4.617-3.717-2.879 0-4.67 1.651-4.67 4.302v13.56H80V22.92c0-.16 0-.341.562-.341.416 0 .489.134.557.362l2.988 9.972c.77 2.542 2.02 3.629 4.174 3.629 2.155 0 3.41-1.087 4.143-3.63l2.988-9.971c.068-.223.135-.362.552-.362.562 0 .562.18.562.341v13.41h4.419V22.77c0-2.656-1.79-4.302-4.669-4.302ZM116.263 29.708c4.17 0 6.194-1.74 6.194-5.328 0-2.573-1.067-5.633-6.163-5.633h-5.325c-4.034 0-6.35 2.19-6.35 6.006v5.57c0 3.816 2.316 6.006 6.35 6.006h10.676v-4.426h-10.676c-1.296 0-1.899-.523-1.899-1.641v-.56h7.188l.005.006Zm-5.288-6.565h5.293c1.52 0 1.713.76 1.713 1.423s-.141 1.331-1.806 1.331h-7.1v-1.113c0-1.103.619-1.641 1.9-1.641ZM124.576 23.143h6.288v13.192h4.575V23.143h6.288v-4.396h-17.151v4.396ZM155.323 18.747h-10.488v4.396h10.457c1.275 0 1.9.538 1.9 1.64v.622h-7.189c-4.148 0-6.163 1.74-6.163 5.328 0 2.557 1.062 5.602 6.132 5.602h7.688c2.967 0 4.013-1.02 4.013-3.899v-7.678c0-3.816-2.316-6.006-6.35-6.006v-.005Zm1.869 12.944c0 .119-.016.175-.011.186a.782.782 0 0 1-.27.031h-6.913c-1.478 0-1.681-.652-1.681-1.362 0-.657.135-1.3 1.744-1.3h7.131v2.45-.006ZM181.614 18.747h-13.663c-1.525 0-2.363.823-2.363 2.325v15.263h4.544V23.143h9.307v13.192h4.575V21.072c0-1.476-.874-2.325-2.394-2.325h-.006ZM199.864 29.708c4.169 0 6.194-1.74 6.194-5.328 0-2.573-1.067-5.633-6.163-5.633h-5.325c-4.034 0-6.35 2.19-6.35 6.006v5.57c0 3.816 2.316 6.006 6.35 6.006h10.676v-4.426H194.57c-1.296 0-1.9-.523-1.9-1.641v-.56h7.189l.005.006Zm-5.294-6.565h5.294c1.52 0 1.712.76 1.712 1.423s-.14 1.331-1.806 1.331h-7.1v-1.113c0-1.103.62-1.641 1.9-1.641ZM207.734 23.143h6.288v13.192h4.575V23.143h6.288v-4.396h-17.151v4.396ZM234.775 23.143h8.776v-4.396h-9.088c-4.924 0-7.751 3.205-7.751 8.791 0 5.587 2.827 8.791 7.751 8.791h9.088v-4.426h-8.776c-2.155 0-3.487-.73-3.487-4.365 0-3.634 1.395-4.395 3.487-4.395Z"/><path fill="#8965FD" d="m66.533 24.991-.115-.575-4.17-19.228C61.599 2.154 59.064 0 56.139 0c-2.337 0-4.482 1.382-5.56 3.588l-4.694 9.578H32.949l-4.695-9.578C27.176 1.382 25.032 0 22.694 0c-2.925 0-5.465 2.154-6.11 5.188l-4.154 19.15-.094.43s-.036.187-.036.208l-.078.47C5.356 26.177 0 31.873 0 38.764c0 7.388 6.153 13.394 13.71 13.394h24.173v-4.271H13.71c-5.19 0-9.416-4.09-9.416-9.123 0-4.546 3.451-8.325 7.949-9.014 1.098 6.85 7.152 12.1 14.428 12.1h25.48c8.057 0 14.61-6.436 14.61-14.342 0-.86-.082-1.698-.228-2.516Z"/><path fill="#fff" d="M59.886 27.508c0-4.137-3.467-7.502-7.73-7.502h-25.48c-4.263 0-7.73 3.365-7.73 7.502s3.467 7.502 7.73 7.502h12.78v8.263l16.666-9.33c2.254-1.31 3.769-3.707 3.769-6.435h-.005Z"/><path fill="#18222C" d="M26.479 31.484c2.208 0 3.997-1.78 3.997-3.977 0-2.196-1.79-3.976-3.997-3.976-2.208 0-3.998 1.78-3.998 3.977 0 2.195 1.79 3.976 3.998 3.976ZM52.36 31.484c2.207 0 3.997-1.78 3.997-3.977 0-2.196-1.79-3.976-3.998-3.976s-3.997 1.78-3.997 3.977c0 2.195 1.79 3.976 3.997 3.976ZM39.45 54c2.208 0 3.998-1.78 3.998-3.976 0-2.196-1.79-3.976-3.998-3.976s-3.997 1.78-3.997 3.976c0 2.196 1.79 3.976 3.997 3.976Z"/></svg>