<svg xmlns="http://www.w3.org/2000/svg" fill="none" viewBox="0 0 234 78">
  <path fill="#18222C" d="M89.5 35V24.5h1.245v9.795l-.495-.735 6.66-9.06h1.155V35h-1.26v-9.84l.525.75L90.64 35H89.5Zm17.108 0v-7.62h1.215V35h-1.215Zm-5.685 0v-7.62h1.2V35h-1.2Zm.45-3.375v-1.14h5.865v1.14h-5.865ZM112.332 35v-7.305h1.215V35h-1.215Zm-2.775-6.495V27.38h6.75v1.125h-6.75Zm11.335 6.675c-.77 0-1.455-.165-2.055-.495-.59-.34-1.05-.81-1.38-1.41-.32-.61-.48-1.305-.48-2.085 0-.77.16-1.455.48-2.055.33-.61.785-1.085 1.365-1.425.58-.34 1.24-.51 1.98-.51.8 0 1.505.205 2.115.615.62.41 1.075.97 1.365 1.68.3.7.39 1.465.27 2.295h-1.17c.12-.63.085-1.21-.105-1.74a2.548 2.548 0 0 0-.945-1.275c-.43-.31-.94-.465-1.53-.465-.51 0-.97.125-1.38.375-.4.24-.715.58-.945 1.02-.22.43-.33.92-.33 1.47v.18c0 .51.115.975.345 1.395.24.41.57.735.99.975.43.23.905.345 1.425.345.51 0 .98-.095 1.41-.285.44-.2.825-.48 1.155-.84l.735.795c-.38.45-.855.805-1.425 1.065-.56.25-1.19.375-1.89.375Zm-3.09-3.39v-1.05h5.79v1.05h-5.79Zm7.38 2.265c.47-.12.825-.26 1.065-.42.24-.16.415-.385.525-.675.12-.29.205-.705.255-1.245l.345-4.335h5.685V35h-1.215v-6.96l.495.465h-4.32l.51-.465-.285 3.78c-.06.71-.185 1.28-.375 1.71-.18.43-.46.77-.84 1.02-.38.25-.895.44-1.545.57l-.3-1.065Zm9.389 0c.47-.12.825-.26 1.065-.42.24-.16.415-.385.525-.675.12-.29.205-.705.255-1.245l.345-4.335h5.685V35h-1.215v-6.96l.495.465h-4.32l.51-.465-.285 3.78c-.06.71-.185 1.28-.375 1.71-.18.43-.46.77-.84 1.02-.38.25-.895.44-1.545.57l-.3-1.065Zm13.875 1.125c-.77 0-1.455-.165-2.055-.495-.59-.34-1.05-.81-1.38-1.41-.32-.61-.48-1.305-.48-2.085 0-.77.16-1.455.48-2.055.33-.61.785-1.085 1.365-1.425.58-.34 1.24-.51 1.98-.51.8 0 1.505.205 2.115.615.62.41 1.075.97 1.365 1.68.3.7.39 1.465.27 2.295h-1.17c.12-.63.085-1.21-.105-1.74a2.548 2.548 0 0 0-.945-1.275c-.43-.31-.94-.465-1.53-.465-.51 0-.97.125-1.38.375-.4.24-.715.58-.945 1.02-.22.43-.33.92-.33 1.47v.18c0 .51.115.975.345 1.395.24.41.57.735.99.975.43.23.905.345 1.425.345.51 0 .98-.095 1.41-.285.44-.2.825-.48 1.155-.84l.735.795c-.38.45-.855.805-1.425 1.065-.56.25-1.19.375-1.89.375Zm-3.09-3.39v-1.05h5.79v1.05h-5.79ZM159.181 35l-3.135-3.915 2.985-3.705h1.47l-3.36 4.14.06-.825 3.48 4.305h-1.5Zm-4.41-3.39V30.5h2.175v1.11h-2.175Zm-.645 3.39v-7.62h1.2V35h-1.2Zm9.783 0v-7.305h1.215V35h-1.215Zm-2.775-6.495V27.38h6.75v1.125h-6.75Zm9.21 10.02c-.46 0-.9-.09-1.32-.27l.33-1.05c.28.11.585.165.915.165.37 0 .665-.09.885-.27.22-.17.425-.495.615-.975l.825-2.115.87-2.325 1.635-4.305h1.29l-3.51 9.15c-.26.68-.6 1.18-1.02 1.5-.41.33-.915.495-1.515.495Zm1.89-2.835-3.69-8.31h1.32l1.89 4.29 1.14 2.58-.66 1.44Zm7.517-.585c-.82 0-1.48-.215-1.98-.645-.5-.44-.75-1.01-.75-1.71 0-.77.285-1.385.855-1.845.57-.46 1.33-.69 2.28-.69.44 0 .88.045 1.32.135.45.09.895.22 1.335.39v1.005c-.95-.33-1.79-.495-2.52-.495-.65 0-1.155.13-1.515.39-.36.25-.54.6-.54 1.05 0 .42.15.75.45.99.31.24.74.36 1.29.36.51 0 .965-.1 1.365-.3.4-.2.71-.47.93-.81.23-.35.345-.735.345-1.155v-.435l-.015-.18v-1.05c0-.58-.175-1.01-.525-1.29-.35-.29-.895-.435-1.635-.435-.4 0-.805.055-1.215.165-.4.1-.83.26-1.29.48l-.36-1.005a8.164 8.164 0 0 1 1.515-.585c.46-.12.94-.18 1.44-.18 1.05 0 1.855.245 2.415.735.57.49.855 1.19.855 2.1V35h-1.17l-.015-1.71.3.03c-.16.35-.4.66-.72.93-.31.27-.68.48-1.11.63a3.94 3.94 0 0 1-1.335.225Zm5.445-1.05c.47-.12.825-.26 1.065-.42.24-.16.415-.385.525-.675.12-.29.205-.705.255-1.245l.345-4.335h5.685V35h-1.215v-6.96l.495.465h-4.32l.51-.465-.285 3.78c-.06.71-.185 1.28-.375 1.71-.18.43-.46.77-.84 1.02-.38.25-.895.44-1.545.57l-.3-1.065Zm10.605.945v-7.62h1.2v7.005l-.48-.495h2.61c.54 0 .955-.13 1.245-.39.3-.27.45-.645.45-1.125 0-.47-.15-.835-.45-1.095-.29-.27-.705-.405-1.245-.405h-2.805l-.03-1.095h2.85c.91 0 1.62.235 2.13.705.51.46.765 1.095.765 1.905s-.255 1.45-.765 1.92c-.51.46-1.22.69-2.13.69h-3.345Zm13.697 0v-7.62h1.215V35h-1.215Zm-5.685 0v-7.62h1.2V35h-1.2Zm.45-3.375v-1.14h5.865v1.14h-5.865ZM213.452 35v-7.62h1.2v7.005l-.48-.495h2.61c.54 0 .955-.13 1.245-.39.3-.27.45-.645.45-1.125 0-.47-.15-.835-.45-1.095-.29-.27-.705-.405-1.245-.405h-2.805l-.03-1.095h2.85c.91 0 1.62.235 2.13.705.51.46.765 1.095.765 1.905s-.255 1.45-.765 1.92c-.51.46-1.22.69-2.13.69h-3.345Zm8.01 0v-7.62h1.2V35h-1.2Zm3.943 0v-7.62h1.2v6.465l-.345-.285 5.04-6.18h1.125V35h-1.2v-6.48l.345.285L226.515 35h-1.11Zm3.51-8.835c-.68 0-1.2-.17-1.56-.51-.35-.35-.565-.89-.645-1.62l.93-.18c.05.5.175.865.375 1.095.21.22.51.33.9.33.4 0 .7-.11.9-.33.21-.23.335-.595.375-1.095l.93.18c-.07.73-.285 1.27-.645 1.62-.36.34-.88.51-1.56.51ZM89.365 52v-7.62h3.645c.74 0 1.33.18 1.77.54.45.36.675.84.675 1.44 0 .43-.12.815-.36 1.155-.24.33-.57.57-.99.72l-.015-.3c.48.1.87.33 1.17.69.3.35.45.77.45 1.26 0 .63-.24 1.14-.72 1.53-.48.39-1.105.585-1.875.585h-3.75Zm1.2-.525-.495-.465h3.015c.45 0 .8-.105 1.05-.315.25-.22.375-.52.375-.9s-.125-.675-.375-.885c-.25-.21-.6-.315-1.05-.315H90.22v-.96h2.76c.41 0 .725-.1.945-.3.22-.2.33-.48.33-.84 0-.35-.11-.625-.33-.825-.22-.2-.535-.3-.945-.3h-2.91l.495-.465v6.57Zm10.42.705c-.77 0-1.455-.165-2.055-.495-.59-.34-1.05-.81-1.38-1.41-.32-.61-.48-1.305-.48-2.085 0-.77.16-1.455.48-2.055.33-.61.785-1.085 1.365-1.425.58-.34 1.24-.51 1.98-.51.8 0 1.505.205 2.115.615.62.41 1.075.97 1.365 1.68.3.7.39 1.465.27 2.295h-1.17c.12-.63.085-1.21-.105-1.74a2.548 2.548 0 0 0-.945-1.275c-.43-.31-.94-.465-1.53-.465-.51 0-.97.125-1.38.375-.4.24-.715.58-.945 1.02-.22.43-.33.92-.33 1.47v.18c0 .51.115.975.345 1.395.24.41.57.735.99.975.43.23.905.345 1.425.345.51 0 .98-.095 1.41-.285.44-.2.825-.48 1.155-.84l.735.795c-.38.45-.855.805-1.425 1.065-.56.25-1.19.375-1.89.375Zm-3.09-3.39v-1.05h5.79v1.05h-5.79ZM108.084 52v-7.305h1.215V52h-1.215Zm-2.775-6.495V44.38h6.75v1.125h-6.75Zm11.335 6.675c-.77 0-1.455-.165-2.055-.495-.59-.34-1.05-.81-1.38-1.41-.32-.61-.48-1.305-.48-2.085 0-.77.16-1.455.48-2.055.33-.61.785-1.085 1.365-1.425.58-.34 1.24-.51 1.98-.51.8 0 1.505.205 2.115.615.62.41 1.075.97 1.365 1.68.3.7.39 1.465.27 2.295h-1.17c.12-.63.085-1.21-.105-1.74a2.548 2.548 0 0 0-.945-1.275c-.43-.31-.94-.465-1.53-.465-.51 0-.97.125-1.38.375-.4.24-.715.58-.945 1.02-.22.43-.33.92-.33 1.47v.18c0 .51.115.975.345 1.395.24.41.57.735.99.975.43.23.905.345 1.425.345.51 0 .98-.095 1.41-.285.44-.2.825-.48 1.155-.84l.735.795c-.38.45-.855.805-1.425 1.065-.56.25-1.19.375-1.89.375Zm-3.09-3.39v-1.05h5.79v1.05h-5.79Zm12.925 3.39c-.72 0-1.365-.17-1.935-.51a3.556 3.556 0 0 1-1.335-1.41c-.32-.61-.48-1.3-.48-2.07 0-.76.16-1.445.48-2.055.33-.61.775-1.085 1.335-1.425.57-.34 1.215-.51 1.935-.51.73 0 1.38.17 1.95.51a3.5 3.5 0 0 1 1.35 1.425c.33.6.495 1.285.495 2.055 0 .77-.165 1.46-.495 2.07-.32.6-.77 1.07-1.35 1.41-.57.34-1.22.51-1.95.51Zm-4.155 3.27V44.38h1.185v2.01l-.39 1.8.405 1.86v5.4h-1.2Zm3.96-4.41c.54 0 1.02-.12 1.44-.36.42-.24.745-.575.975-1.005.24-.44.36-.935.36-1.485s-.12-1.04-.36-1.47a2.46 2.46 0 0 0-.975-1.02c-.42-.24-.9-.36-1.44-.36-.53 0-1.005.125-1.425.375-.42.24-.75.575-.99 1.005-.24.43-.36.92-.36 1.47 0 .55.12 1.04.36 1.47.24.43.57.77.99 1.02.42.24.895.36 1.425.36Zm6.074.96v-7.62h1.2v6.465l-.345-.285 5.04-6.18h1.125V52h-1.2v-6.48l.345.285L133.468 52h-1.11Zm15.441 0v-7.62h1.215V52h-1.215Zm-5.685 0v-7.62h1.2V52h-1.2Zm.45-3.375v-1.14h5.865v1.14h-5.865Zm11.274 3.48c-.82 0-1.48-.215-1.98-.645-.5-.44-.75-1.01-.75-1.71 0-.77.285-1.385.855-1.845.57-.46 1.33-.69 2.28-.69.44 0 .88.045 1.32.135.45.09.895.22 1.335.39v1.005c-.95-.33-1.79-.495-2.52-.495-.65 0-1.155.13-1.515.39-.36.25-.54.6-.54 1.05 0 .42.15.75.45.99.31.24.74.36 1.29.36.51 0 .965-.1 1.365-.3.4-.2.71-.47.93-.81.23-.35.345-.735.345-1.155v-.435l-.015-.18v-1.05c0-.58-.175-1.01-.525-1.29-.35-.29-.895-.435-1.635-.435-.4 0-.805.055-1.215.165-.4.1-.83.26-1.29.48l-.36-1.005a8.164 8.164 0 0 1 1.515-.585c.46-.12.94-.18 1.44-.18 1.05 0 1.855.245 2.415.735.57.49.855 1.19.855 2.1V52h-1.17l-.015-1.71.3.03c-.16.35-.4.66-.72.93-.31.27-.68.48-1.11.63a3.94 3.94 0 0 1-1.335.225Zm10.8.075c-.72 0-1.365-.17-1.935-.51a3.556 3.556 0 0 1-1.335-1.41c-.32-.61-.48-1.3-.48-2.07 0-.76.16-1.445.48-2.055.33-.61.775-1.085 1.335-1.425.57-.34 1.215-.51 1.935-.51.73 0 1.38.17 1.95.51a3.5 3.5 0 0 1 1.35 1.425c.33.6.495 1.285.495 2.055 0 .77-.165 1.46-.495 2.07-.32.6-.77 1.07-1.35 1.41-.57.34-1.22.51-1.95.51Zm-4.155 3.27V44.38h1.185v2.01l-.39 1.8.405 1.86v5.4h-1.2Zm3.96-4.41c.54 0 1.02-.12 1.44-.36.42-.24.745-.575.975-1.005.24-.44.36-.935.36-1.485s-.12-1.04-.36-1.47a2.46 2.46 0 0 0-.975-1.02c-.42-.24-.9-.36-1.44-.36-.53 0-1.005.125-1.425.375-.42.24-.75.575-.99 1.005-.24.43-.36.92-.36 1.47 0 .55.12 1.04.36 1.47.24.43.57.77.99 1.02.42.24.895.36 1.425.36Zm11.759.96v-7.62h1.215V52h-1.215Zm-5.685 0v-7.62h1.2V52h-1.2Zm.45-3.375v-1.14h5.865v1.14h-5.865ZM180.156 52v-7.62h1.2v7.005l-.48-.495h2.61c.54 0 .955-.13 1.245-.39.3-.27.45-.645.45-1.125 0-.47-.15-.835-.45-1.095-.29-.27-.705-.405-1.245-.405h-2.805l-.03-1.095h2.85c.91 0 1.62.235 2.13.705.51.46.765 1.095.765 1.905s-.255 1.45-.765 1.92c-.51.46-1.22.69-2.13.69h-3.345Zm8.01 0v-7.62h1.2V52h-1.2Zm3.943 0v-7.62h1.2v6.465l-.345-.285 5.04-6.18h1.125V52h-1.2v-6.48l.345.285L193.219 52h-1.11Zm3.51-8.835c-.68 0-1.2-.17-1.56-.51-.35-.35-.565-.89-.645-1.62l.93-.18c.05.5.175.865.375 1.095.21.22.51.33.9.33.4 0 .7-.11.9-.33.21-.23.335-.595.375-1.095l.93.18c-.07.73-.285 1.27-.645 1.62-.36.34-.88.51-1.56.51ZM95.05 69v-7.62h1.215V69H95.05Zm-5.685 0v-7.62h1.2V69h-1.2Zm.45-6.495V61.38h5.865v1.125h-5.865Zm12.534 6.675c-.77 0-1.46-.17-2.07-.51-.6-.34-1.07-.81-1.41-1.41-.34-.6-.51-1.29-.51-2.07 0-.78.17-1.47.51-2.07.34-.6.81-1.07 1.41-1.41.61-.34 1.3-.51 2.07-.51.78 0 1.47.17 2.07.51.61.34 1.085.81 1.425 1.41.34.6.51 1.29.51 2.07 0 .78-.17 1.47-.51 2.07-.34.6-.815 1.07-1.425 1.41-.6.34-1.29.51-2.07.51Zm0-1.14c.54 0 1.02-.12 1.44-.36.42-.24.75-.575.99-1.005.24-.43.36-.925.36-1.485s-.12-1.055-.36-1.485c-.24-.43-.57-.765-.99-1.005-.42-.24-.9-.36-1.44-.36-.53 0-1.01.12-1.44.36-.42.24-.75.575-.99 1.005-.23.43-.345.925-.345 1.485s.115 1.055.345 1.485c.24.43.57.765.99 1.005.43.24.91.36 1.44.36Zm9.928-1.35-2.91-3.825.285-.21V69h-1.2v-7.62h1.11l3.135 4.125h-.24l3.135-4.125h1.11V69h-1.2v-6.345l.285.21-2.895 3.825h-.615Zm10.507 2.49c-.77 0-1.46-.17-2.07-.51-.6-.34-1.07-.81-1.41-1.41-.34-.6-.51-1.29-.51-2.07 0-.78.17-1.47.51-2.07.34-.6.81-1.07 1.41-1.41.61-.34 1.3-.51 2.07-.51.78 0 1.47.17 2.07.51.61.34 1.085.81 1.425 1.41.34.6.51 1.29.51 2.07 0 .78-.17 1.47-.51 2.07-.34.6-.815 1.07-1.425 1.41-.6.34-1.29.51-2.07.51Zm0-1.14c.54 0 1.02-.12 1.44-.36.42-.24.75-.575.99-1.005.24-.43.36-.925.36-1.485s-.12-1.055-.36-1.485c-.24-.43-.57-.765-.99-1.005-.42-.24-.9-.36-1.44-.36-.53 0-1.01.12-1.44.36-.42.24-.75.575-.99 1.005-.23.43-.345.925-.345 1.485s.115 1.055.345 1.485c.24.43.57.765.99 1.005.43.24.91.36 1.44.36Zm18.567 3.21v-2.655l.57.405h-12.54v-1.125h13.11v3.375h-1.14ZM128.886 69v-7.62h1.2V69h-1.2Zm5.49-.465V61.38h1.185v7.155h-1.185Zm5.46 0V61.38h1.215v7.155h-1.215Zm10.102.465v-7.62h1.215V69h-1.215Zm-5.685 0v-7.62h1.2V69h-1.2Zm.45-3.375v-1.14h5.865v1.14h-5.865ZM153.891 69v-7.62h1.2v6.465l-.345-.285 5.04-6.18h1.125V69h-1.2v-6.48l.345.285L155.001 69h-1.11Zm14.811 0-3.135-3.915 2.985-3.705h1.47l-3.36 4.14.06-.825 3.48 4.305h-1.5Zm-4.41-3.39V64.5h2.175v1.11h-2.175Zm-.645 3.39v-7.62h1.2V69h-1.2ZM103.973 3.826c-1.791 0-2.866.86-3.367 2.65l-2.078 7.23s-.143.287-.358.287-.287 0-.358-.286l-2.078-7.16c-.43-1.79-1.576-2.72-3.367-2.72-2.078 0-3.367 1.216-3.367 3.15v9.808h3.152V7.048s0-.215.43-.215c.287 0 .358.072.43.287l2.149 7.231c.573 1.862 1.433 2.65 3.009 2.65 1.576 0 2.436-.788 3.009-2.65l2.149-7.231s.071-.287.43-.287c.429 0 .429.143.429.215v9.737h3.224V6.976c0-1.933-1.289-3.15-3.367-3.15h-.071ZM118.445 11.992c3.009 0 4.442-1.289 4.442-3.866 0-1.862-.788-4.081-4.442-4.081h-3.869c-2.937 0-4.584 1.575-4.584 4.367v4.01c0 2.792 1.647 4.367 4.584 4.367h7.737v-3.222h-7.737c-.931 0-1.361-.358-1.361-1.217v-.43h5.158l.072.072Zm-3.869-4.797h3.797c1.075 0 1.218.573 1.218 1.003 0 .43-.071.93-1.289.93h-5.158v-.787c0-.788.43-1.217 1.361-1.217l.071.071ZM124.531 7.195h4.585v9.594h3.296V7.195h4.513v-3.15h-12.394v3.15ZM146.959 4.045h-7.593v3.222h7.522c.931 0 1.361.358 1.361 1.217v.43h-5.158c-3.009 0-4.442 1.288-4.442 3.866 0 1.861.788 4.08 4.442 4.08h5.516c2.149 0 2.866-.715 2.866-2.863V8.412c0-2.792-1.648-4.367-4.585-4.367h.071Zm1.362 9.38v.142H143.091c-1.075 0-1.218-.5-1.218-1.002 0-.501.072-.93 1.29-.93h5.158v1.79ZM165.94 4.045h-9.886c-1.075 0-1.719.573-1.719 1.718v11.098h3.295V7.267h6.734v9.594h3.295V5.763c0-1.074-.644-1.718-1.719-1.718ZM179.123 11.992c3.009 0 4.442-1.289 4.442-3.866 0-1.862-.788-4.081-4.442-4.081h-3.869c-2.937 0-4.584 1.575-4.584 4.367v4.01c0 2.792 1.647 4.367 4.584 4.367h7.737v-3.222h-7.737c-.931 0-1.361-.358-1.361-1.217v-.43h5.158l.072.072Zm-3.797-4.797h3.797c1.075 0 1.218.573 1.218 1.003 0 .43-.072.93-1.29.93h-5.158v-.787c0-.788.43-1.217 1.361-1.217l.072.071ZM184.859 7.195h4.514v9.594h3.295V7.195h4.513v-3.15h-12.322v3.15ZM204.696 7.196H211V3.974h-6.591c-3.582 0-5.588 2.29-5.588 6.372 0 4.08 2.006 6.372 5.588 6.372H211v-3.222h-6.304c-1.576 0-2.508-.501-2.508-3.15 0-2.65 1.003-3.222 2.508-3.222v.072Z"/>
  <rect width="76" height="78" fill="var(--color-square)" rx="10.505"/>
  <path fill="var(--color-figure)" d="M64.291 36.14s-.08-.405-.08-.486l-3.526-16.238c-.526-2.55-2.674-4.373-5.145-4.373-1.986 0-3.768 1.174-4.66 3.037l-3.93 8.099H36.051l-3.93-8.099c-.891-1.863-2.715-3.037-4.66-3.037-2.471 0-4.578 1.822-5.145 4.373L18.83 35.614s-.04.242-.08.364v.162c0 .121-.041.283-.082.405-5.753.607-10.29 5.426-10.29 11.257 0 6.236 5.185 11.338 11.546 11.338h20.34v-3.604h-20.38c-4.376 0-7.9-3.442-7.9-7.694 0-3.846 2.916-7.045 6.684-7.612.932 5.79 5.997 10.245 12.155 10.245h21.434c6.766 0 12.276-5.427 12.276-12.108 0-.729-.08-1.417-.202-2.146l-.04-.081Z"/>
  <path fill="#fff" d="M58.7 38.244c0-3.482-2.918-6.357-6.483-6.357H30.783c-3.565 0-6.482 2.834-6.482 6.357s2.917 6.358 6.482 6.358H41.52v6.965l14.02-7.897c1.903-1.093 3.16-3.118 3.16-5.426Z"/>
  <path fill="#18222C" d="M30.622 41.604a3.362 3.362 0 1 0-3.363-3.361 3.362 3.362 0 0 0 3.363 3.36ZM52.377 41.604a3.362 3.362 0 1 0-3.363-3.361 3.362 3.362 0 0 0 3.363 3.36ZM41.522 60.638a3.362 3.362 0 1 0-3.363-3.361 3.362 3.362 0 0 0 3.363 3.36Z"/>
</svg>
