<svg xmlns="http://www.w3.org/2000/svg" fill="none" viewBox="0 0 381 381"><path fill="#D2D3DD" d="M356.384 272.731c2.35 1.165 5.206.207 6.313-2.171a190.006 190.006 0 0 0-9.785-178.622A190.003 190.003 0 0 0 199.088.616c-2.62-.12-4.791 1.969-4.845 4.591-.054 2.623 2.029 4.787 4.649 4.91a180.503 180.503 0 0 1 171.873 172.682 180.508 180.508 0 0 1-16.582 83.538c-1.103 2.38-.149 5.228 2.201 6.394Z"/><path fill="#8965FD" d="M36.163 292.986c-2.185 1.452-2.783 4.405-1.276 6.552a189.995 189.995 0 0 0 159.583 80.837 189.998 189.998 0 0 0 155.999-87.554c1.414-2.21.691-5.134-1.554-6.492-2.244-1.358-5.159-.636-6.576 1.572a180.503 180.503 0 0 1-235.483 62.505A180.505 180.505 0 0 1 42.8 294.277c-1.51-2.146-4.453-2.744-6.637-1.291ZM178.731 5.537c-.165-2.618-2.423-4.612-5.036-4.381A189.998 189.998 0 0 0 21.721 277.817c1.207 2.329 4.1 3.165 6.4 1.901 2.298-1.265 3.13-4.151 1.926-6.482A180.5 180.5 0 0 1 174.295 10.64c2.613-.234 4.602-2.485 4.436-5.103Z"/></svg>