<svg xmlns="http://www.w3.org/2000/svg" fill="none" viewBox="0 0 265 190"><path fill="#C8CBD1" d="M196.013 62.175a26.88 26.88 0 0 0-20.112 5.107l-19.837 14.97-.289.176c-.068-4.007-.521-7.865-1.371-11.274-1.825-7.308-8.588-14.304-16.01-15.961l-4.28-.965-2.648-13.094 5.762-9.196a14.957 14.957 0 0 0 1.509-12.674l-1.454-4.306-14.282 3.668-.905-.476c-3.622-1.928-8.067-1.548-11.291.992l-7.367 5.773L91.283 9.73l1.29 17.332c.37 4.972 2.703 9.604 6.489 12.905l.15.136v5.27c0 4.292 1.922 8.368 5.242 11.125l7.984 6.642-3.169 14.657c-6.462 6.629-34.037 18.746-39.209 52.188-.713 4.578-.768 9.251-.288 13.856l3.732 35.575H49.757c-21.182 0-32.925-4.156-36.588-11.274a100.892 100.892 0 0 1-4.13-9.142c-.795-2.037-2.88-3.423-5.062-3.124-2.977.421-4.747 3.477-3.65 6.221l.851 2.133c5.68 14.181 19.522 23.5 34.928 23.5h101.177c0-4.429-3.622-8.015-8.095-8.015h-14.116s13.801-8.816 15.091-22.875l1.92 9.781a48.32 48.32 0 0 0 2.895 9.454l4.939 11.641h13.746v-2.201c0-3.722-.096-5.691-2.785-8.286l-4.596-2.907-9.013-37.382 1.783-12.239s4.816-6.982 9.768-14.303c2.25-3.328 3.937-7.444 5.09-11.872l.466.203 32.061-27.017 9.439 2.05c3.635.789 7.284-1.29 8.423-4.808L206 63.642l-10.001-1.48.014.013Z"/><path stroke="#875EF8" stroke-linecap="round" stroke-linejoin="round" stroke-width="2" d="m169.613 143.027 12.672-10.066M217.063 185.895 198.3 150.337l2.564-16.592 7.109-27.649M179.529 93.447l2.768 39.506 4.341 27.649 8.846 14.517c2.659 4.368 5.969 10.731 10.256 12.345M189.017 185.896l-2.985-4.965a15.77 15.77 0 0 0-15.561-7.516l-4.775.624 4.585-9.32c4.437-9.008 1.778-19.902-6.322-25.845l-19.604-14.421"/><path stroke="#875EF8" stroke-linecap="round" stroke-linejoin="round" stroke-width="2" d="m264 151.454-4.205-11.721a39.193 39.193 0 0 0-20.147-19.292l-14.299-6.051-4.898-16.32.163-.462a75.586 75.586 0 0 0 4.341-33.075l-1.587-17.311 5.956-6.268a19.297 19.297 0 0 0 5.304-13.296v-6.512l-10.473-2.374-.393-.434a11.94 11.94 0 0 0-8.846-3.907h-5.779l-3.161-11.057-5.142 12.644-2.564.394L182.275 1l4.341 28.056 2.374 11.057-3.364 24.488s-36.156 7.502-56.695 28.842c-15.561 16.158-16.389 52.246-15.873 68.81a68.793 68.793 0 0 0 2.224 15.317l2.185 8.316"/><path stroke="#875EF8" stroke-linecap="round" stroke-linejoin="round" stroke-width="2" d="m203.245 124.471 2.795 1.791a55.941 55.941 0 0 0 18.681 7.624l25.519 5.345 1.262 7.408c1.356 3.921 6.023 6.742 6.023 6.742M117.554 186.446s-18.461 3.555-41.375 0c-22.914-3.554-31.61-16.198-35.952-40.293-3.324-18.464 6.783-31.352 11.708-36.385"/><path fill="#8965FD" d="M23.048 112.233c.162-.681-.715-1.12-1.153-.577-1.084 1.328-2.571 3.545-4.093 7.032-2.975 6.778 1.983 31.233 1.983 31.233s-1.983 1.986-4.451 5.623c-2.468 3.637 1.314 12.066 1.314 12.066l-14.021 3.799s0 8.429 2.64 11.235c2.641 2.806 5.616 3.799 5.616 3.799l4.128.335-.53-3.28a7.256 7.256 0 0 0-4.382-3.775l-.703-.22v-3.637l7.76-.496 2.145 7.932-1.188 2.194c-.438.797.15 1.778 1.06 1.778h.739c1.66 0 3.182-.912 3.966-2.378.865-1.617.9-3.557.093-5.196l-2.675-5.473 7.979.184a16.12 16.12 0 0 0 11.323-4.307l7.092 1.155-2.687 6.766a6.733 6.733 0 0 0 1.015 6.697l2.998 3.718h7.091a7.113 7.113 0 0 0-2.94-5.761l-1.845-1.34 4.785-10.576 10.067-2.31.9 1.409a11.285 11.285 0 0 0 3.677 3.591l16.882 10.207 8.244.658v-.704a4.27 4.27 0 0 0-3.332-4.168l-2.606-.578-13.86-13.879 1.153-9.248 5.742.277a14.176 14.176 0 0 0 8.28-2.194l1.648-1.051-2.64-3.556.392-4.642a6.66 6.66 0 0 0-1.949-5.3l-2.398-2.367 1.487-5.785-7.922 3.476-3.147.704a16.011 16.011 0 0 0-8.326 4.861l-6.007 6.651-37.926.462-3.713-24.883 2.33-10.138-.035-.023Z"/></svg>