<svg xmlns="http://www.w3.org/2000/svg" fill="none" viewBox="0 0 192 265"><g stroke="#8965FD" stroke-linecap="round" stroke-linejoin="round" stroke-width="2" clip-path="url(#a)"><path d="m112.522 227.053 10.546-8.367M151.973 262.687l-15.609-29.557 2.143-13.792 5.91-22.983M120.767 185.846l2.3 32.839 3.609 22.982 7.354 12.067c2.21 3.631 4.962 8.92 8.526 10.262M128.65 262.687l-2.481-4.127a13.11 13.11 0 0 0-12.936-6.248l-3.97.519 3.812-7.747c3.688-7.488 1.478-16.544-5.256-21.483l-16.297-11.988"/><path d="m191.007 234.056-3.496-9.744a32.58 32.58 0 0 0-16.748-16.036l-11.887-5.029-4.072-13.567.136-.383a62.84 62.84 0 0 0 3.609-27.494l-1.32-14.389 4.951-5.21a16.04 16.04 0 0 0 4.41-11.052v-5.413l-8.707-1.973-.327-.361a9.925 9.925 0 0 0-7.353-3.248h-4.805l-2.627-9.191-4.275 10.51-2.131.327-13.297-12.799 3.609 23.321 1.973 9.191-2.797 20.355s-30.056 6.236-47.131 23.975c-12.936 13.431-13.624 43.428-13.196 57.198a57.18 57.18 0 0 0 1.85 12.732l1.816 6.912"/><path d="m140.492 211.625 2.323 1.489a46.518 46.518 0 0 0 15.531 6.337l21.214 4.443 1.049 6.158c1.128 3.259 5.007 5.605 5.007 5.605M69.203 262.687s-18.722 2.955-37.771 0c-19.049-2.954-26.278-13.464-29.887-33.493-2.763-15.348 5.639-26.061 9.733-30.245"/></g><g clip-path="url(#b)"><path stroke="#8965FD" stroke-linecap="round" stroke-linejoin="round" stroke-width="2" d="M179.96 5.89c-4.61-4.61-12.09-4.61-16.7 0l-7.34 7.34-8.35-8.35c-4.6-4.62-12.07-4.62-16.68 0l-1.01 1.01a11.781 11.781 0 0 0 0 16.69l25.04 25.04 25.04-25.04c4.61-4.61 4.61-12.09 0-16.7v.01Z"/></g><defs><clipPath id="a"><path fill="#fff" d="M0 108h192v157H0z"/></clipPath><clipPath id="b"><path fill="#fff" d="M125 0h59.84v49.05H125z"/></clipPath></defs></svg>