<svg xmlns="http://www.w3.org/2000/svg" fill="none" viewBox="0 0 254 239"><path stroke="#8965FD" stroke-linecap="round" stroke-linejoin="round" stroke-width="2" d="M191.112 235.916s-.686-74.91.105-91.661c1.685-35.71-.09-39.111-5.474-64.707-3.521-16.706 9.099-22.673 9.099-22.673s10.247 25.313 16.676 25.06c7.249-.299 25-15.424 22.345-22.599-2.655-7.175-20.883-35.098-20.883-35.098l3.863-10.113a7.274 7.274 0 0 0-2.938-8.756c-3.953-2.462-9.159-.642-10.71 3.744l-2.939 8.308-7.652-.641-2.252-10.084c-1.044-4.698-6.28-7.1-10.531-4.833l-4.982 2.655c-3.938 2.104-5.072 7.22-2.387 10.785l4.49 5.982c-15.424 9.576-22.792 39.364-47.345 50.536-24.552 11.173-50 6.921-50 6.921l7.757-56.16s-10.65 6.996-15.334 17.05c-8.294 17.81-7.742 40.662-7.742 40.662s-15.349 8.234-24.925 30.041c-9.576 21.808-6.16 37.366-6.16 37.366S8.178 180.144 2.853 190.78c-5.326 10.635 1.118 40.393 15.393 45.122"/><path stroke="#8965FD" stroke-linecap="round" stroke-linejoin="round" stroke-width="2" d="M84.448 235.462s-9.325-24.224-5.845-31.688c6.271-13.464 10.237-10.73 19.665-25.48 9.428-14.765 7.857-28.466 7.857-28.466s15.744-1.05 27.786 0c0 0-8.576 36.432-.249 67.026 2.628 9.622 11.719 18.608 11.719 18.608M38.886 235.916c-1.954-5.325-6.16-11.396-9.129-15.737-2.938-4.296-6.891-10.695-2.103-19.078 6.384-11.173 9.382-9.562 20.54-19.705 17.542-15.93 23.225-39.021 23.225-39.021s1.775 9.77-.88 23.598c-2.655 13.827-13.828 17.019-19.153 31.921-5.325 14.901 11.68 38.022 11.68 38.022M158.689 144.955s-1.163 37.53 4.132 65.185c2.163 11.321 3.595 18.526 7.578 25.76"/><path fill="#8965FD" d="m253.306 223.557-6.594-17.86.96-13.54c.71-9.962-2.977-19.763-10.141-26.944l-.709-.716s2.476-12.406-2.477-26.796c-2.768-8.073-5.94-14.269-8.179-18.143-.738-1.283-2.741-.729-2.699.729.264 9.476-.459 20.208-4.368 35.017l-12.993-.756a59.36 59.36 0 0 0-13.118.675c-6.677 1.107-17.834 2.106-24.177-1.917-9.474-5.993-16.902-22.8-23.079-29.199a535.998 535.998 0 0 0-11.128-11.204l-3.297-16.794s-6.177 3.2-9.891 10.8c-3.714 7.6-2.88 10.799-2.88 10.799l-10.405 4.401c-.111-.135-5.022-6.034-10.781-2.308-4.187 2.713-4.8 7.37-4.8 7.37l3.687-2.713c1.572-1.147 3.728-1.188 5.328-.067l1.252.864 2.518 5.035-17.75 9.746c-2.477 1.364-3.325 4.428-1.879 6.818l1.489 2.456c-.264 4.887 1.377 9.693 4.604 13.459l9.349 10.935 15.107-19.682c1.683-2.201 5.203-1.701 6.176.864l5.161 13.621-3.143 13.445a44.295 44.295 0 0 0 1.585 25.46l9.14 14.431a1.951 1.951 0 0 1-.014 2.119l-5.37 10.071c-.987 1.862.404 4.076 2.56 4.076h19.614a2.936 2.936 0 0 0 2.463-1.336l10.475-16.658 11.142.891a31.996 31.996 0 0 0 16.777-3.24l6.524-3.254 16.902-.405c0 5.333 2.379 10.408 6.538 13.918l2.949 2.484-2.587 3.659c-1.182 1.673.056 3.941 2.142 3.941h17.5c7.749 0 13.16-7.451 10.545-14.538l-.028-.014Z"/><path fill="#C8CBD1" d="M39.387 160.918c.153-.672-.7-1.106-1.139-.564-1.073 1.323-2.562 3.513-4.095 6.938-2.956 6.678 1.971 30.81 1.971 30.81s-1.97 1.951-4.445 5.55c-2.475 3.599 1.314 11.903 1.314 11.903L19 219.306s0 8.326 2.628 11.079c2.628 2.754 5.606 3.751 5.606 3.751l4.116.326-.525-3.231a7.235 7.235 0 0 0-4.38-3.729l-.7-.217v-3.577l7.73-.499 2.145 7.827-1.182 2.168c-.438.802.153 1.756 1.051 1.756h.723c1.664 0 3.175-.91 3.963-2.341a5.603 5.603 0 0 0 .088-5.139l-2.672-5.399 7.971.174a16.188 16.188 0 0 0 11.3-4.25l7.072 1.149-2.671 6.678c-.898 2.212-.504 4.749 1.007 6.613l2.978 3.664h7.073a6.964 6.964 0 0 0-2.934-5.68l-1.84-1.323 4.774-10.429 10.051-2.276.898 1.388a10.921 10.921 0 0 0 3.657 3.534l16.839 10.06 8.234.65v-.694a4.23 4.23 0 0 0-3.328-4.119l-2.606-.564-13.84-13.702 1.16-9.128 5.738.281a14.45 14.45 0 0 0 8.277-2.168l1.643-1.04-2.628-3.513.394-4.575a6.478 6.478 0 0 0-1.949-5.225l-2.387-2.341 1.49-5.703-7.906 3.426-3.153.694a16.07 16.07 0 0 0-8.321 4.791l-6 6.57-37.84.455-3.7-24.565 2.343-9.995Z"/></svg>