<svg xmlns="http://www.w3.org/2000/svg" fill="none" viewBox="0 0 290 221"><path fill="#8965FD" d="M150.354 118.45h9.736l5.115-6.331-7.299-6.013c.512-7.009 4.435-13.281 17.455-13.29 23.168-.008 25.705 27.25 25.705 27.25s7.342-.528 17.355 4.187c10.643 5.016 14.381 13.482 14.381 13.482s24.469.21 25.259.277c8.66.745 14.952-7.286 15.288-7.855-3.183-1.909-5.317-5.376-5.317-9.346 0-6.029 4.906-10.911 10.945-10.911 6.04 0 10.946 4.89 10.946 10.911s-4.906 10.912-10.946 10.912c-.983 0-1.94-.143-2.847-.385-.034.083-.068.175-.11.259-.159.285-2.142 4.614-11.037 8.919 4.183 3.073 7.61 8.432 6.527 14.654l-1.731 19.655 10.391 15.659a7.53 7.53 0 0 1 2.142-.309c4.209 0 7.619 3.399 7.619 7.595 0 3.534-2.427 6.498-5.712 7.344v14.245h-9.517c.991-3.719 2.763-4.229 4.746-4.941l-.16-9.689c-2.696-1.173-4.586-3.844-4.586-6.967 0-1.709.571-3.275 1.52-4.539l-11.365-11.833-3.495 1.583 5.133 8.709c3.679.536 6.501 3.685 6.501 7.503 0 3.526-2.41 6.482-5.678 7.336l-3.73 12.829h-10.475c.538-3.165 5.124-5.167 6.972-4.706l1.874-8.684a7.575 7.575 0 0 1-4.192-6.775 7.589 7.589 0 0 1 3.343-6.289l-5.141-8.031s-9.433-1.7-14.692-9.136c-3.687-5.217-1.176-14.596-1.176-14.596l-7.299-.318s-1.042 11.606-12.416 19.302c-5.326 3.601-12.105 6.473-19.32 7.302v12.235a6.173 6.173 0 0 1 3.805 5.695 6.173 6.173 0 0 1-3.805 5.694v8.307h-11.374c1.982-3.115 3.562-5.376 6.124-5.418l.453-2.897a6.172 6.172 0 0 1-3.771-5.678 6.154 6.154 0 0 1 2.856-5.192l-1.067-12.595c-6.569-.519-13.222-2.989-19.245-8.391-20.438-18.322-11.105-49.039-11.105-49.039s-7.375-.745-10.467-4.112c-4.796-5.225-3.116-7.595-3.116-7.595v.017Z"/><path stroke="#8965FD" stroke-linejoin="round" stroke-width="1.156" d="M237.069 8.45a7.329 7.329 0 0 0-7.329-7.329H48.398a7.329 7.329 0 0 0-7.33 7.329v56.826a7.329 7.329 0 0 0 7.33 7.329H222.2c4.09 0 7.908 2.047 10.172 5.452l4.696 7.064V8.45Z"/><path fill="#8965FD" d="M61.093 29.633c-1.323 0-2.352-.373-3.088-1.12-.736-.757-1.104-1.808-1.104-3.152v-3.44h1.744v3.264c0 .928.208 1.621.624 2.08.416.459 1.035.688 1.856.688.597 0 1.178-.08 1.744-.24a6.038 6.038 0 0 0 1.584-.688l.08 1.712a7.805 7.805 0 0 1-1.696.672 7.05 7.05 0 0 1-1.744.224Zm2.704 3.488v-11.2h1.744v11.2h-1.744Zm6.22.192c-.64 0-1.206-.107-1.697-.32l.496-1.568c.363.139.715.208 1.056.208.363 0 .667-.085.912-.256.246-.17.464-.453.656-.848l.32-.672.336-.672 2.08-4.528 1.264-2.736h1.904l-4.416 9.408c-.33.693-.725 1.2-1.184 1.52-.458.31-1.034.464-1.728.464Zm1.615-2.752-4.384-8.64h1.968l1.36 2.736 2.048 4.048-.992 1.856Zm16.608 2.752c-1.087 0-2.063-.245-2.927-.736a5.43 5.43 0 0 1-2.017-2.064c-.48-.885-.72-1.883-.72-2.992 0-1.11.24-2.101.72-2.976a5.252 5.252 0 0 1 2.032-2.064c.864-.501 1.835-.752 2.912-.752 1.089 0 2.065.25 2.928.752a5.253 5.253 0 0 1 2.016 2.08c.491.875.737 1.861.737 2.96s-.246 2.09-.737 2.976a5.281 5.281 0 0 1-2.016 2.064c-.864.501-1.84.752-2.928.752Zm-9.263-.192v-11.2h1.743v11.2h-1.743Zm1.471-4.88v-1.664h3.36v1.664h-3.36Zm7.777 3.392c.757 0 1.434-.176 2.032-.528a3.771 3.771 0 0 0 1.391-1.472c.331-.619.496-1.323.496-2.112 0-.79-.165-1.493-.496-2.112a3.658 3.658 0 0 0-1.391-1.456c-.598-.363-1.275-.544-2.032-.544-.747 0-1.42.181-2.016.544a3.657 3.657 0 0 0-1.392 1.456c-.331.619-.496 1.323-.496 2.112 0 .79.165 1.493.496 2.112a3.77 3.77 0 0 0 1.392 1.472c.597.352 1.269.528 2.016.528Zm6.868 3.472c.362-.384.608-.747.736-1.088.138-.33.208-.741.208-1.232h.847a.902.902 0 0 1-.352.368.898.898 0 0 1-.48.128c-.309 0-.57-.107-.784-.32a1.085 1.085 0 0 1-.32-.8c0-.299.102-.55.305-.752.213-.213.48-.32.8-.32.373 0 .666.144.88.432.213.277.32.661.32 1.152 0 .565-.14 1.115-.416 1.648-.267.533-.64.997-1.12 1.392l-.624-.608Zm11.655-1.856c-.79 0-1.547-.133-2.272-.4a6.301 6.301 0 0 1-1.92-1.168l.992-1.264c.938.779 1.994 1.168 3.168 1.168.778 0 1.365-.144 1.76-.432.405-.299.608-.725.608-1.28 0-.341-.08-.635-.24-.88a1.494 1.494 0 0 0-.704-.56c-.299-.139-.656-.208-1.072-.208h-2.304V26.61h2.192c.533 0 .96-.144 1.28-.432.33-.288.496-.683.496-1.184 0-.48-.187-.853-.56-1.12-.363-.277-.87-.416-1.52-.416-.534 0-1.046.096-1.536.288-.491.181-.976.475-1.456.88l-.976-1.264a5.725 5.725 0 0 1 1.824-1.168 5.756 5.756 0 0 1 2.144-.4c.778 0 1.45.123 2.016.368.576.245 1.018.597 1.328 1.056.309.459.464 1.003.464 1.632 0 .608-.155 1.157-.464 1.648-.299.49-.726.875-1.28 1.152l-.016-.56c.65.203 1.168.576 1.552 1.12a3.06 3.06 0 0 1 .592 1.84c0 .981-.368 1.76-1.104 2.336-.726.576-1.723.864-2.992.864Zm5.676-1.456c.352-.203.635-.421.848-.656.214-.245.384-.587.512-1.024.128-.448.219-1.05.272-1.808l.464-6.384h7.312V31.97h-1.744v-9.152l.752.736h-5.44l.784-.72-.384 5.616c-.074.981-.234 1.781-.48 2.4-.245.608-.592 1.088-1.04 1.44l-1.856-.496Zm-.816 3.904v-4.24h2.16l.208.048h6.688l.368-.048h2.432v4.24H121.8v-3.344l.768.768h-9.92l.624-.768v3.344h-1.664Zm13.697-2.576v-11.2h7.056v1.616h-5.968l.656-.608v9.184l-.656-.624h6.176v1.632h-7.264Zm1.536-4.896v-1.568h5.104v1.568h-5.104Zm12.815 5.088c-1.099 0-2.07-.25-2.912-.752a5.23 5.23 0 0 1-1.968-2.064c-.47-.885-.704-1.877-.704-2.976s.229-2.085.688-2.96a5.24 5.24 0 0 1 1.952-2.08c.842-.501 1.802-.752 2.88-.752a5.51 5.51 0 0 1 2.608.624c.789.405 1.482.992 2.08 1.76l-1.248 1.088a4.186 4.186 0 0 0-1.52-1.312 4.009 4.009 0 0 0-1.92-.48c-.736 0-1.392.181-1.968.544a3.648 3.648 0 0 0-1.328 1.456c-.31.619-.464 1.323-.464 2.112 0 .79.154 1.499.464 2.128.32.619.768 1.104 1.344 1.456.576.352 1.248.528 2.016.528.746 0 1.434-.165 2.064-.496a4.52 4.52 0 0 0 1.6-1.376l1.248 1.056c-.608.821-1.328 1.445-2.16 1.872-.832.416-1.75.624-2.752.624Zm6.68-.192v-11.2h1.744v4.56l-.016.48v5.184l-.64-.656h3.168c.736 0 1.296-.176 1.68-.528.384-.352.576-.843.576-1.472 0-.63-.192-1.12-.576-1.472-.384-.363-.944-.544-1.68-.544h-3.504v-1.632h3.632c.768 0 1.445.155 2.032.464.587.299 1.04.725 1.36 1.28.32.544.48 1.179.48 1.904 0 .725-.16 1.36-.48 1.904-.32.544-.773.97-1.36 1.28-.587.299-1.264.448-2.032.448h-4.384Zm14 0v-11.2h4.576c.651 0 1.227.128 1.728.384.501.256.891.619 1.168 1.088.277.47.416.997.416 1.584 0 .597-.139 1.12-.416 1.568-.277.448-.688.81-1.232 1.088l-.016-.544a2.889 2.889 0 0 1 1.472 1.104c.373.523.56 1.125.56 1.808a3.08 3.08 0 0 1-.432 1.616 2.96 2.96 0 0 1-1.232 1.104c-.523.267-1.12.4-1.792.4h-4.8Zm1.728-.976-.64-.624h3.568c.565 0 1.013-.15 1.344-.448.341-.299.512-.704.512-1.216s-.171-.917-.512-1.216c-.331-.299-.779-.448-1.344-.448h-3.28v-1.536h3.12c.331 0 .619-.064.864-.192.256-.128.453-.31.592-.544.139-.245.208-.523.208-.832 0-.47-.155-.848-.464-1.136-.299-.288-.704-.432-1.216-.432h-3.392l.64-.624v9.248Zm8.709.976v-11.2h4.064c.779 0 1.462.16 2.048.48.598.31 1.056.752 1.376 1.328.331.565.496 1.227.496 1.984 0 .757-.165 1.424-.496 2a3.338 3.338 0 0 1-1.376 1.344c-.586.31-1.269.464-2.048.464h-3.312V27.89h3.184c.715 0 1.275-.192 1.68-.576.416-.395.624-.928.624-1.6s-.208-1.2-.624-1.584c-.405-.384-.965-.576-1.68-.576h-2.848l.64-.656v5.504l.016.48v4.24h-1.744Zm7.85 0 4.384-11.2h2.08l4.336 11.2h-1.792l-1.12-2.896-.176-.512-2.448-6.4h.32l-2.544 6.56-.128.384-1.104 2.864h-1.808Zm2.272-2.192.592-1.568h5.392l.592 1.568h-6.576Zm12.635-1.296c-1.322 0-2.352-.373-3.088-1.12-.736-.757-1.104-1.808-1.104-3.152v-3.44h1.744v3.264c0 .928.208 1.621.624 2.08.416.459 1.035.688 1.856.688.598 0 1.179-.08 1.744-.24a6.038 6.038 0 0 0 1.584-.688l.08 1.712a7.787 7.787 0 0 1-1.696.672 7.046 7.046 0 0 1-1.744.224Zm2.704 3.488v-11.2h1.744v11.2h-1.744Zm4.524 0v-11.2h1.744V32.21l-.704-1.072 6.704-9.216h1.584v11.2h-1.744V22.817l.704 1.072-6.704 9.232h-1.584Zm24.672-3.616h-9.376v-1.424h9.376v1.424ZM56.245 51.697c.65-.181 1.13-.379 1.44-.592.32-.213.55-.507.688-.88.139-.384.235-.933.288-1.648l.48-6.656h7.648v11.2H65.06V42.817l.752.768H60.02l.8-.768-.416 5.872c-.064.96-.24 1.75-.528 2.368a3.388 3.388 0 0 1-1.216 1.424c-.512.341-1.174.581-1.984.72l-.432-1.504Zm15.021 1.616c-.64 0-1.205-.107-1.696-.32l.496-1.568c.363.139.715.208 1.056.208.363 0 .667-.085.912-.256.246-.17.464-.453.656-.848l.32-.672.336-.672 2.08-4.528 1.264-2.736h1.904l-4.416 9.408c-.33.693-.725 1.2-1.184 1.52-.458.31-1.034.464-1.728.464Zm1.616-2.752-4.384-8.64h1.968l1.36 2.736 2.048 4.048-.992 1.856Zm10.836-.928c-1.323 0-2.352-.373-3.088-1.12-.736-.757-1.104-1.808-1.104-3.152v-3.44h1.744v3.264c0 .928.208 1.621.624 2.08.416.459 1.034.688 1.856.688.597 0 1.178-.08 1.744-.24a6.038 6.038 0 0 0 1.584-.688l.08 1.712a7.805 7.805 0 0 1-1.696.672 7.05 7.05 0 0 1-1.744.224Zm2.704 3.488v-11.2h1.744v11.2h-1.744Zm5.371 0v-1.664h14.096v1.664H91.793Zm-.848 0v-11.2h1.744v11.2h-1.744Zm7.008-.624V41.921h1.744v10.576h-1.744Zm7.024.624v-11.2h1.744v11.2h-1.744Zm4.531 0v-11.2h1.744V52.21l-.704-1.072 6.704-9.216h1.584v11.2h-1.744V42.817l.704 1.072-6.704 9.232h-1.584Zm12.109 0v-11.2h7.056v1.616h-5.968l.656-.608v9.184l-.656-.624h6.176v1.632h-7.264Zm1.536-4.896v-1.568h5.104v1.568h-5.104Zm11.584 3.568c.352-.203.635-.421.848-.656.213-.245.384-.587.512-1.024.128-.448.219-1.05.272-1.808l.464-6.384h7.312V51.97h-1.744v-9.152l.752.736h-5.44l.784-.72-.384 5.616c-.075.981-.235 1.781-.48 2.4-.245.608-.592 1.088-1.04 1.44l-1.856-.496Zm-.816 3.904v-4.24h2.16l.208.048h6.688l.368-.048h2.432v4.24h-1.664v-3.344l.768.768h-9.92l.624-.768v3.344h-1.664Zm13.696-2.576v-11.2h4.064c.779 0 1.461.16 2.048.48.597.31 1.056.752 1.376 1.328.331.565.496 1.227.496 1.984 0 .757-.165 1.424-.496 2a3.344 3.344 0 0 1-1.376 1.344c-.587.31-1.269.464-2.048.464h-3.312V47.89h3.184c.715 0 1.275-.192 1.68-.576.416-.395.624-.928.624-1.6s-.208-1.2-.624-1.584c-.405-.384-.965-.576-1.68-.576h-2.848l.64-.656v5.504l.016.48v4.24h-1.744Zm10.962.192c-.64 0-1.206-.107-1.696-.32l.496-1.568c.362.139.714.208 1.056.208.362 0 .666-.085.912-.256.245-.17.464-.453.656-.848l.32-.672.336-.672 2.08-4.528 1.264-2.736h1.904l-4.416 9.408c-.331.693-.726 1.2-1.184 1.52-.459.31-1.035.464-1.728.464Zm1.616-2.752-4.384-8.64h1.968l1.36 2.736 2.048 4.048-.992 1.856Zm10.115 2.688a6.531 6.531 0 0 1-2.272-.4 6.301 6.301 0 0 1-1.92-1.168l.992-1.264c.939.779 1.995 1.168 3.168 1.168.779 0 1.365-.144 1.76-.432.405-.299.608-.725.608-1.28 0-.341-.08-.635-.24-.88a1.494 1.494 0 0 0-.704-.56c-.299-.139-.656-.208-1.072-.208h-2.304V46.61h2.192c.533 0 .96-.144 1.28-.432.331-.288.496-.683.496-1.184 0-.48-.187-.853-.56-1.12-.363-.277-.869-.416-1.52-.416a4.18 4.18 0 0 0-1.536.288c-.491.181-.976.475-1.456.88l-.976-1.264a5.725 5.725 0 0 1 1.824-1.168 5.76 5.76 0 0 1 2.144-.4c.779 0 1.451.123 2.016.368.576.245 1.019.597 1.328 1.056.309.459.464 1.003.464 1.632 0 .608-.155 1.157-.464 1.648-.299.49-.725.875-1.28 1.152l-.016-.56a2.901 2.901 0 0 1 1.552 1.12c.395.544.592 1.157.592 1.84 0 .981-.368 1.76-1.104 2.336-.725.576-1.723.864-2.992.864Zm6.26-.128v-11.2h1.744v4.56l-.016.48v5.184l-.64-.656h3.168c.736 0 1.296-.176 1.68-.528.384-.352.576-.843.576-1.472 0-.63-.192-1.12-.576-1.472-.384-.363-.944-.544-1.68-.544h-3.504v-1.632h3.632c.768 0 1.446.155 2.032.464.587.299 1.04.725 1.36 1.28.32.544.48 1.179.48 1.904 0 .725-.16 1.36-.48 1.904-.32.544-.773.97-1.36 1.28-.586.299-1.264.448-2.032.448h-4.384Zm15.861 0v-4.736l.032-.416v-5.072l.624.656h-3.296c-.682 0-1.216.181-1.6.544-.384.352-.576.837-.576 1.456s.192 1.11.576 1.472c.384.352.918.528 1.6.528h2.848v1.584h-2.912c-.725 0-1.381-.155-1.968-.464a3.713 3.713 0 0 1-1.392-1.296 3.562 3.562 0 0 1-.496-1.856c0-.683.166-1.296.496-1.84a3.59 3.59 0 0 1 1.392-1.28 4.044 4.044 0 0 1 1.968-.48h4.448v11.2h-1.744Zm-6.864 0 2.8-4.496 1.808.272-2.592 4.224h-2.016Zm11.458-2.72-.144-4.416-.048-4.064h1.744l-.048 4.064-.144 4.416h-1.36Zm.688 2.88c-.32 0-.587-.101-.8-.304a1.034 1.034 0 0 1-.32-.784c0-.31.107-.565.32-.768.213-.203.48-.304.8-.304.309 0 .571.101.784.304.213.203.32.459.32.768 0 .32-.107.581-.32.784a1.095 1.095 0 0 1-.784.304Z"/><path stroke="#8965FD" stroke-linecap="round" stroke-linejoin="round" stroke-width="2.504" d="M74.033 206.965c-2.266 5.252-6.674 6.686-6.674 6.686M86.53 219.189l-.466-1.322a6.89 6.89 0 0 0-4.255-4.219l-1.05-17.539 7.34-17.048"/><path stroke="#8965FD" stroke-linecap="round" stroke-linejoin="round" stroke-width="2.504" d="M76.295 219.185a6.035 6.035 0 0 0-5.795-5.429l-9.684-.342"/><path stroke="#8965FD" stroke-linecap="round" stroke-linejoin="round" stroke-width="2.504" d="M96.23 219.186a5.538 5.538 0 0 0-5.54-5.541h-.36l-2.231-18.33 4.768-9.595a30.952 30.952 0 0 0 .909-25.552l-3.453-8.392.726-1.451a10.52 10.52 0 0 0 1.11-4.704v-1.977l.938-1.782a6.137 6.137 0 0 0-.065-5.848l-4.94-8.893-3.144 9.967-10.227 6.031-9.183-4.195 1.027 5.842a6.142 6.142 0 0 0 5.323 5.033l1.505.177a10.496 10.496 0 0 0 6.574 4.597l.466.107.69 3.151-10.079 10.728-2.69 1.316a28.92 28.92 0 0 0-14.589 16.482l-5.204 15.001a19.315 19.315 0 0 0-.03 12.57l1.11 3.246M81.803 194.797l6.29 24.39M49.644 217.18s-11.902 6.202-28.821-3.535c-10.894-6.267-18.754-18.848-18.754-18.848"/><path stroke="#8965FD" stroke-linecap="round" stroke-linejoin="round" stroke-width="2.504" d="m73.669 180.041-.938 3.747a32.063 32.063 0 0 0-.437 13.585l4 21.817"/></svg>