<svg xmlns="http://www.w3.org/2000/svg" fill="none" viewBox="0 0 630 242"><path fill="#8965fd" d="m457.759 189.028-3.025-2.551a10 10 0 0 0-4.608-2.18c-2.205-.41-5.184-.59-7.253.782-3.671 2.43-2.798 12.501-4.363 16.053-2.197 4.987-4.356 5.667-9.294 6.603-6.412 1.218-31.466.455-38.459.32-1.778-.032-3.555.276-5.184.988-1.493.653-3.154 1.698-4.266 3.295-5.081 7.167-11.609 9.398-16.218 10-5.183.68-8.48.039-10.425-.705a21 21 0 0 1-2.528-1.526.724.724 0 0 0-.943.097.71.71 0 0 0-.026.942c.064.083.918 1.058 3.044 1.859 2.663 1.314 5.468 1.962 8.493 1.962 2.657 0 5.482-.5 8.539-1.5a33.8 33.8 0 0 0 8.028-3.866c-.226 2.814-.02 5.129-.02 5.129l-4.893 2.833.737 8.796a3.667 3.667 0 0 0 3.659 3.34h5.184c-.828-1.981-2.146-3.347-4.486-3.436l1.021-7.283 16.314-5.866 33.728 7.379.911 5.417c.369 2.186 2.275 3.789 4.512 3.789h4.692c-.898-3.097-2.559-3.283-4.285-3.238l-.207-5.68 5.307-1.506c3.477-1.526 6.418-4.097 8.247-7.405 1.532-2.769 2.554-5.859 2.896-8.789l1.7-14.642 5.481.372c1.823-.038 5.372-1.333 6.606-2.776 1.228-1.442 1.784-3.256 1.784-3.256l-10.4-3.738z" opacity=".3"/><path stroke="#8965fd" stroke-linecap="round" stroke-linejoin="round" stroke-width="2.5" d="M298.729 240.287c-.509-3.745-2.907-6.559-5.924-9.074l-2.28-24.191 3.048-16.167s8.651-3.84 13.102-15.547c4.452-11.716 4.624-28.172 4.624-28.172s6.41 2.962 11.559 2.022 6.089-4.451 6.089-4.451l-9.138-6.324-.877-3.644a8.3 8.3 0 0 0-3.456-4.945l-3.629-2.422-1.872-9.372-4.451 6.559L299.67 118s-2.108.94-2.578 6.324c-.471 5.391 0 7.499 0 7.499s-4.452.706-13.589 7.962c-9.137 7.265-12.844 10.752-17.984 12.852-5.94 2.421-6.842 1.442-24.881 2.147-13.338.517-20.093 2.469-24.826 6.747-5.869-3.33-9.02-8.557-8.44-12.836.706-5.156 4.052-9.137 11.246-6.324 5.085 1.991.242 12.256.242 12.256s21.543-7.099 13.346-23.266c-6.943-13.69-25.461-10.383-33.031-2.813-12.648 12.648-5.853 25.304-.235 30.217 3.009 2.633 9.255 5.07 13.542 6.544a33 33 0 0 0-1.129 1.661c-11.715 18.274.941 35.844.941 35.844s-7.265 14.058-8.197 22.49c-.933 8.432 6.559 14.991 6.559 14.991"/><path stroke="#8965fd" stroke-linecap="round" stroke-linejoin="round" stroke-width="2.5" d="M218.375 240.287s1.637-3.048-2.108-4.921l-3.746-1.873s-1.638-3.981 4.451-13.118 16.401-14.521 21.55-22.02c5.156-7.5 4.686-13.824 4.686-13.824s7.735 4.216 20.383 6.794c12.648 2.579 13.792 1.411 13.792 1.411l.87 10.454a33 33 0 0 0 1.653 7.93l8.213 24.121c1.026 3.017 2.045 4.161 3.275 5.054"/><path fill="#8965fd" d="M185.687 161.376c-.371-.419-1.007-.482-1.499-.217-2.092 1.14-7.087 4.206-10.497 9.103-4.412 6.334.148 13.554-5.297 18.27s-11.832 4.212-11.832 4.212l2.442.408a15 15 0 0 0-3.813-2.259c-4.899-2.016-10.143-3.533-15.481-3.48-18.262.175-25.518 6.339-25.518 6.339l-4.12-3.931 1.684-1.724 3.119.488a2.91 2.91 0 0 0 2.648-.965l2.866-3.279a.316.316 0 0 0-.021-.435l-3.464-3.326a5.26 5.26 0 0 0-2.368-4.106l-1.159-.759.497-5.108c.053-.531-.603-.822-.958-.425l-3.66 4.059-1.764-.589-.927-5.342a.55.55 0 0 0-1.011-.197l-2.892 4.685c-3.665 5.941-5.211 13.702-5.598 20.593-.265 4.743.164 10.806 3.766 14.302l-.043.048 7.738 9.23-1.621 17.682-1.874 1.103c-1.51.886-2.527 2.504-2.76 4.244h6.255l1.16-2.727a22 22 0 0 0 1.679-5.453l.545-3.204 5.975-10.064c7.028 5.586 9.618 10.652 9.618 10.652l.667 6.531c-1.806.403-2.383 2.435-2.431 4.26h5.884v-7.114s-.296-8.843-2.5-15.618a62 62 0 0 0-1.35-3.761s7.277-3.278 13.601-2.541c.381 8.35 4.374 16.763 4.374 16.763l-5.254 8.987c-1.716 0-3.177 1.581-3.447 3.278h5.614l7.504-10.944v-1.252c0-3.236.858-6.408 2.479-9.204l1.732-2.981 2.733 3.629a17.27 17.27 0 0 0 7.822 5.814l4.057 1.49.149 9.724c-1.759.17-3.088 1.968-3.088 3.724h6.62l1.028-16.981-4.126-2.318a6.23 6.23 0 0 1-3.172-5.092 183 183 0 0 0-.493-6.292c-.397-4.271-1.329-8.615-3.458-12.148q.023-.002.047-.011c5.71-1.549 9.883-5.814 11.207-10.238 1.324-4.419.736-11.199 2.648-15.178 1.499-3.119 6.88-7.05 9.142-8.604.577-.398.688-1.22.206-1.756zM490.286 138.633h9.736l5.116-6.331-7.3-6.012c.512-7.009 4.435-13.282 17.455-13.29 23.168-.008 25.705 27.25 25.705 27.25s7.342-.528 17.355 4.187c10.643 5.016 14.381 13.482 14.381 13.482s24.469.209 25.259.276c8.661.746 14.952-7.285 15.288-7.855-3.183-1.909-5.317-5.376-5.317-9.345 0-6.03 4.906-10.912 10.945-10.912s10.946 4.891 10.946 10.912-4.906 10.911-10.946 10.911c-.982 0-1.94-.142-2.847-.385-.034.084-.067.176-.109.26-.16.285-2.142 4.614-11.038 8.918 4.183 3.074 7.61 8.433 6.527 14.655l-1.731 19.654 10.391 15.66a7.5 7.5 0 0 1 2.142-.31c4.209 0 7.619 3.4 7.619 7.595 0 3.534-2.427 6.499-5.712 7.345v14.244h-9.517c.991-3.718 2.763-4.229 4.746-4.941l-.16-9.689c-2.696-1.172-4.586-3.843-4.586-6.967 0-1.708.571-3.274 1.52-4.539l-11.365-11.832-3.495 1.582 5.133 8.709c3.679.536 6.502 3.685 6.502 7.504 0 3.525-2.411 6.481-5.679 7.335l-3.73 12.83h-10.475c.538-3.166 5.124-5.167 6.972-4.707l1.874-8.684a7.57 7.57 0 0 1-4.192-6.774 7.59 7.59 0 0 1 3.343-6.289l-5.141-8.031s-9.433-1.7-14.691-9.136c-3.688-5.217-1.177-14.597-1.177-14.597l-7.299-.318s-1.042 11.607-12.416 19.303c-5.325 3.601-12.104 6.473-19.32 7.302v12.235a6.17 6.17 0 0 1 3.805 5.694 6.17 6.17 0 0 1-3.805 5.695v8.307h-11.374c1.982-3.115 3.562-5.377 6.124-5.418l.453-2.898a6.17 6.17 0 0 1-3.771-5.678c0-2.185 1.142-4.094 2.856-5.192l-1.067-12.594c-6.569-.519-13.222-2.99-19.245-8.391-20.437-18.323-11.105-49.039-11.105-49.039s-7.375-.746-10.466-4.112c-4.797-5.226-3.117-7.595-3.117-7.595z"/><path stroke="#8965fd" stroke-linejoin="round" stroke-width="1.5" d="M535.566 28.329A7.33 7.33 0 0 0 528.238 21H319.326a7.33 7.33 0 0 0-7.328 7.329v56.826a7.33 7.33 0 0 0 7.328 7.329h200.682c3.822 0 7.424 1.789 9.733 4.834l5.825 7.682z"/><path fill="#8965fd" d="M334.761 50.076q-2.232 0-3.474-1.26-1.242-1.278-1.242-3.546V41.4h1.962v3.672q0 1.566.702 2.34t2.088.774a7.2 7.2 0 0 0 1.962-.27 6.8 6.8 0 0 0 1.782-.774l.09 1.926q-.9.486-1.908.756a8 8 0 0 1-1.962.252M337.803 54V41.4h1.962V54zm6.997.216q-1.08 0-1.908-.36l.558-1.764q.612.234 1.188.234.612 0 1.026-.288t.738-.954l.36-.756.378-.756 2.34-5.094 1.422-3.078h2.142l-4.968 10.584q-.558 1.17-1.332 1.71-.774.522-1.944.522m1.818-3.096-4.932-9.72h2.214l1.53 3.078 2.304 4.554zm18.684 3.096q-1.836 0-3.294-.828a6.1 6.1 0 0 1-2.268-2.322q-.81-1.494-.81-3.366t.81-3.348a5.9 5.9 0 0 1 2.286-2.322q1.458-.846 3.276-.846 1.836 0 3.294.846a5.9 5.9 0 0 1 2.268 2.34q.828 1.476.828 3.33t-.828 3.348a5.94 5.94 0 0 1-2.268 2.322q-1.458.846-3.294.846M354.88 54V41.4h1.962V54zm1.656-5.49v-1.872h3.78v1.872zm8.748 3.816q1.278 0 2.286-.594a4.24 4.24 0 0 0 1.566-1.656q.558-1.044.558-2.376t-.558-2.376a4.1 4.1 0 0 0-1.566-1.638q-1.008-.612-2.286-.612-1.26 0-2.268.612a4.1 4.1 0 0 0-1.566 1.638q-.558 1.044-.558 2.376t.558 2.376a4.24 4.24 0 0 0 1.566 1.656q1.008.594 2.268.594m7.727 3.906q.612-.648.828-1.224.234-.558.234-1.386h.954q-.144.27-.396.414a1 1 0 0 1-.54.144 1.2 1.2 0 0 1-.882-.36q-.36-.36-.36-.9 0-.504.342-.846.36-.36.9-.36.63 0 .99.486.36.468.36 1.296 0 .954-.468 1.854-.45.9-1.26 1.566zm13.112-2.088q-1.332 0-2.556-.45a7.1 7.1 0 0 1-2.16-1.314l1.116-1.422q1.584 1.314 3.564 1.314 1.314 0 1.98-.486.684-.504.684-1.44 0-.576-.27-.99a1.7 1.7 0 0 0-.792-.63q-.504-.234-1.206-.234h-2.592v-1.818h2.466q.9 0 1.44-.486.558-.486.558-1.332 0-.81-.63-1.26-.612-.468-1.71-.468a4.7 4.7 0 0 0-1.728.324q-.828.306-1.638.99l-1.098-1.422a6.4 6.4 0 0 1 2.052-1.314q1.134-.45 2.412-.45 1.314 0 2.268.414.972.414 1.494 1.188t.522 1.836q0 1.026-.522 1.854-.504.828-1.44 1.296l-.018-.63a3.27 3.27 0 0 1 1.746 1.26q.666.918.666 2.07 0 1.656-1.242 2.628-1.224.972-3.366.972m6.386-1.638a4 4 0 0 0 .954-.738q.36-.414.576-1.152.216-.756.306-2.034l.522-7.182h8.226v11.304h-1.962V42.408l.846.828h-6.12l.882-.81-.432 6.318q-.126 1.656-.54 2.7-.414 1.026-1.17 1.62zm-.918 4.392v-4.77h2.43l.234.054h7.524l.414-.054h2.736v4.77h-1.872v-3.762l.864.864h-11.16l.702-.864v3.762zM407 54V41.4h7.938v1.818h-6.714l.738-.684v10.332l-.738-.702h6.948V54zm1.728-5.508v-1.764h5.742v1.764zm14.416 5.724q-1.854 0-3.276-.846a5.9 5.9 0 0 1-2.214-2.322q-.792-1.494-.792-3.348t.774-3.33a5.9 5.9 0 0 1 2.196-2.34q1.422-.846 3.24-.846 1.602 0 2.934.702 1.332.684 2.34 1.98l-1.404 1.224a4.7 4.7 0 0 0-1.71-1.476 4.5 4.5 0 0 0-2.16-.54q-1.242 0-2.214.612a4.1 4.1 0 0 0-1.494 1.638q-.522 1.044-.522 2.376t.522 2.394q.54 1.044 1.512 1.638t2.268.594q1.26 0 2.322-.558a5.1 5.1 0 0 0 1.8-1.548l1.404 1.188q-1.026 1.386-2.43 2.106-1.404.702-3.096.702M430.66 54V41.4h1.962v5.13l-.018.54v5.832l-.72-.738h3.564q1.242 0 1.89-.594t.648-1.656-.648-1.656q-.648-.612-1.89-.612h-3.942V45.81h4.086q1.296 0 2.286.522a3.6 3.6 0 0 1 1.53 1.44q.54.918.54 2.142t-.54 2.142a3.77 3.77 0 0 1-1.53 1.44q-.99.504-2.286.504zm15.75 0V41.4h5.148q1.098 0 1.944.432a3.16 3.16 0 0 1 1.314 1.224q.468.792.468 1.782 0 1.008-.468 1.764t-1.386 1.224l-.018-.612a3.25 3.25 0 0 1 1.656 1.242q.63.882.63 2.034 0 1.008-.486 1.818-.486.792-1.386 1.242-.882.45-2.016.45zm1.944-1.098-.72-.702h4.014q.954 0 1.512-.504.576-.504.576-1.368t-.576-1.368q-.558-.504-1.512-.504h-3.69v-1.728h3.51q.558 0 .972-.216.432-.216.666-.612.234-.414.234-.936 0-.792-.522-1.278-.504-.486-1.368-.486h-3.816l.72-.702zM458.152 54V41.4h4.572q1.314 0 2.304.54a3.65 3.65 0 0 1 1.548 1.494q.558.954.558 2.232t-.558 2.25a3.76 3.76 0 0 1-1.548 1.512q-.99.522-2.304.522h-3.726v-1.836h3.582q1.206 0 1.89-.648.702-.666.702-1.8t-.702-1.782q-.684-.648-1.89-.648h-3.204l.72-.738v6.192l.018.54V54zm8.831 0 4.932-12.6h2.34l4.878 12.6h-2.016l-1.26-3.258-.198-.576-2.754-7.2h.36l-2.862 7.38-.144.432L469.017 54zm2.556-2.466.666-1.764h6.066l.666 1.764zm14.215-1.458q-2.232 0-3.474-1.26-1.242-1.278-1.242-3.546V41.4H481v3.672q0 1.566.702 2.34t2.088.774a7.2 7.2 0 0 0 1.962-.27 6.8 6.8 0 0 0 1.782-.774l.09 1.926q-.9.486-1.908.756a8 8 0 0 1-1.962.252M486.796 54V41.4h1.962V54zm5.088 0V41.4h1.962v11.574l-.792-1.206 7.542-10.368h1.782V54h-1.962V42.408l.792 1.206L493.666 54zm27.757-4.068h-10.548V48.33h10.548zM329.307 72.398q1.098-.306 1.62-.666.54-.36.774-.99.234-.648.324-1.854l.54-7.488h8.604V74h-1.944V62.408l.846.864h-6.516l.9-.864-.468 6.606q-.108 1.62-.594 2.664-.486 1.026-1.368 1.602-.864.576-2.232.81zm16.899 1.818q-1.08 0-1.908-.36l.558-1.764q.612.234 1.188.234.612 0 1.026-.288t.738-.954l.36-.756.378-.756 2.34-5.094 1.422-3.078h2.142l-4.968 10.584q-.558 1.17-1.332 1.71-.774.522-1.944.522m1.818-3.096-4.932-9.72h2.214l1.53 3.078 2.304 4.554zm12.191-1.044q-2.232 0-3.474-1.26-1.242-1.278-1.242-3.546V61.4h1.962v3.672q0 1.566.702 2.34t2.088.774a7.2 7.2 0 0 0 1.962-.27 6.8 6.8 0 0 0 1.782-.774l.09 1.926q-.9.486-1.908.756a8 8 0 0 1-1.962.252M363.257 74V61.4h1.962V74zm6.042 0v-1.872h15.858V74zm-.954 0V61.4h1.962V74zm7.884-.702V61.4h1.962v11.898zm7.902.702V61.4h1.962V74zm5.097 0V61.4h1.962v11.574l-.792-1.206L397.94 61.4h1.782V74h-1.962V62.408l.792 1.206L391.01 74zm13.623 0V61.4h7.938v1.818h-6.714l.738-.684v10.332l-.738-.702h6.948V74zm1.728-5.508v-1.764h5.742v1.764zm13.032 4.014a4 4 0 0 0 .954-.738q.36-.414.576-1.152.216-.756.306-2.034l.522-7.182h8.226v11.304h-1.962V62.408l.846.828h-6.12l.882-.81-.432 6.318q-.126 1.656-.54 2.7-.414 1.026-1.17 1.62zm-.918 4.392v-4.77h2.43l.234.054h7.524l.414-.054h2.736v4.77h-1.872v-3.762l.864.864h-11.16l.702-.864v3.762zM432.101 74V61.4h4.572q1.314 0 2.304.54a3.65 3.65 0 0 1 1.548 1.494q.558.954.558 2.232t-.558 2.25a3.76 3.76 0 0 1-1.548 1.512q-.99.522-2.304.522h-3.726v-1.836h3.582q1.206 0 1.89-.648.702-.666.702-1.8t-.702-1.782q-.684-.648-1.89-.648h-3.204l.72-.738v6.192l.018.54V74zm12.332.216q-1.08 0-1.908-.36l.558-1.764q.612.234 1.188.234.612 0 1.026-.288t.738-.954l.36-.756.378-.756 2.34-5.094 1.422-3.078h2.142l-4.968 10.584q-.558 1.17-1.332 1.71-.774.522-1.944.522m1.818-3.096-4.932-9.72h2.214l1.53 3.078 2.304 4.554zm11.38 3.024q-1.332 0-2.556-.45a7.1 7.1 0 0 1-2.16-1.314l1.116-1.422q1.584 1.314 3.564 1.314 1.314 0 1.98-.486.684-.504.684-1.44 0-.576-.27-.99a1.7 1.7 0 0 0-.792-.63q-.504-.234-1.206-.234h-2.592v-1.818h2.466q.9 0 1.44-.486.558-.486.558-1.332 0-.81-.63-1.26-.612-.468-1.71-.468a4.7 4.7 0 0 0-1.728.324q-.828.306-1.638.99l-1.098-1.422a6.4 6.4 0 0 1 2.052-1.314q1.134-.45 2.412-.45 1.314 0 2.268.414.972.414 1.494 1.188t.522 1.836q0 1.026-.522 1.854-.504.828-1.44 1.296l-.018-.63a3.27 3.27 0 0 1 1.746 1.26q.666.918.666 2.07 0 1.656-1.242 2.628-1.224.972-3.366.972m7.042-.144V61.4h1.962v5.13l-.018.54v5.832l-.72-.738h3.564q1.242 0 1.89-.594t.648-1.656-.648-1.656q-.648-.612-1.89-.612h-3.942V65.81h4.086q1.296 0 2.286.522a3.6 3.6 0 0 1 1.53 1.44q.54.918.54 2.142t-.54 2.142a3.77 3.77 0 0 1-1.53 1.44q-.99.504-2.286.504zm17.844 0v-5.328l.036-.468v-5.706l.702.738h-3.708q-1.152 0-1.8.612-.648.594-.648 1.638t.648 1.656q.648.594 1.8.594h3.204v1.782h-3.276q-1.224 0-2.214-.522a4.17 4.17 0 0 1-1.566-1.458 4 4 0 0 1-.558-2.088q0-1.152.558-2.07a4.03 4.03 0 0 1 1.566-1.44q.99-.54 2.214-.54h5.004V74zm-7.722 0 3.15-5.058 2.034.306L477.063 74zm12.89-3.06-.162-4.968-.054-4.572h1.962l-.054 4.572-.162 4.968zm.774 3.24q-.54 0-.9-.342t-.36-.882q0-.522.36-.864t.9-.342q.522 0 .882.342t.36.864q0 .54-.36.882t-.882.342"/><path fill="#8965fd" d="M263.282 6.914S262.747 0 247.071 0c-17.842 0-25.942 16.567-33.519 36.404-2.858 7.493-8.027 16.651-13.366 25.17-10.216 16.29-28.447 25.894-47.772 25.122-8.976-.35-17.951-.712-26.915-1.062-10.763-.422-21.624-1.472-32.4-.845-9.534.555-19.52 3.85-28.81.157-13.647-5.43-17.441-22.093-14.145-32.977 2.165-7.155 8.72-12.778 15.117-12.331 8.392.59 7.31 5.453 6.495 6.43-1.24 1.51-3.102 1.533-4.877 1.038-1.533-.434-2.42 1.654-1.01 2.402a8.3 8.3 0 0 0 1.752.687c2.748.736 4.682.893 7.382-2.328 3.563-4.248 1.763-10.607-5.716-12.248-11.846-2.594-20.408 3.488-25.273 11.801s-4.33 22.793 0 30.841 8.647 12.996 8.647 12.996l-4.864 2.28 8.647 3.753-6.908 3.692 9.486 2.619a43.2 43.2 0 0 0-6.117 13.562l-9.45 45.852a52.7 52.7 0 0 1-15.92 28.114l-9.462 8.736c-5.777 5.333-9.949 12.175-12.004 19.728L0 241.988h51.932s21.076.181 40-21.092c19.18-21.562 19.484-52.271 19.484-59.86.45 4.573 13.123 20.174 28.617 27.68 30.235 14.648 46.483 13.948 46.483 13.948v13.321c0 14.468 11.821 26.015 26.392 26.015h19.009l1.398-2.474a22.4 22.4 0 0 0 .548-19.692l-4.646-10.196 15.409-40.542a101.7 101.7 0 0 0 6.616-33.58c.207-8.097-1.18-16.169-3.867-23.819l-2.834-8.072s12.077-16.809 11.529-31.819c-.413-11.56-.06-20.32-.814-29.405-.596-7.228 4.743-13.611 12.003-14.407l10.654-1.17c6.373-.7 11.955-4.562 14.826-10.257l3.502-6.962-32.971-2.679z" opacity=".3"/></svg>