<svg xmlns="http://www.w3.org/2000/svg" fill="none" viewBox="0 0 264 205"><path fill="#D2D3DD" d="M146.449 90.78s4.32 1.276 8.871 6.978c8.041 10.084 10.585 21.064 10.585 21.064l5.735 6.582 33.943-4.051a28.228 28.228 0 0 1 1.533-.041c16.195-.07 29.735 12.324 31.888 28.298l1.303 9.696s16.864 2.635 22.487 15.8c5.624 13.164-10.25 24.025-10.25 24.025l-21.826-30.94-.829 14.481 7.108 7.574-5.951 13.747h-10.913c-.188-2.955 1.882-5.576 4.816-6.09l.48-.083.614-9.634-6.969-1.851c-6.083-.881-11.442-6.631-13.456-12.415l-1.415-4.079-24.152 10.05a22.5 22.5 0 0 1-19.254-.936l-3.491-1.873v5.188c0 5.785-3.624 10.952-9.08 12.942l-.844.306-5.114 8.482-5.547-.049c-.725-3.773-.864-4.071 1.979-6.665l3.094-1.082-.209-20.259s-7.129-5.154-13.394-13.664c-10.738-14.579-10.25-28.964-5.289-38.514 2.321-4.467 5.429-7.962 8.063-9.849l-.495-4.134-8.369.16a11.653 11.653 0 0 1-8.223-3.392L111 103.688l17.526-6.256a7.37 7.37 0 0 1 3.589-4.96l1.909-1.088-1.213-2.643a.582.582 0 0 1 .405-.811l4.125-.916a.581.581 0 0 1 .634.278l1.561 2.663a.233.233 0 0 0 .376.035l1.854-2.206a1.8 1.8 0 0 1 1.651-.617l2.077.319a1.798 1.798 0 0 1 1.324 2.608l-.369.7v-.014Z"/><path stroke="#8965FD" stroke-linecap="round" stroke-linejoin="round" stroke-width="2.015" d="m190.374 203.688 1.162-2.072a18.901 18.901 0 0 0 .455-16.494l-3.861-8.54 12.805-33.958a85.788 85.788 0 0 0 5.498-28.127c.172-6.781-.98-13.543-3.214-19.95l-2.355-6.761s10.036-14.079 9.581-26.652c-.343-9.682-.05-17.02-.677-24.63-.495-6.053 3.942-11.4 9.975-12.067l8.854-.98a15.708 15.708 0 0 0 12.32-8.59l2.911-5.832-27.399-2.244S215.984 1 202.956 1c-14.826 0-21.557 13.876-27.853 30.492-2.376 6.276-6.671 13.947-11.108 21.082-8.489 13.644-23.639 21.689-39.698 21.042-7.459-.293-14.918-.596-22.366-.89-8.945-.353-17.97-1.232-26.924-.707-7.924.465-16.222 3.224-23.943.132-11.34-4.548-14.493-18.506-11.754-27.622 1.799-5.993 7.246-10.703 12.563-10.329 6.973.495 6.074 4.568 5.397 5.387-1.031 1.263-2.578 1.284-4.053.87-1.274-.365-2.011 1.384-.84 2.01.425.233.91.425 1.456.577 2.284.616 3.891.747 6.135-1.951 2.961-3.558 1.465-8.884-4.75-10.258-9.844-2.173-16.96 2.92-21.002 9.884-4.042 6.963-3.598 19.091 0 25.833 3.598 6.74 7.186 10.884 7.186 10.884l-4.043 1.91 7.186 3.144-5.74 3.092 7.883 2.194a36.345 36.345 0 0 0-5.084 11.36l-7.853 38.404a44.22 44.22 0 0 1-13.23 23.549l-7.862 7.317a35.092 35.092 0 0 0-9.975 16.524"/><path stroke="#8965FD" stroke-linecap="round" stroke-linejoin="round" stroke-width="2.015" d="M40.79 203.679s17.514.152 33.24-17.666c15.938-18.061 16.19-43.782 16.19-50.139.374 3.83 10.906 16.898 23.781 23.185 25.125 12.269 38.628 11.683 38.628 11.683v11.157c0 12.118 7.438 18.667 14.634 21.79"/><path fill="#8965FD" d="M66.339 171.049c-1.51 1.824-4.388 2.664-7.676.446-5.38-3.63-10.942-14.955-10.942-14.955l-.045.068c-1.328-2.481-3.226-4.791-5.99-6.586-6.656-4.322-19.279-2.355-23.78-2.75-4.503-.394-6.36-4.024-6.36-4.024l3.72-3.928s.246 2.836 5.432 4.116c5.186 1.275 7.494-1.269 7.494-1.269l-4.975-5.099s-.217-.589-.023-3.242c.194-2.652-.883-5.499-3.522-6.871-2.644-1.372-4.405.886-4.405.886l-2.758-2.207a2.906 2.906 0 0 0-3.739.097l-7.402 6.58.746.829 9.625-3.441s-7.243 7.557-8.32 18.654c-1.077 11.096 2.416 19.157 2.416 19.157L7.5 190.286l-1.226 5.883c-1.413.72-4.376 3.533-6.274 5.831h5.283l3.778-5.168 1.772-8.324.422-19.546 3.106 1.572.906 22.382-1.846 4.168c-1.214.617-3.397 2.378-4.907 4.91h6.656l3.032-8.003 1.47-23.268s2.838.297 7.437-3.339c4.599-3.63 4.792-7.266 4.792-7.266l1.99.412-.383 7.615a13.6 13.6 0 0 0 2.554 8.632l5.624 7.792-2.74 12.469c-.799.434-2.85 2.527-3.939 4.956h5.602l4.502-18.997-5.87-10.113 2.935-6.774s.393 1.766 3.328 6.38c2.935 4.613 8.218 12.074 8.218 12.074l.296 12.171c-1.208 1.035-2.131 3.63-2.644 5.254h5.482v-18.998s-5.482-10.21-6.166-15.807c-.005-.063-.017-.131-.023-.194 2.485 2.67 5.471 5.397 8.138 6.529 5.973 2.538 8.195-2.207 8.195-2.207s.011-1.103-.661-.292v.029Z"/></svg>