<svg xmlns="http://www.w3.org/2000/svg" fill="none" viewBox="0 0 440 467"><g clip-path="url(#a)"><mask id="b" width="714" height="362" x="-146" y="-142" maskUnits="userSpaceOnUse" style="mask-type:luminance"><path fill="#fff" d="M210.975 219.038 567.028-141.51h-712.106z"/></mask><g stroke-miterlimit="10" stroke-width="13.47" mask="url(#b)"><path stroke="#8965fd" d="M206.512 287.536c44.549 0 80.664-36.109 80.664-80.652s-36.115-80.652-80.664-80.652-80.664 36.109-80.664 80.652 36.114 80.652 80.664 80.652Z"/><path stroke="#d6cefd" d="M206.507 334.938c70.731 0 128.07-57.33 128.07-128.05s-57.339-128.05-128.07-128.05-128.07 57.33-128.07 128.05 57.339 128.05 128.07 128.05Z"/><path stroke="#8965fd" d="M206.507 382.355c96.928 0 175.503-78.563 175.503-175.476S303.435 31.403 206.507 31.403 31.004 109.967 31.004 206.88s78.575 175.476 175.503 175.476Z"/></g><path fill="#8965fd" d="M206.203 220.618c7.363 0 13.347 5.984 13.347 13.346v84.898c0 7.362-5.984 13.345-13.347 13.345s-13.348-5.983-13.348-13.345v-84.898c0-7.362 5.985-13.346 13.348-13.346M206.203 173.758c7.363 0 13.347 5.983 13.347 13.345s-5.984 13.346-13.347 13.346-13.348-5.984-13.348-13.346 5.985-13.345 13.348-13.345"/><path fill="#8965fd" d="M348.227 314.051s-.469-2.482-.607-3.033l-21.841-101.221c-3.392-15.965-16.685-27.298-32.018-27.298-12.244 0-23.468 7.279-29.122 18.888l-24.599 50.431h-67.73l-24.599-50.431c-5.654-11.609-16.878-18.888-29.122-18.888-15.333 0-28.625 11.333-32.017 27.298L64.84 310.632c-.166.744-.331 1.516-.497 2.261 0 0-.193.992-.193 1.075a77 77 0 0 0-.386 2.482c-35.933 3.832-63.98 33.805-63.98 70.091 0 38.878 32.21 70.505 71.784 70.505h126.609v-22.5H71.569c-27.191 0-49.308-21.535-49.308-48.033 0-23.933 18.063-43.841 41.614-47.426 5.764 36.039 37.45 63.695 75.563 63.695h133.447c42.194 0 76.528-33.86 76.528-75.496 0-4.522-.442-8.934-1.214-13.263z"/><path fill="#fff" d="M313.399 327.318c0-21.783-18.173-39.485-40.483-39.485H139.468c-22.31 0-40.484 17.702-40.484 39.485s18.174 39.485 40.484 39.485h66.903v43.51l87.283-49.108c11.803-6.893 19.718-19.494 19.718-33.887z"/><path fill="#18222c" d="M138.478 348.24c11.56 0 20.932-9.37 20.932-20.928s-9.372-20.928-20.932-20.928-20.931 9.37-20.931 20.928 9.371 20.928 20.931 20.928M273.994 348.24c11.56 0 20.931-9.37 20.931-20.928s-9.371-20.928-20.931-20.928-20.932 9.37-20.932 20.928 9.372 20.928 20.932 20.928M206.4 466.757c11.56 0 20.931-9.37 20.931-20.929S217.96 424.9 206.4 424.9s-20.931 9.37-20.931 20.928 9.371 20.929 20.931 20.929"/></g><path stroke="#8965fd" stroke-linecap="round" stroke-width="67.619" d="M369.767 412.338a117.65 117.65 0 0 0 32.349-61.018l1.405-7.322"/><circle cx="13.152" cy="13.152" r="13.152" fill="#fff" transform="rotate(-168.55 224.895 150.86)scale(1 -1)"/><circle cx="6.576" cy="6.576" r="6.576" fill="#fff" transform="rotate(-168.55 223.093 140.512)scale(1 -1)"/><circle cx="6.576" cy="6.576" r="6.576" fill="#fff" transform="rotate(-168.55 230.982 144.625)scale(1 -1)"/><circle cx="6.576" cy="6.576" r="6.576" fill="#fff" transform="rotate(-168.55 214.541 142.977)scale(1 -1)"/><path fill="#fff" d="M111.605 330.524h55.803v21.463h-55.803z"/><defs><clipPath id="a"><path fill="#fff" d="M0 0h402.201v467H0z"/></clipPath></defs></svg>